<?xml version="1.0" encoding="UTF-8"?>
<svg id="Layer_2" data-name="Layer 2" xmlns="http://www.w3.org/2000/svg" viewBox="0 0 345.47 394.34">
  <defs>
    <style>
      .cls-1 {
        fill: #aadee9;
      }

      .cls-1, .cls-2, .cls-3, .cls-4, .cls-5, .cls-6, .cls-7, .cls-8, .cls-9, .cls-10 {
        fill-rule: evenodd;
        stroke-width: 0px;
      }

      .cls-2 {
        fill: #663614;
      }

      .cls-4 {
        fill: #ca9833;
      }

      .cls-5 {
        fill: #010101;
      }

      .cls-6 {
        fill: #fff;
      }

      .cls-7 {
        fill: #5dbd77;
      }

      .cls-8 {
        fill: #f2673a;
      }

      .cls-9 {
        fill: #b3b3b3;
      }

      .cls-10 {
        fill: #fdcc99;
      }
    </style>
  </defs>
  <g id="Layer_1-2" data-name="Layer 1">
    <path class="cls-5" d="m154.64,113.29l-.49-.86c-.39-.93-.65-1.91-.76-2.91-.41-2.03-.72-4.07-.91-6.13-.16-4.42-.36-8.79,2.77-11.72-.05-1.56-.15-3.11-.24-4.66,0-.51,0-1.15-.09-1.71-.31-.42-.65-.84-.95-1.27-3.4-4.86-2.87-8.87-.46-13.24-1.16-2.52-.84-5.46.82-7.68-.26-1.99.19-4.01,1.27-5.7.34-1.33.54-2.7.59-4.07.25-2.77.46-5.51.9-8.26,1.17-7.26,3.81-14,9.86-18.62,1.56-1.18,2.89-2.61,4.49-3.76s3.38-1.79,4.76-2.84c3-2.28,3.82-2.18,7.21-3.1,4.47-1.2,8.81-3.25,13.5-3.52,5.22-.4,10.47-.12,15.61.84,2.39.48,4.7,1.29,6.86,2.42,1.72.68,7.66,1,9.74,1.27,3.31.37,7.43.87,10.49,2.18,4.46,1.93,6.66,4.52,10.13,7.55,4.07,3.55,5.95,5.68,7.84,10.94,1.24,3.43,2.75,12.12,2.52,15.71-.09,1.45-.8,4.77-.6,5.84.22.63.73,1.46,1,2.11.93,1.83,1.15,3.94.62,5.93-.29.9-.72,1.74-1.28,2.5.06.74.26,1.58.28,2.4.06,3-.76,4.66-1.25,7.27.45,1,1.34,2.23,1.8,3.49,1.06,3.05,1,6.38-.18,9.38-.51,1.68-1.57,3.15-3,4.17-.2,1.72-.53,3.42-1,5.09,5.68,8.77,1.8,23.39-3,31.53-1.18,1.96-2.74,3.66-4.59,5-.29.22-.59.41-.88.59.11.41.18.84.23,1.26.17,1.43.23,2.85.36,4.35l1.41,22c4.96.93,9.42,3.59,12.61,7.5.42.49.76,1,1.14,1.49.2.08.4.14.61.2,6.71,2.13,13.33,4.44,19.91,6.94,3.19,1.21,6.5,2.07,9.73,3.17h.12l9.94,4,.2.11c2.67,1.43,6.6,2.87,8.92,4.55,3,2.2,5.14,6.47,6.89,9.69,2.38,4.37,1.32,6.71,2.72,10.86,1,3.03,2.19,5.99,3.55,8.87,3.01,6.53,5.46,13.3,7.33,20.24,1,3.41,1.62,6.92,2.73,10.29,2.44,7.42,5.34,14,5.91,21.94.25,3.43-.29,6.36-2.48,9.09-.31.39-.66.76-1,1.14.79,1.92,1.33,3.94,1.6,6,.51,2.8,1.23,5.52,1.63,8.35.81,5.68,3.41,11.2,3.39,17,0,12.31-4.43,21.4-8.8,32.49-1.84,4.67-3.8,9.31-5.61,14-.94,2.43-1.69,4.92-2.68,7.33s-2.35,4.46-3.48,6.76c-2,4.18-4.87,14-9.76,15.12-1.39.16-2.79.2-4.18.1l-6.5-.13c-3-.07-6-.15-9-.2-2.73,0-5.53-.59-8.22,0l-.48.09-28.91-.63c-26.12,0-52.24-.56-78.36-.56-6.37,0-12.74-.05-19.11-.16-4-.06-8-.14-12-.29-2.77-.04-5.54-.23-8.3-.55l-3.88-.55.23-3.91c.33-5.53.33-11.08,0-16.61-.34-5.74.62-12-.1-17.55-.75-5.85-.2-12.34-.2-18.28v-3.86c-2.3,3-6,7.75-8.76,10-5.48,4.57-10.89,4.53-17.67,3.74-13.73-1.6-15.93-7.26-23.39-17.12-2.72-3.59-4.68-7.63-7.07-11.43-5.16-8.23-5.6-24.89-4.53-34.5.48-4.25-.31-9.48-.85-13.72-.45-3.45-.91-6.93-1.07-10.4-.29-5.05-1-10.07-2.12-15-1.59-6.61-1.15-14.71-4.84-20.52-3.5-5.49-5.46-12.14-9.24-17.31-1.29-1.77-2.7-3.44-3.93-5.27-6.94-10.27-4.77-12.31-5.75-23.94-.16-1.93-.2-4-.37-5.94-1.61-.58-3.46-1-4.89-1.4-2.37-.57-4.71-1.27-7-2.1-1.23-.48-2.15-1.11-3.19-1.61-1.11-.33-2.31-.17-3.7-.66-5.12-1.82-5.28-6.45-5.08-11,.17-3.87,4.43-8,8.17-8.69,1.53-.35,3.13-.13,4.5.62,1.17-.03,2.34.23,3.39.75.36.22.74.41,1.13.57,2.43.8,4.46,2,6.79,2.93,1.1.45,2.24.81,3.39,1.16.36-1.07.69-2.21.86-2.77,1-3.39,2.27-8.3,5.85-9.8l.83-.35h.9c2.62.01,5.08,1.24,6.66,3.32,1.1-1.14,2.61-1.81,4.2-1.85,2.54.17,4.91,1.34,6.59,3.25,1.03,1.44,1.81,3.04,2.32,4.74,1.93,5.18,1.25,8.86-1.53,13.43l-.49.79,1.4.62c.84-.89,1.84-1.63,2.94-2.17,3-1.6,5.24-2.77,8.78-1.22,4.08,1.79,5.36,7.27,5.68,11.8,1.3.97,2.21,2.37,2.56,3.95.68,2.76-.16,4-.72,6,1.08.71,1.89,1.77,2.3,3,.81,2.13.62,4.51-.52,6.49.22.41.46.82.68,1.24,2.53,4.73,2.17,9.72,1.55,14.9-.14,1.2-.37,2.38-.69,3.54.17.74.45,1.57.64,2.24,2.22,7.8,4.83,15.46,6.73,23.34.51,2.04,1.15,4.05,1.94,6,.36-.77.67-1.46.91-2,1.46-3.07,2.84-6.17,4.25-9.26,1-2.27,1.7-4.67,2.77-6.93,1.45-3,2.71-6.28,4-9.38s3.5-8.38,5.7-11c1.62-2.03,3.41-3.91,5.35-5.62,3.52-3,9.74-5.79,13.94-7.74s8.52-3.82,12.8-5.72,8.78-4.06,13.21-6c1.82-.8,3.29-1.13,4.69-2.57,1.31-1.48,2.93-2.64,4.75-3.41l-.1-2.44c-5.28.07-9.17.43-15-2.57-5.24-2.71-9.11-9.52-9.75-15.3-.36-3.19-.29-6.3-.4-9.5s-.59-6.25-.58-9.4c0-5.78-.22-11.56-.27-17.34-.43-.38-.81-.81-1.14-1.28Z"/>
    <path class="cls-7" d="m179.53,187.59c-2.13,1.09-5.1,12.83-5.87,15.93-1.34,5.39-3.11,12.9-3.13,19,.6,1.1,8.54,1,12,8.29,4.08,8.66,4.35,13,4.35,21.92,0,5.92-3.6,21.28-5.93,25.67-1.91,3.6-4.27,6.13-6.73,9.12-.5.84-1.43,1.33-2.41,1.26-2.52,0-1,.19-3,.78-3.79,1.07-6.47-3.59-2.14-6.64,1.79-1.27,3.45-.18,4.83.34,1.25-1.87,3.07-3.37,4.57-5.88,3.37-5.63,6.07-20.31,6.07-26.15,0-4.34-7.4-9.07-11.23-10.5-6.51-2.44-11.68-2.39-18.33-.32-1.76,3.76-5.09,16.32-5.09,21.29s0,15.1,2.61,19.28c3,.27,5.84.26,5.84,3.45,0,1.28-3.5,7.57-9.79-.69-1.87-2.46-3.44-10.65-3.44-14.26v-8.38c0-8.45,6.18-27.62,12.51-33.29,2.1-1.88,6.52-5.28,10.23-5.35.66-1.94,1.34-12.77,3.67-20.73,1-3.41,1.88-6.35,2.92-9.42.7-2.06,3.45-7.66,3.6-9-7.6,3.76-15.4,7.22-22.92,10.84s-16.57,7.1-20,13.82c-3.85,7.52-7.28,15.26-10.75,23-.91,2-1.9,3.81-2.82,5.59-1,1.93-1.65,4.1-2.6,6-1.77,3.82-3.84,7.5-6.18,11,.3,3,2.58,5.55,3.75,8,.94,1.95,2.88,6.84,3.81,7.88,1.27-.15,1.25-.53,2.5-.76,3.65-.68,11.21.18,15.11,2.57,1.61,1,2.82,2.59,3.79,3.12,0-5.82-.72-42.53.67-44.36,1.6,1.1,1.58,15.09,1.57,17.59,0,6.71,1,14.15.91,21.83-.19,14.08,1.12,31,1.07,45.76,0,9.67.86,17.83.85,28.41,0,4.41,0,9.94.29,14.33.52,7.68.59,13.75.55,21.27-.02,1.14.03,2.27.15,3.4.23,2.18-.34,2.31,2.15,2.31.79,0,1.13-.28,1.8-.28l134.19.62c1.09-7.05,1.65-8.4,1.69-15.33,0-2.13-.77-3.63-.55-6.54.49-6.52.09-15,.78-21.61.46-4.54-.23-10-.24-14.3l-.07-25.68c-3.6-1.3-4.72-.16-6.38-10.21-.4-2.43-.85-4.26-1.17-6.86-.58-4.64-1.1-4.53-1.1-9.31,0-1.39.51-6.29,1.16-7.07,2.3,3.82,4.56,27.72,6.91,29.27l7.74,1.14c6.18.62,12.41-.33,18.12-2.75,3-1.35,6.81-2.47,9.74-3.94s5.37-3.89,8.06-5.74c1.53-1.05,1.71-2,3.41-3.46,2.43-2.07,2.53-3.17,2.53-5.88,0-3.93-4.14-15.12-5.44-19.11-1-3.26-1.8-6.57-2.39-9.93-1.89-9.38-6.76-19.26-9.48-27.18-1-3-1.61-7.61-2.6-9.73-1.37-2.93-3.47-5.26-4.31-8-4.72,1.28-12.43,11.37-15.18,15.42-2.48,3.65-7.68,19.35-10.17,20.46.63-1.72.81-4.18,1.34-6,3.93-13.3,4-14.56,13-25.25,1.23-1.35,2.57-2.61,4-3.75,1-.74,4.46-2.66,4.7-2.94-4.41-2.72-15.76-7.34-21.57-9.08-7.67-2.3-15.19-6.32-22.9-8.32.2,1.55.91,2.81,1.24,4.35,1.4,6.52,1.57,15.8,1.57,22.32,0,8.18-1.89,16.76-3.42,24.17-.76,3.67-1.31,7.72-2.33,11.36-.55,1.95-.84,3.62-1.36,5.47-.46,1.61-1.7,4-1.86,5.06,3,3,5.31,5.52,5.31,11.06,0,6.49-5.9,13.1-13.46,13.1-7.41-.03-13.4-6.06-13.37-13.47.02-4.34,2.13-8.4,5.68-10.91,4.4-3,5.82-2.12,11.58-2.1.46-1.6,1-2.55,1.42-4l3.08-13.73c1-6,3.14-12.75,3.38-19.14.28-7.48.87-13.31-.11-20.86-.62-4.84-1.57-15.74-6.08-16.63-.12,2.78-3.83,12.84-5,15.68-2.74,6.85-10.36,20.27-16.58,25-1,.79-2.13,1.35-3,2.13-.89.9-1.86,1.73-2.9,2.46-6.14,4.53-16.93,6-24.29,2.16-6.32-3.3-7.91-4-12.21-8.74-8-8.75-10.84-18.4-11-30.79l.08.07Zm-23.36,47c.47-2.4,2.11-3.53,3.77-4.65,1.28-.86,3.49-2.93,5.49-2.93,4.77,0,9.49.41,12.26,5.1,1.09,1.85,3.71,8.33,3.46,10.35-.42-.12-3.66-3.16-4.78-3.94-4.8-3.33-15.37-5.86-20.2-3.92h0Z"/>
    <path class="cls-3" d="m294.77,302.85c4.36-.48,7,0,11.35-1,3-.68,6-2.36,8.94-3.49,2.76-1.06,6.4-2,8.62-3.65,1.34-1,6.47-4.72,7.95-5,.38,4.59,1.74,9.08,2.31,13.61,1.79,14.35,8.05,11.88-2.39,38.82-3,7.68-6.15,15-9.13,22.86-.71,1.85-1.34,3.63-2.25,5.51-.73,1.52-2,3.41-2.9,5.2-1,2.05-3.71,9.94-6.18,9.94l-23.68-.34c0-2.33,6.41-40.7,6.82-42.71,1.43-6.95,2.87-13.85,4-20.86.74-4.51,1.6-5.92.16-10.21-.62-1.87-3.52-7.77-3.64-8.61l.02-.07Zm-.39,19.49c1.55-9,1.48-7.72-2.29-16.78-.82-2-.83-3.66-3.81-2.91.33,4.25.83,4.77.82,10.55l.27,22.44c0,1.74.47,3.1.25,5.35-.13,1.21-.74,4.27.23,5l4.53-23.64h0Zm-46.38-46.88c-4.44,0-7.84-4.36-7.62-8.93.22-4.41,3.81-7.9,8.22-8,5.18,0,8.69,4.25,8.69,7.08v3c0,2.78-4.16,6.83-6.9,6.83l-2.39.02Zm-171.26-42.53c6.31,0,12.08.13,17.39-2.39,1.61-.76,2.59-2.25,4-2.68.62,5.82,4.69,16,6.5,21.66,3.62,11.27,4.61,10.15,8.86,19,1.54,3.21,3.42,5.54,5,9.06,3.91,8.81,3.12,6.7,5.8,15.11.49,1.54,1.39,3.23,1.88,5.08.72,2.7,1.18,8.86,3.52,9.92,0-9.1-1.28-11.48-3.58-19.43-1.54-5.32-6.3-14.46-6.84-16.45,5.57-.25,7.52-.56,12.22,1.07,3.27,1,6.02,3.25,7.64,6.26.73,1.53.69,22.91.7,26.59s.48,3.25-1.28,5.74c-2.6,3.67-5.55,9.5-7.79,12.82-1.87,2.78-4.13,5-6.23,7.54-.99,1.29-2.08,2.5-3.25,3.63-3.89,3.67-13.33,1.46-17.39-.14-6.53-2.57-12.56-13.88-15.84-19.8-3-5.39-5.43-10.36-5.4-18.16v-23c0-3.1-1.3-7.33-1.64-10.49s-.34-7.68-1-10.61c-.8-3.62-3.29-17.07-3.29-20.28l.02-.05Zm79.43,1.67c.47-2.4,2.11-3.53,3.77-4.65,1.28-.86,3.49-2.93,5.49-2.93,4.77,0,9.49.41,12.26,5.1,1.09,1.85,3.71,8.33,3.46,10.35-.42-.12-3.66-3.16-4.78-3.94-4.8-3.34-15.37-5.87-20.2-3.93h0Zm23.36-47c-2.13,1.09-5.1,12.83-5.87,15.93-1.34,5.39-3.11,12.9-3.13,19,.6,1.1,8.54,1,12,8.29,4.08,8.66,4.35,13,4.35,21.92,0,5.92-3.6,21.28-5.93,25.67-1.91,3.6-4.27,6.13-6.73,9.12-.5.84-1.43,1.33-2.41,1.26-2.52,0-1,.19-3,.78-3.79,1.07-6.47-3.59-2.14-6.64,1.79-1.27,3.45-.18,4.83.34,1.25-1.87,3.07-3.37,4.57-5.88,3.37-5.63,6.07-20.31,6.07-26.15,0-4.34-7.4-9.07-11.23-10.5-6.51-2.44-11.68-2.39-18.33-.32-1.76,3.76-5.09,16.32-5.09,21.29s0,15.1,2.61,19.28c3,.27,5.84.26,5.84,3.45,0,1.28-3.5,7.57-9.79-.69-1.87-2.46-3.44-10.65-3.44-14.26v-8.38c0-8.45,6.18-27.62,12.51-33.29,2.1-1.88,6.52-5.28,10.23-5.35.66-1.94,1.34-12.77,3.67-20.73,1-3.41,1.88-6.35,2.92-9.42.7-2.06,3.45-7.66,3.6-9-7.6,3.76-15.4,7.22-22.92,10.84s-16.57,7.1-20,13.82c-3.85,7.52-7.28,15.26-10.75,23-.91,2-1.9,3.81-2.82,5.59-1,1.93-1.65,4.1-2.6,6-1.77,3.82-3.84,7.5-6.18,11,.3,3,2.58,5.55,3.75,8,.94,1.95,2.88,6.84,3.81,7.88,1.27-.15,1.25-.53,2.5-.76,3.65-.68,11.21.18,15.11,2.57,1.61,1,2.82,2.59,3.79,3.12,0-5.82-.72-42.53.67-44.36,1.6,1.1,1.58,15.09,1.57,17.59,0,6.71,1,14.15.91,21.83-.19,14.08,1.12,31,1.07,45.76,0,9.67.86,17.83.85,28.41,0,4.41,0,9.94.29,14.33.52,7.68.59,13.75.55,21.27-.02,1.14.03,2.27.15,3.4.23,2.18-.34,2.31,2.15,2.31.79,0,1.13-.28,1.8-.28l134.19.62c1.09-7.05,1.65-8.4,1.69-15.33,0-2.13-.77-3.63-.55-6.54.49-6.52.09-15,.78-21.61.46-4.54-.23-10-.24-14.3l-.07-25.68c-3.6-1.3-4.72-.16-6.38-10.21-.4-2.43-.85-4.26-1.17-6.86-.58-4.64-1.1-4.53-1.1-9.31,0-1.39.51-6.29,1.16-7.07,2.3,3.82,4.56,27.72,6.91,29.27l7.74,1.14c6.18.61,12.41-.33,18.12-2.76,3-1.35,6.81-2.47,9.74-3.94s5.37-3.89,8.06-5.74c1.53-1.05,1.71-2,3.41-3.46,2.43-2.07,2.53-3.17,2.53-5.88,0-3.93-4.14-15.12-5.44-19.11-1-3.26-1.8-6.57-2.39-9.93-1.89-9.38-6.76-19.26-9.48-27.18-1-3-1.61-7.61-2.6-9.73-1.37-2.93-3.47-5.26-4.31-8-4.72,1.28-12.43,11.37-15.18,15.42-2.48,3.65-7.68,19.35-10.17,20.46.63-1.72.81-4.18,1.34-6,3.93-13.3,4-14.56,13-25.25,1.23-1.35,2.57-2.61,4-3.75,1-.74,4.46-2.66,4.7-2.94-4.41-2.72-15.76-7.34-21.57-9.08-7.67-2.3-15.19-6.32-22.9-8.32.2,1.55.91,2.81,1.24,4.35,1.4,6.52,1.57,15.8,1.57,22.32,0,8.18-1.89,16.76-3.42,24.17-.76,3.67-1.31,7.72-2.33,11.36-.55,1.95-.84,3.62-1.36,5.47-.46,1.61-1.7,4-1.86,5.06,3,3,5.31,5.52,5.31,11.06,0,6.49-5.9,13.1-13.46,13.1-7.41-.03-13.4-6.06-13.37-13.47.02-4.34,2.13-8.4,5.68-10.91,4.4-3,5.82-2.12,11.58-2.1.46-1.6,1-2.55,1.42-4l3.08-13.73c1-6,3.14-12.75,3.38-19.14.28-7.48.87-13.31-.11-20.86-.62-4.84-1.57-15.74-6.08-16.63-.12,2.78-3.83,12.84-5,15.68-2.74,6.85-10.36,20.27-16.58,25-1,.79-2.13,1.35-3,2.13-.89.9-1.86,1.73-2.9,2.46-6.14,4.53-16.93,6-24.29,2.16-6.32-3.3-7.91-4-12.21-8.74-8-8.75-10.84-18.4-11-30.79l.08.08Zm-97.37-20.53c.54-.57,1.19-1.03,1.9-1.37,2.52-1.49,3.08-1.37,3.11,1.84,0,1.33.26,1.89.27,3.16-1.58-.51-4.72-2.29-5.28-3.63Zm-7.42,1c-4.69,1.7-3.65,2-4.19-2.19,1.54.41,2.97,1.16,4.19,2.19Zm-19.88-3.22c.83-.81.72-.35,1.72-.91s.24-.54,1.54-.88l-.13,2.54c-1.07-.1-2.13-.35-3.13-.75h0Zm-8.84-4.3l-1.27,1.45c1.28.51,4.5,1.59,6.29,1.31s4.84-.81,5.84-2.09c-2-1.09-4.49-1.79-6.73-2.81-1.92-.87-2,.1-4.13,2.21v-.07Zm-9.2-.87c0-2.85,2.09-1.88,2.2-6.11,1.15.09,3,1.5,4.23,2.17s3.51,1.13,4.65,1.89c-3.76,1.76-5.89,2.85-11.08,2v.05Zm-1.82-3.3c.94-2,2.47-1.69.54-4.56-.48.25,0,.08-.44.5s.1.22-.62.58c-2.23-1.16-.64-2.25-4-2.19-.2.48-.42.95-.67,1.41l-.92,1.25c1,1.39.85,1.49.85,3.71.87.36,1.12.83,2.12.44s.62-.81,2-1.33c.9,1.25,0,1.05.3,1.66.58-.6.46-.7.82-1.47h.02Zm25.2,31.75c-1.37-.88-1.23-1.8-1.48-3.82s-.81-2.35-.81-4.8c0-3.64.28-7.5.29-10.79l-5-1.17c1.31,5.58,1.67,12.88,1.62,19.43,0,2.39-.13,2.91,1,4.41,1.31,1.81.11,1.75,1.76,3.64,6.73,7.71,7.33,7.28,12.65,19.63,1,2.38,2.58,4.53,3.8,7,1.42,2.88,1.41,5.67,2.48,8.29,1.28.35,9.86-.6,11.59-1,4.15-.84,6.17-2.51,8.73-4.43l-3-10.54-1.44,2.92c-1.61-.82-.35-4.27,0-5.91.53-2.2.88-4.44,1.05-6.69.12-2.87.11-4.15,0-7.19-.11-2.87-1.55-3.81-1.69-6.17-4.43,1.38-2.95,2-7.82.57-.37.62-2,3.34-1.92,4,.23,1.68,1.71,2.9,0,5.21-1.13-.58-1-1.5-1.45-2.77-1-3-3.06-1.46.23-6.22,1.86-2.68-.45-2,.49-3.86,1.6-2.12,3.3,1.12,5.9,1.32,2.06.16,4.87-1.67,5.3-3.42-1.95-1.29-3.98-2.46-6.07-3.5-3.44-1.89-3.65-5.73-10.78,3.11-.79,1-3.74,5-4.49,5.46-4.11,2.76.55-4.52.72-4.74,1.32-1.93,2.85-3.72,4.55-5.33,1.47-1.47,2.67-3.81,5.41-4.11,2.16-.23,5,2.08,6.47,3l2-3.41c-2.07-1.09-3.62-1.8-5.47-2.84s-3.15-2.47-4.86-3.29c-2.16.77-3.1,1.75-5,2.85-2.59,1.49-2.9,1-3.79,4-3.43,11.63-6.39,11.08-5.47,7.62l2.61-7.26c1.55-3.86.08-7,.05-11.34,0-7,.94-5.55,3.05-10.1,1.43-3.07.9-8.52-1.61-10-1.83,1.9-5,11-6.58,12.94-1.09,1.33-2,2.22-1.91,4.79.08,2.75-.26,23.2-1.08,24.48l-.03.03Zm-5.66-31.57c.36-1.19,2.07-3.43,2.8-5.38s.93-4.17,1.65-6.08c.8.22,1.48,1.42,2.41,2.71,2.48,3.45.38,7.93-1.78,10.71l-5.08-2v.04Zm105.57-57.56c0-4.79,10.54-2.87,14.86-3.32,3.66-.39,4.78-.43,5.08,3.4.09,1.16-.1,7.67-.64,8.22-1.25,1.38-6.32.61-8.81.88l-9.64.49c-.46-3.21-.74-6.43-.85-9.67Zm32.39-2.39c0-3.74,14.25-2.61,17.25-2.08,1.81.32,8.46.53,9.29,1.41,1.15,1.21.88,11.46-1,13.23-.83.8-3.72.36-5.08.36-3.38,0-7.08-.14-10.41.06-2.24.14-7.21.08-8.79-1.27s-1.29-9.06-1.29-11.71h.03Zm44.41,10.92c-.54-1.2-.64-2.55-.29-3.81,1.16-2.88-2.95-4.28-6.38-9.08-1.94-2.71-6.07-11.15-6.08-15,3.34.64,6.64,1.45,9.89,2.44,4.29,1.47,13,5.16,15.48,9,1.41,2.23-.61,6.84-1.27,9.34-3.45-.26-5.07-.54-7.4,1.54-1.36,1.22-3.15,5-3.95,5.49v.08Zm-74.82-26.12c1.43-.4,2.8-1,4.24-1.34l13.58-2.48c4.16-.6,21.67-1.32,26.49-.94l15,2.3c.52.87.21,3.06.49,4.43.38,1.32.87,2.61,1.45,3.86.9,2.57,2.02,5.05,3.34,7.43,3.18,5.5,6.17,5.73,6.44,9.73.71,10.53,1.43.72-1.09,17.22,2.76,1.87,2.77-.27,4.08-2.47,2.28-3.83,4.74-15.77,9.52-15.77,3,0,4.76,3.64,5.2,6.49.84,5.49-2,13.9-4.28,18.79-1.31,2.81-3.22,4.57-7.2,4.57s-3.41-3.32-6.51-3.9c-1.36,1.11-1.2,1.16-1.16,3.5l-.68,12.78c-1.06,8.86-4.76,8.81-5.22,13,2.93-.13,6.17-5.32,7.6-7.8,1.72-3,1.7-9.19,1.69-13.59l4.79.85c1.91,4.62.51,31.42,2.68,36.2,1,2.12,2.18,1.09,4.44,2.14,1.56.73,2.79,1.16,4.43,1.81-1.06,5.65-2.88,11.12-5.41,16.28-2.95,5.74-8.06,15.69-12.14,20.18-2.32,2.55-9.28,8.63-12.07,9.51-2,.65-6.23,2-8.45,2-6.21,0-11.79-2.6-16.34-5.79-3.41-2.4-6.66-7.24-9.21-11.16-2-3-3.84-11.46-4.35-15.9-.3-2.66-.25-6.8-.64-9.53-.34-2.45,2.16-5.52,3.55-5.72,0,4.27.5,16.75,3.8,17.69l.26-13c.05-6.05,1-9.79,0-16-.63-4,.47-2.29,3.16-2.29h3.89c.76,0,.72-.28,1.8-.28,1.58,0,1.36.28,2.08.28h4.5c.89,0,.77-.28,1.79-.28,2.33,0,6.87.09,8.52-1.46-1.22-1.84-8.42-1.14-11.46-1.38-3.56-.29-8.48-.35-12.05-.75-7.12-.8-18.18,1.5-23.13-2.22-4.74-3.57-4.57-14.6-4.86-21.08-.35-7.92-.41-17.06-1.42-24.68l16.1-1.28-2.57,18.19c-.28,1.93,1.61,2.27,3.36,2.27,2.72,0,13.61.08,14.9-.77-.24-1.56-2-1.35-3.79-1.53-1.5-.15-2.92-.39-4.79-.57-6.13-.58-6.34,1.45-5.3-4,.63-3.32.75-6.71,1.19-9.73,1.47-10,1.2-6.56.92-15.25,2-1.31,3.23-.62,5.28,0,.36,6.07-.17,7.76,3.23,11.14,2.71,2.69,7.56,2,11.66,2.2,4.67.18,9.35.05,14-.38,3.75-.43,2.68-.6,4.5-2.8,1.09-1.32,1.29-3.85,1.29-5.92,0-4.78.81-11.29-4.88-12.52-5.27-1.15-20.61-1.53-26.07.15-2.37.73-3.08,1.91-3.44,4.58-3.2-.51-1.65-1.22-5.73-.64-1.34-1.66-.7-1.89-3.11-2.85-1.59-.63-3.32-.79-5-.47-3.54.57-7.79.29-11.68.3-.34-2.87-1.23-8.7-1.2-11.27v-.08Zm.55-25.07c3.15-.36,3.49-1.47,8.31-1.4-.49.81-6.54,1.61-8.73,5.33-1.31,2.25-.14,1.27-.14,4.38,0,2.18-2.05,1.64-1,4.36,4.42-1.54,5.77-3.23,13.43-4.37,8.68-1.28,19-2.81,27.75-1.26,1.57.28,2.85-.08,3.2,1.27-.88,1.25-8.61.55-13.24,1.11-7.49.92-31.82,2.84-31.82,11.45.02.66.17,1.32.42,1.93,2.58-.92-.09-.9,7.28-2.84,15.72-4.14,23.42-3.62,39.49-3.62l13.74,2.07c2.19.43,4.35,1.01,6.46,1.73,2.14.65,4.45,1,6.44,1.6,12.37,4,10.21,4.66,15.93,8.33,3,1.93,3.46,6.84,3.46.67,0-1.85-4.3-6-5.5-7-2.05-1.66-14.24-7.07-17.2-7.92-1.84-.53-2.74-1.05-4.59-1.67-1.33-.49-4.33-.61-5.33-1.4,5.31-1.24,13.24,1.46,19.15,3.11,5.66,1.59,8.95,3.25,12.35,6.66,2-2.78,0-8.23,0-8.23,0-5.08,1.69-3.51.85-5.63-.93-2.32-2-1.53-1.7-6.63.23-3.69.56-3,.56-8.08-.41-3.52-1.18-6.98-2.28-10.35-2.72-7-3.51-5.34-5.29-7.24-1.96-2.29-4.33-4.18-7-5.58-1.93-.91-7.57-3-9.64-2.79,4.1,2.58,7.76,4.7,10.94,8.06-1.58-.33-5.61-3.07-7.81-3.85-2.66-.95-5.68-2.22-8.39-3.32-1.39-.59-2.83-1.04-4.31-1.35-2.68-.64-5.07-3.3-14.75-3.3-8.35,0-4.25.11-11.36,1.53-1.69.34-1.84.76-3.37,1.2-6.2,1.8-3.58.25-9.66,3.81-1.97,1.03-3.83,2.28-5.52,3.72-5.07,4.21-5.15,3.54-7.71,10.56-2.82,7.73-2,9-3.45,15l.03-.05Zm89.28,46.9c.27-1.83.89-2.2,1.37-6.68.33-3.09,2.17-1.93,3.21-4.93,2.45-7.12-2.36-8.81-1.87-11.78.42-2.54,1.32-4.12,1.26-6.88,0-1.43-.51-2.5-.17-3.65s1-1.41,1.34-2.56c.63-2.1-1.4-4.32-1.7-5.87-.38-2,.38-5.12.5-7.06.19-3-1.36-11.45-2.28-14-1.74-4.84-3.4-6.36-6.64-9.18-2.9-2.54-5.07-5.14-9-6.84-5.09-2.2-17.54-2.1-20.37-3.52-1.87-1.04-3.9-1.76-6-2.12-4.08-.92-10-1-14.43-.74-3.9.23-8.74,2.34-12.63,3.39-3.13.84-3.24.47-5.75,2.38-1.36,1-3.38,1.86-4.85,2.91s-2.81,2.48-4.41,3.69c-10.89,8.24-7.83,25.47-10.18,29.6-2,3.46.38,3.66-1.45,6-1.46,1.87-.68,3.7.52,5.47-2.18,3.32-4,6.31-1,10.66,1.8,2.56,1.58,1.39,1.8,5.18.14,2.31.3,5,.3,7.09-3.38,1.62-3,5-2.82,9.37.19,1.91.48,3.8.87,5.68.47,3.23,1.28,2.09,2.51,3.89,0,6.18.28,12.65.27,19.15,0,2.87.49,6.46.58,9.26.11,3.39,0,5.91.37,9.18.53,4.74,3.83,10.09,7.48,12,6.1,3.15,9.1,1.8,17.09,2.14l.38,9.21c-3.13,1.72-3.37,1-6.06,3.8-2,2-3.25,2.28-6,3.5-4.84,2.13-8.6,4-13.2,6-6,2.68-21.29,9.11-25.73,12.83-1.74,1.56-3.35,3.26-4.81,5.08-2.55,3.07-7.07,15.13-9.17,19.52-1,2.19-1.67,4.52-2.74,6.86-1.73,3.79-7.71,17.33-9.63,19-2-4.82-4.18-9.17-5.47-14.52-1.9-7.85-4.48-15.41-6.68-23.18-1.54-5.42-.73-2.16-.09-7.45,1.37-11.47-1.08-11.32-3-16.2,1.46-.97,2.09-2.79,1.55-4.46-.62-1.68-1.74-.6-2.69-3.6-.55-1.73,3.66-6.55-1.67-8.13,0-3.72-.71-9.45-3.23-10.55-2.12-.93-3.59.28-5.06,1.07-2.14,1.15-2.18,1.62-2.91,4l-8.8-4c.62-5.36,6.28-7.26,3.39-15-.37-1.23-.9-2.41-1.59-3.5-.86-.9-1.99-1.5-3.21-1.73-2,.06-3.12,3.79-4.53,5.25-1.5-2.62-3.07-6.65-6.54-6.72-2.73,1.14-3.76,11.38-6.28,13.8-2.28-.87-4.71-1.41-7.08-2.38s-3.95-2-6.49-2.82c-1.82-.6-1.49-1.11-3.31-1.11-2.16,0-1.54-1-3.65-.68-1.5.26-4.57,2.66-4.66,4.69-.12,2.56-.53,5.77,2.25,6.76,1.17.41,2.81.22,4,.79s1.69,1,3,1.53c4.11,1.6,10.82,2.66,14.3,4.53.4,2.4.48,6,.69,8.51,1.12,13.32-1.09,12.87,5,21.92,1.23,1.82,2.53,3.35,3.84,5.14,4,5.43,5.82,11.94,9.38,17.54,4.4,6.91,3.52,14.06,5.39,21.8,1.12,5.27,1.88,10.61,2.27,15.98.36,8,2.68,17.77,1.9,24.78-1.14,10.23-.23,25.18,3.9,31.77,2.44,3.89,4.31,7.76,6.86,11.13,6.59,8.72,8.25,14,20.49,15.46,6.49.75,10.37.62,14.46-2.78,1.84-1.53,6.72-7.48,8.33-9.62s6.15-10.3,7.13-11c.09,6.21.29,11.69.29,17.77,0,5.15-.45,12.94.17,17.74.67,5.24-.21,12.32.12,17.84.34,5.7.34,11.41,0,17.11,5.78.82,31.57,1,38.82,1,26.31,0,51.93.56,78.36.56l28.52.62c3.44-.71,5.74-.1,9.15-.05,3.18.05,18.21.44,18.63.34,2.07-.49,5.87-10.67,6.92-12.83s2.37-4.09,3.37-6.52,1.65-4.68,2.65-7.26c1.84-4.76,3.73-9.22,5.62-14,3.77-9.59,8.46-19,8.5-30.95,0-4.81-2.61-11.3-3.35-16.43-.42-3-1.07-5.26-1.6-8.19-1.17-6.41-1.3-4-2.38-7.42,2.09-3,4.61-3.58,4.21-9.23-.54-7.49-3.39-13.86-5.71-20.92-1.19-3.62-1.75-6.84-2.78-10.44-1.78-6.72-4.15-13.28-7.08-19.58-1.43-3.04-2.67-6.16-3.74-9.34-1.78-5.3-.28-6.25-2.42-10.19-5.66-10.4-4.68-7.47-14.09-12.52l-9.62-3.92c-3.14-1.06-6.58-2-9.86-3.22-6.79-2.57-12.8-4.67-19.69-6.85-2.62-.83-2.18-1.21-3.7-3-3.23-4.08-8.17-6.45-13.38-6.41l-1.65-25.6c-.13-1.58-.16-2.69-.33-4.13-.19-1.59-.64-2.39-.84-3.61.62-.92,4.18-1.79,6.65-5.94,4.45-7.5,8.17-21.83,2.09-28.43v-.05Z"/>
    <path class="cls-10" d="m188,150c1.91-3.18,8.37-1.12,8.3,1.75-.73.44-1,.24-1.9-.11-3.18-1.27-3.19-.34-5-.77-1.09-.27-.64-.45-1.43-.87h.03Zm-9-11.09c-1.44,2.67,6.79,7.24,12.74,7.24,4,0,9.27-1.52,12-3.45,2.9-2.08,4.22-4.46,6.25-7.47.68.72.72,1.05,2.1,1.07,3.15-6-6.14-8-5.55-5.35.19.89.77.8,1.47,1.09-1.59,2.81-2.95,3.68-5.05,5.68-10.28,9.81-23.17,1.26-23.93,1.19h-.03Zm57.15-14.47c1.78-1.69,3.39.15,4.06-3.11.42-2.08-.78-2.64.08-5.86.72-2.68,2.57-8.74,5.29-8.74,5,0,4.46,5.4,3.93,6.19l-2.74-3.1c-.87.63-1.46,1.58-1.62,2.65,0,1.48,2.31,2.24,1.69,7.21-1.65-.66-1.51-2.91-3.09-3.66-.69,5.1.58,4.77-1.08,7.61-1.39,2.38-5.78,3.3-6.52.81h0Zm-74.06-43.03c0,2.57.86,8.4,1.2,11.27,3.89,0,8.14.27,11.68-.3,1.68-.32,3.41-.16,5,.47,2.41,1,1.77,1.19,3.11,2.85,4.08-.58,2.53.13,5.73.64.36-2.67,1.07-3.85,3.44-4.58,5.46-1.68,20.8-1.3,26.07-.15,5.69,1.23,4.88,7.74,4.88,12.52,0,2.07-.2,4.6-1.29,5.92-1.82,2.2-.75,2.37-4.5,2.8-4.65.43-9.33.56-14,.38-4.1-.21-8.95.49-11.66-2.2-3.4-3.38-2.87-5.07-3.23-11.14-2.05-.57-3.31-1.26-5.28,0,.28,8.69.55,5.21-.92,15.25-.44,3-.56,6.41-1.19,9.73-1,5.48-.83,3.45,5.3,4,1.87.18,3.29.42,4.79.57,1.76.18,3.55,0,3.79,1.53-1.29.85-12.18.77-14.9.77-1.75,0-3.64-.34-3.36-2.27l2.57-18.19-16.1,1.28c1,7.62,1.07,16.76,1.42,24.68.29,6.48.12,17.51,4.86,21.08,5,3.72,16,1.42,23.13,2.22,3.57.4,8.49.46,12.05.75,3,.24,10.24-.46,11.46,1.38-1.65,1.55-6.19,1.46-8.52,1.46-1,0-.9.28-1.79.28h-4.5c-.72,0-.5-.28-2.08-.28-1.08,0-1,.28-1.8.28h-3.89c-2.69,0-3.79-1.74-3.16,2.29,1,6.21,0,9.95,0,16l-.26,13c-3.3-.94-3.78-13.42-3.8-17.69-1.39.2-3.89,3.27-3.55,5.72.39,2.73.34,6.87.64,9.53.51,4.44,2.4,12.91,4.35,15.9,2.55,3.92,5.8,8.76,9.21,11.16,4.55,3.19,10.13,5.79,16.34,5.79,2.22,0,6.43-1.33,8.45-2,2.79-.88,9.75-7,12.07-9.51,4.08-4.49,9.19-14.44,12.14-20.18,2.53-5.17,4.35-10.65,5.41-16.31-1.64-.65-2.87-1.08-4.43-1.81-2.26-1-3.48,0-4.44-2.14-2.17-4.78-.77-31.58-2.68-36.2l-4.79-.85c0,4.4,0,10.61-1.69,13.59-1.43,2.48-4.67,7.67-7.6,7.8.46-4.16,4.16-4.11,5.22-13l.69-12.78c0-2.34-.2-2.39,1.16-3.5,3.1.58,2.36,3.9,6.51,3.9s5.89-1.76,7.2-4.57c2.26-4.89,5.12-13.3,4.28-18.79-.44-2.85-2.17-6.49-5.2-6.49-4.78,0-7.24,11.94-9.52,15.77-1.31,2.2-1.32,4.34-4.08,2.47,2.52-16.5,1.8-6.69,1.09-17.22-.27-4-3.26-4.23-6.44-9.73-1.32-2.38-2.44-4.86-3.34-7.43-.58-1.25-1.07-2.54-1.45-3.86-.28-1.37,0-3.56-.49-4.43l-15-2.3c-4.82-.38-22.33.34-26.49.94l-13.58,2.48c-1.44.41-2.81,1.04-4.24,1.45Z"/>
    <path class="cls-7" d="m162.67,56.39c1.47-5.9.63-7.22,3.45-15,2.56-7,2.64-6.35,7.71-10.56,1.69-1.44,3.55-2.69,5.52-3.72,6.08-3.56,3.46-2,9.66-3.81,1.53-.44,1.68-.86,3.37-1.2,7.11-1.42,3-1.53,11.36-1.53,9.68,0,12.07,2.66,14.75,3.3,1.48.31,2.92.76,4.31,1.35,2.71,1.1,5.73,2.37,8.39,3.32,2.2.78,6.23,3.52,7.81,3.85-3.18-3.36-6.84-5.48-10.94-8.06,2.07-.2,7.71,1.88,9.64,2.79,2.67,1.4,5.04,3.29,7,5.58,1.78,1.9,2.57.26,5.29,7.24,1.1,3.37,1.87,6.83,2.28,10.35,0,5.05-.33,4.39-.56,8.08-.31,5.1.77,4.31,1.7,6.63.84,2.12-.85.55-.85,5.63,0,0,2,5.45,0,8.23-3.4-3.41-6.69-5.07-12.35-6.66-5.91-1.65-13.84-4.35-19.15-3.11,1,.79,4,.94,5.35,1.39,1.85.62,2.75,1.14,4.59,1.67,3,.85,15.15,6.26,17.2,7.92,1.2,1,5.5,5.16,5.5,7,0,6.17-.44,1.26-3.46-.67-5.72-3.67-3.56-4.3-15.93-8.33-2-.65-4.3-1-6.44-1.6-2.11-.72-4.27-1.3-6.46-1.73l-13.74-2.07c-16.07,0-23.77-.52-39.49,3.62-7.37,1.94-4.7,1.92-7.28,2.84-.25-.61-.4-1.27-.42-1.93,0-8.61,24.33-10.53,31.82-11.45,4.63-.56,12.36.14,13.24-1.11-.35-1.35-1.63-1-3.2-1.27-8.75-1.55-19.07,0-27.75,1.26-7.66,1.14-9,2.83-13.43,4.37-1-2.72,1-2.18,1-4.36,0-3.11-1.17-2.13.14-4.38,2.19-3.72,8.24-4.52,8.73-5.33-4.9-.06-5.24,1.07-8.39,1.41l.03.05Z"/>
    <path class="cls-10" d="m76.74,232.93c0,3.21,2.49,16.66,3.29,20.28.65,2.93.64,7.32,1,10.61s1.64,7.39,1.64,10.49v23c0,7.8,2.41,12.77,5.4,18.16,3.28,5.92,9.31,17.23,15.84,19.8,4.06,1.6,13.5,3.81,17.39.14,1.17-1.13,2.26-2.34,3.25-3.63,2.1-2.58,4.36-4.76,6.23-7.54,2.24-3.32,5.19-9.15,7.79-12.82,1.76-2.49,1.29-2.08,1.28-5.74s0-25.06-.7-26.59c-1.62-3.01-4.37-5.26-7.64-6.26-4.7-1.63-6.65-1.32-12.22-1.07.54,2,5.3,11.13,6.84,16.45,2.3,7.95,3.58,10.33,3.58,19.43-2.34-1.06-2.8-7.22-3.52-9.92-.49-1.85-1.39-3.54-1.88-5.08-2.68-8.41-1.89-6.3-5.8-15.11-1.56-3.52-3.44-5.85-5-9.06-4.25-8.84-5.24-7.72-8.86-19-1.81-5.62-5.88-15.84-6.5-21.66-1.43.43-2.41,1.92-4,2.68-5.33,2.57-11.1,2.44-17.41,2.44Z"/>
    <path class="cls-10" d="m294.77,302.85c.12.84,3,6.74,3.64,8.61,1.44,4.29.58,5.7-.16,10.21-1.15,7-2.59,13.91-4,20.86-.41,2-6.82,40.38-6.82,42.71l23.68.34c2.47,0,5.15-7.89,6.18-9.94.9-1.79,2.17-3.68,2.9-5.2.91-1.88,1.54-3.66,2.25-5.51,3-7.84,6.15-15.18,9.13-22.86,10.44-26.94,4.18-24.47,2.39-38.82-.57-4.53-1.93-9-2.31-13.61-1.48.32-6.61,4.06-7.95,5-2.22,1.64-5.86,2.59-8.62,3.65-3,1.13-5.91,2.81-8.94,3.49-4.42,1.04-7.01.59-11.37,1.07Z"/>
    <path class="cls-1" d="m60.15,188.13c-1.37-.88-1.23-1.8-1.48-3.82s-.81-2.35-.81-4.8c0-3.64.28-7.5.29-10.79l-5-1.17c1.31,5.58,1.67,12.88,1.62,19.43,0,2.39-.13,2.91,1,4.41,1.31,1.81.11,1.75,1.76,3.64,6.73,7.71,7.33,7.28,12.65,19.63,1,2.38,2.58,4.53,3.8,7,1.42,2.88,1.41,5.67,2.48,8.29,1.28.35,9.86-.6,11.59-1,4.15-.84,6.17-2.51,8.73-4.43l-3-10.54-1.44,2.92c-1.61-.82-.35-4.27,0-5.91.53-2.2.88-4.44,1.05-6.69.12-2.87.11-4.15,0-7.19-.11-2.87-1.55-3.81-1.69-6.17-4.43,1.38-2.95,2-7.82.57-.37.62-2,3.34-1.92,4,.23,1.68,1.71,2.9,0,5.21-1.13-.58-1-1.5-1.45-2.77-1-3-3.06-1.46.23-6.22,1.86-2.68-.45-2,.49-3.86,1.6-2.12,3.3,1.12,5.9,1.32,2.06.16,4.87-1.67,5.3-3.42-1.95-1.29-3.98-2.46-6.07-3.5-3.44-1.89-3.65-5.73-10.78,3.11-.79,1-3.74,5-4.49,5.46-4.11,2.76.55-4.52.72-4.74,1.32-1.93,2.85-3.72,4.55-5.33,1.47-1.47,2.67-3.81,5.41-4.11,2.16-.23,5,2.08,6.47,3l2-3.41c-2.07-1.09-3.62-1.8-5.47-2.84s-3.15-2.47-4.86-3.29c-2.16.77-3.1,1.75-5,2.85-2.59,1.49-2.9,1-3.79,4-3.43,11.63-6.39,11.08-5.47,7.62l2.61-7.26c1.55-3.86.08-7,.05-11.34,0-7,.94-5.55,3.05-10.1,1.43-3.07.9-8.52-1.61-10-1.83,1.9-5,11-6.58,12.94-1.09,1.33-2,2.22-1.91,4.79.08,2.75-.26,23.2-1.08,24.48l-.03.03Zm22-21.07c.54-.57,1.19-1.03,1.9-1.37,2.52-1.49,3.08-1.37,3.11,1.84,0,1.33.26,1.89.27,3.16-1.58-.51-4.72-2.29-5.28-3.63Zm-27.67-10.5c.36-1.19,2.07-3.43,2.8-5.38s.93-4.17,1.65-6.08c.8.22,1.48,1.42,2.41,2.71,2.48,3.45.38,7.93-1.78,10.71l-5.08-1.96Z"/>
    <path class="cls-9" d="m192.5,96.65c0,2.65-.16,10.47,1.29,11.71s6.55,1.41,8.79,1.27c3.33-.2,7-.06,10.41-.06,1.36,0,4.25.44,5.08-.36,1.85-1.77,2.12-12,1-13.23-.83-.88-7.48-1.09-9.29-1.41-3-.53-17.25-1.66-17.25,2.08h-.03Zm-32.39,2.35c.11,3.24.39,6.46.85,9.67l9.64-.49c2.49-.27,7.56.5,8.81-.88.54-.55.73-7.06.64-8.22-.3-3.83-1.42-3.79-5.08-3.4-4.32.49-14.86-1.43-14.86,3.32Z"/>
    <path class="cls-6" d="m196.07,109.28c.74.15,1.49.25,2.25.31l8.85-15.33c-.71-.07-1.49-.13-2.33-.17l-8.77,15.19h0Zm4.61.4l8.76-15.16h.31c.84.15,2.72.27,4.58.45l-8.33,14.56c-1.15,0-2.28,0-3.38.1-.55.03-1.21.05-1.94.05Z"/>
    <path class="cls-6" d="m171.11,95.76l-7.4,12.81-2.49.13,7.5-13,2.39.05h0Zm7.58,0c-.77-.38-1.95-.27-3.72-.08-.43,0-.92.06-1.46.07l-7.3,12.65,4.39-.22c.29,0,.62-.02,1-.06l7.09-12.36Z"/>
    <path class="cls-2" d="m236.91,107.57c.8-.45,2.59-4.27,3.95-5.49,2.33-2.08,3.95-1.8,7.4-1.54.66-2.5,2.68-7.11,1.27-9.34-2.46-3.88-11.19-7.57-15.48-9-3.25-.99-6.55-1.8-9.89-2.44,0,3.81,4.14,12.25,6.08,15,3.43,4.8,7.54,6.2,6.38,9.08-.33,1.24-.23,2.56.29,3.73Z"/>
    <path class="cls-3" d="m208,132.07c-1.59,2.81-2.95,3.68-5.05,5.68-10.28,9.81-23.17,1.26-23.93,1.19-1.44,2.67,6.79,7.24,12.74,7.24,4,0,9.27-1.52,12-3.45,2.9-2.08,4.22-4.46,6.25-7.47.68.72.72,1.05,2.1,1.07,3.15-6-6.14-8-5.55-5.35.15.89.73.8,1.44,1.09Z"/>
    <path class="cls-9" d="m243.47,266.24c0-5.15,11.37-7.14,11,1.51-.14,3.2-2.26,5.16-5.6,5.12-2.47,0-5.41-2.41-5.41-4.84v-1.79h.01Zm2.82.9c0,4.33,5.63,3.45,5.63.59,0-5.28-5.63-3.87-5.63-.59Zm1.69,8.32h2.39c2.74,0,6.9-4,6.9-6.83v-3c0-2.83-3.51-7.08-8.69-7.08-4.41.1-8,3.59-8.22,8-.22,4.55,3.18,8.91,7.64,8.91h-.02Z"/>
    <path class="cls-3" d="m236.16,124.47c.74,2.49,5.13,1.57,6.52-.81,1.66-2.84.39-2.51,1.08-7.61,1.58.75,1.44,3,3.09,3.66.62-5-1.69-5.73-1.69-7.21.16-1.07.75-2.02,1.62-2.65l2.74,3.1c.53-.79,1.1-6.19-3.93-6.19-2.72,0-4.57,6.06-5.29,8.74-.86,3.22.34,3.78-.08,5.86-.67,3.26-2.28,1.42-4.06,3.11Z"/>
    <path class="cls-3" d="m246.29,267.14c0-3.28,5.63-4.69,5.63.59,0,2.86-5.63,3.74-5.63-.59Zm-2.82-.9v1.76c0,2.43,2.94,4.81,5.41,4.84,3.34,0,5.46-1.92,5.6-5.12.36-8.62-11.01-6.63-11.01-1.48h0Z"/>
    <path class="cls-4" d="m36.82,159.7c5.19.8,7.32-.29,11.08-2-1.14-.76-3.23-1.14-4.65-1.89s-3.08-2.08-4.23-2.17c-.11,4.23-2.23,3.26-2.2,6.11v-.05Zm37.92,8.39c-1.22-1.03-2.65-1.78-4.19-2.19.54,4.24-.5,3.89,4.19,2.19Zm-19.88-3.22c1,.4,2.06.65,3.13.75l.13-2.54c-1.3.34-.48.29-1.54.88s-.89.1-1.72.91h0Zm-10.11-2.87l1.27-1.38c2.17-2.11,2.21-3.08,4.13-2.21,2.24,1,4.77,1.72,6.73,2.81-1,1.28-3.91,1.78-5.84,2.09s-5.04-.85-6.29-1.31Z"/>
    <path class="cls-8" d="m28.86,153.37c1,1.39.85,1.49.85,3.71.87.36,1.12.83,2.12.44s.62-.81,2-1.33c.9,1.25,0,1.05.3,1.66.58-.6.46-.7.82-1.47.94-2,2.47-1.69.54-4.56-.48.25,0,.08-.44.5s.1.22-.62.58c-2.23-1.16-.64-2.25-4-2.19-.2.48-.42.95-.67,1.41l-.9,1.25Z"/>
    <path class="cls-3" d="m188,150c.79.42.34.6,1.43.87,1.78.43,1.79-.5,5,.77.89.35,1.17.55,1.9.11.07-2.84-6.39-4.9-8.33-1.75Z"/>
    <path class="cls-6" d="m29.2,133.82c-.25-2.44-.35-5.49-.35-7.67s.1-3.51-.36-4.53c-.61-1.08-1.59-1.91-2.75-2.34-1.41-.49-2.71-1.27-3.81-2.28-1.07-1.35-1.54-3.07-1.32-4.78.35-1.93,1.17-3.75,2.39-5.29,1.22-1.78,2.74-3.62,3.2-5.29.37-1.68-.15-3.43-1.37-4.64-1.17-1.43-2.9-2.75-4.12-4.48-1.15-1.69-1.9-3.62-2.19-5.64-.25-1.78,0-3.2-1.32-4.22s-4-1.63-6.46-1.58-4.57.77-6.66-.56c-2.37-1.69-3.87-4.35-4.08-7.26.06-2.59,2.19-4.42,4.48-5.29s4.73-.76,7.53-.76,5.94-.1,7.27-1.32.81-3.56.66-5.7c-.2-1.75.01-3.53.62-5.19.56-1.17,1.47-1.58,3.15-1.78,2.28-.08,4.54-.54,6.66-1.38,2.54-1.17,5.19-3.5,4.78-5.74s-3.86-4.38-6.81-6-5.34-2.79-6.26-4.72-.15-4.68.77-6.92,2-4,2.64-5.49c.51-1.31.75-2.71.71-4.12,0-1.27-.1-2.49-.1-6.25s.1-10.07.31-11.95.5.66.66,3.41c.16,2.75.15,5.69.15,7.62-.11,1.21,0,2.43.3,3.61.31.77.92,1.38,1.23,2.09.27.77.34,1.59.2,2.39-.13.94-.32,1.88-.56,2.8-.33,1.09-.52,2.21-.56,3.35.13,1.18.18,2.37.17,3.56-.15,1-.76,1.73-.51,2.34s1.38,1.12,2.6,1.52,2.54.72,4.42,1.33,4.32,1.52,5.54,2.69,1.22,2.6,2.24,4c1.5,1.67,3.39,2.96,5.49,3.76,2.44,1.07,5.29,1.88,6.61,3.31,1.2,1.23,1.17,3.2-.06,4.4-.1.1-.22.2-.34.28-1.53,1.22-4.38,1.62-6.56,1.67s-3.72-.25-4.73.36-1.53,2.13-1.83,3.35-.41,2.14-2.29,2.5-5.54.15-8.09.15-4,.2-4.52,1.07-.26,2.39.4,3.81,1.68,2.75,2.19,3.87.51,2-.46,2.64c-1.52.66-3.13,1.07-4.78,1.22-1.88.3-3.71.61-3.76,1.68s1.68,2.9,3.15,3.86,2.7,1.07,4.38,1.83,3.81,2.19,4.52,3.46,0,2.39-.46,3.71c-.57,1.34-.54,2.85.06,4.17.71,1.32,2.33,2.44,3.45,4.22s1.73,4.22,1,6.11-2.9,3.2-4.83,4.42-3.66,2.34-4.32,3.36c-.53.88-.39,2.02.35,2.74.71.89,1.57,1.65,2.54,2.24,1.26.62,2.38,1.49,3.31,2.54.71,1.21.91,2.65.56,4-.43,1.4-.98,2.76-1.63,4.07-.73,1.76-1.18,3.63-1.32,5.54-.2,2.34-.1,5.29-.25,5.85s-.56-1.27-.82-3.72h-.05Zm-4.82-101.63c-.1,1.16.24,2.31.94,3.24,1.19,1.26,2.61,2.28,4.19,3,1.67.85,3.35,1.57,4.64,2.3,1.17.57,2.16,1.45,2.85,2.56.63,1.16.98,2.45,1,3.77.02,1.01-.33,1.99-1,2.74-.67.75-1.42,1.42-2.24,2-.66.48-1,.7-.72.65.73-.17,1.43-.45,2.07-.84.77-.48,1.3-1.14,1.84-1.48.48-.28,1.03-.4,1.58-.36.46,0,.84.08,1.44.16.63.11,1.26.11,1.89,0,.27-.05.45-.3.4-.57,0-.06-.03-.11-.06-.16-.12-.22-.4-.28-.9-.38-.55-.09-1.1-.21-1.64-.37-.42-.16-.54-.34-.48-.47s.31-.19.39-.36,0-.45-.31-.78c-.43-.37-.8-.8-1.11-1.27-.31-.58-.43-1.36-.78-2.15-.39-.92-1.03-1.72-1.84-2.31-1.11-.73-2.3-1.35-3.53-1.84-1.3-.6-2.57-1.19-3.77-1.86-1.07-.59-2.08-1.29-3-2.1-.67-.57-1.11-1.36-1.25-2.23-.17-.92-.17-2.13-.25-2.37s-.23.52-.27,1.48h-.08Zm-5.21,49.15c.06.23.49.82.77,1.35.26.53.43,1.1.5,1.68.1.65.17,1.47.29,2.27.11.74.29,1.46.56,2.16.23.53.54,1.02.92,1.46.35.43.72.86,1.08,1.24.35.38.71.74,1.1,1.08.48.38.93.8,1.34,1.26.52.61.96,1.28,1.32,2,.32.65.56,1.34.69,2.06.08.56.08,1.14,0,1.7,0,.57-.14,1.17-.07,1.08.19-.52.34-1.06.43-1.61.11-.59.14-1.19.09-1.78-.06-.44-.16-.87-.3-1.29-.15-.54-.38-1.06-.66-1.55-.35-.51-.76-.96-1.23-1.35-.54-.5-1.22-1.16-1.62-1.59-.28-.25-.49-.56-.63-.91-.11-.32-.16-.66-.16-1,.06-.29.06-.6,0-.89-.1-.21-.41-.32-.75-.47-.37-.14-.69-.37-.93-.68-.2-.4-.31-.84-.32-1.28-.04-.53-.14-1.05-.27-1.56-.18-.61-.42-1.21-.71-1.78-.24-.49-.54-.95-.9-1.36-.3-.31-.61-.45-.54-.23h0Zm-.64-12.91c-.72.5-1.53.84-2.39,1-1.26.2-2.53.29-3.8.27h-2.87c-.7,0-1.4.12-2.06.35-.37.2-.71.45-1,.76-.4.25-.82.48-1.25.67-.52.29-1.14.71-1.2,1.15s.44.89,1,1.18,1.1.41,1.13.64-.48.58-.85,1c-.35.32-.55.78-.56,1.25.03.43.34.78.75.89.58.08,1.16.08,1.74,0,.71-.05,1.43-.01,2.13.1.46.17.93.3,1.41.4.55,0,1.36-.09,2.12-.08.69,0,1.37.15,2,.41.52.23.87.51.89.41-.15-.35-.4-.64-.72-.83-.5-.29-1.06-.44-1.63-.46-.59,0-1.18,0-1.58-.13-.31-.02-.59-.17-.79-.41-.12-.18-.15-.39-.54-.54-.55-.16-1.11-.25-1.68-.26-.56,0-.94,0-1-.08s.09-.44.53-.63,1.16-.22,1.45-.37.17-.38-.14-.61c-.4-.25-.81-.48-1.23-.68-.39-.22-.66-.43-.66-.7s.27-.58.28-.84-.25-.48-.14-.7c.28-.33.7-.52,1.13-.49.59,0,1.3.22,1.86.23.46-.03.9-.14,1.32-.33.4-.13.83-.18,1.25-.14.74.06,1.49,0,2.22-.16.85-.29,1.67-.69,2.43-1.18.67-.31,1.28-.72,1.82-1.22.45-.51.79-1.11,1-1.75.18-.54.18-.9.07-.79-.21.43-.45.85-.72,1.24-.5.56-1.08,1.04-1.72,1.43Z"/>
  </g>
</svg>