<?xml version="1.0" encoding="UTF-8"?>
<svg id="Layer_2" data-name="Layer 2" xmlns="http://www.w3.org/2000/svg" viewBox="0 0 395.48 124.88">
  <defs>
    <style>
      .cls-1 {
        fill: #aadee9;
      }

      .cls-1, .cls-2, .cls-3, .cls-4, .cls-5, .cls-6, .cls-7, .cls-8, .cls-9, .cls-10, .cls-11 {
        fill-rule: evenodd;
        stroke-width: 0px;
      }

      .cls-2 {
        fill: #663614;
      }

      .cls-4 {
        fill: #ca9833;
      }

      .cls-5 {
        fill: #9857a3;
      }

      .cls-6 {
        fill: #010101;
      }

      .cls-7 {
        fill: #fff;
      }

      .cls-8 {
        fill: #5dbd77;
      }

      .cls-9 {
        fill: #f2673a;
      }

      .cls-10 {
        fill: #b3b3b3;
      }

      .cls-11 {
        fill: #fdcc99;
      }
    </style>
  </defs>
  <g id="Layer_1-2" data-name="Layer 1">
    <g>
      <path class="cls-6" d="m44.88,32.88l-.14-.25c-.11-.27-.19-.55-.22-.84-.12-.59-.21-1.18-.26-1.78-.05-1.28-.1-2.55.8-3.4-.01-.45-.04-.9-.07-1.35,0-.15,0-.33-.03-.5-.09-.12-.19-.24-.28-.37-.99-1.41-.83-2.57-.13-3.84-.34-.73-.24-1.59.24-2.23-.08-.58.05-1.16.37-1.65.1-.39.16-.78.17-1.18.07-.8.13-1.6.26-2.4.34-2.11,1.11-4.06,2.86-5.4.45-.34.84-.76,1.3-1.09s.98-.52,1.38-.82c.87-.66,1.11-.63,2.09-.9,1.3-.35,2.56-.94,3.92-1.02,1.51-.12,3.04-.03,4.53.24.69.14,1.36.38,1.99.7.5.2,2.22.29,2.83.37.96.11,2.16.25,3.04.63,1.29.56,1.93,1.31,2.94,2.19,1.18,1.03,1.73,1.65,2.28,3.18.36,1,.8,3.52.73,4.56-.03.42-.23,1.38-.17,1.69.06.18.21.42.29.61.27.53.33,1.14.18,1.72-.08.26-.21.51-.37.73.02.21.08.46.08.7.02.87-.22,1.35-.36,2.11.13.29.39.65.52,1.01.31.88.29,1.85-.05,2.72-.15.49-.46.91-.87,1.21-.06.5-.15.99-.29,1.48,1.65,2.55.52,6.79-.87,9.15-.34.57-.79,1.06-1.33,1.45-.08.06-.17.12-.26.17.03.12.05.24.07.37.05.42.07.83.1,1.26l.41,6.39c1.44.27,2.74,1.04,3.66,2.18.12.14.22.29.33.43.06.02.12.04.18.06,1.95.62,3.87,1.29,5.78,2.01.93.35,1.89.6,2.82.92h.03l2.88,1.16.06.03c.77.42,1.92.83,2.59,1.32.87.64,1.49,1.88,2,2.81.69,1.27.38,1.95.79,3.15.29.88.64,1.74,1.03,2.57.87,1.89,1.58,3.86,2.13,5.87.29.99.47,2.01.79,2.99.71,2.15,1.55,4.06,1.72,6.37.07,1-.08,1.85-.72,2.64-.09.11-.19.22-.29.33.23.56.39,1.14.46,1.74.15.81.36,1.6.47,2.42.24,1.65.99,3.25.98,4.93,0,3.57-1.29,6.21-2.55,9.43-.53,1.36-1.1,2.7-1.63,4.06-.27.71-.49,1.43-.78,2.13s-.68,1.29-1.01,1.96c-.58,1.21-1.41,4.06-2.83,4.39-.4.05-.81.06-1.21.03l-1.89-.04c-.87-.02-1.74-.04-2.61-.06-.79,0-1.61-.17-2.39,0l-.14.03-8.39-.18c-7.58,0-15.16-.16-22.74-.16-1.85,0-3.7-.02-5.55-.05-1.16-.02-2.32-.04-3.48-.08-.81-.01-1.61-.07-2.41-.16l-1.13-.16.07-1.13c.1-1.61.1-3.22,0-4.82-.1-1.67.18-3.48-.03-5.09-.22-1.7-.06-3.58-.06-5.31v-1.12c-.67.87-1.74,2.25-2.54,2.9-1.59,1.33-3.16,1.31-5.13,1.09-3.98-.46-4.62-2.11-6.79-4.97-.79-1.04-1.36-2.21-2.05-3.32-1.5-2.39-1.63-7.22-1.31-10.01.14-1.23-.09-2.75-.25-3.98-.13-1-.26-2.01-.31-3.02-.08-1.47-.29-2.92-.62-4.35-.46-1.92-.33-4.27-1.4-5.96-1.02-1.59-1.58-3.52-2.68-5.02-.37-.51-.78-1-1.14-1.53-2.01-2.98-1.38-3.57-1.67-6.95-.05-.56-.06-1.16-.11-1.72-.47-.17-1-.29-1.42-.41-.69-.17-1.37-.37-2.03-.61-.36-.14-.62-.32-.93-.47-.32-.1-.67-.05-1.07-.19-1.49-.53-1.53-1.87-1.47-3.19.05-1.12,1.29-2.32,2.37-2.52.44-.1.91-.04,1.31.18.34,0,.68.07.98.22.1.06.21.12.33.17.71.23,1.29.58,1.97.85.32.13.65.24.98.34.1-.31.2-.64.25-.8.29-.98.66-2.41,1.7-2.84l.24-.1h.26c.76,0,1.47.36,1.93.96.32-.33.76-.52,1.22-.54.74.05,1.42.39,1.91.94.3.42.53.88.67,1.38.56,1.5.36,2.57-.44,3.9l-.14.23.41.18c.24-.26.53-.47.85-.63.87-.46,1.52-.8,2.55-.35,1.18.52,1.56,2.11,1.65,3.42.38.28.64.69.74,1.15.2.8-.05,1.16-.21,1.74.31.21.55.51.67.87.23.62.18,1.31-.15,1.88.06.12.13.24.2.36.73,1.37.63,2.82.45,4.32-.04.35-.11.69-.2,1.03.05.21.13.46.19.65.64,2.26,1.4,4.49,1.95,6.77.15.59.34,1.17.56,1.74.1-.22.19-.42.26-.58.42-.89.82-1.79,1.23-2.69.29-.66.49-1.36.8-2.01.42-.87.79-1.82,1.16-2.72s1.02-2.43,1.65-3.19c.47-.59.99-1.13,1.55-1.63,1.02-.87,2.83-1.68,4.05-2.25s2.47-1.11,3.72-1.66,2.55-1.18,3.83-1.74c.53-.23.95-.33,1.36-.75.38-.43.85-.77,1.38-.99l-.03-.71c-1.53.02-2.66.12-4.35-.75-1.52-.79-2.64-2.76-2.83-4.44-.1-.93-.08-1.83-.12-2.76s-.17-1.81-.17-2.73c0-1.68-.06-3.36-.08-5.03-.12-.11-.24-.24-.33-.37Z"/>
      <path class="cls-8" d="m52.11,54.44c-.62.32-1.48,3.72-1.7,4.62-.39,1.56-.9,3.74-.91,5.51.17.32,2.48.29,3.48,2.41,1.18,2.51,1.26,3.77,1.26,6.36,0,1.72-1.04,6.18-1.72,7.45-.55,1.04-1.24,1.78-1.95,2.65-.14.24-.42.39-.7.37-.73,0-.29.06-.87.23-1.1.31-1.88-1.04-.62-1.93.52-.37,1-.05,1.4.1.36-.54.89-.98,1.33-1.71.98-1.63,1.76-5.89,1.76-7.59,0-1.26-2.15-2.63-3.26-3.05-1.89-.71-3.39-.69-5.32-.09-.51,1.09-1.48,4.74-1.48,6.18s0,4.38.76,5.6c.87.08,1.69.08,1.69,1,0,.37-1.02,2.2-2.84-.2-.54-.71-1-3.09-1-4.14v-2.43c0-2.45,1.79-8.02,3.63-9.66.61-.55,1.89-1.53,2.97-1.55.19-.56.39-3.71,1.07-6.02.29-.99.55-1.84.85-2.73.2-.6,1-2.22,1.04-2.61-2.21,1.09-4.47,2.1-6.65,3.15s-4.81,2.06-5.8,4.01c-1.12,2.18-2.11,4.43-3.12,6.68-.26.58-.55,1.11-.82,1.62-.29.56-.48,1.19-.75,1.74-.52,1.11-1.11,2.18-1.79,3.19.09.87.75,1.61,1.09,2.32.27.57.84,1.99,1.11,2.29.37-.04.36-.15.73-.22,1.06-.2,3.25.05,4.39.75.47.29.82.75,1.1.91,0-1.69-.21-12.34.19-12.87.46.32.46,4.38.46,5.11,0,1.95.29,4.11.26,6.34-.06,4.09.33,9,.31,13.28,0,2.81.25,5.17.25,8.25,0,1.28,0,2.88.08,4.16.15,2.23.17,3.99.16,6.17,0,.33,0,.66.04.99.07.63-.1.67.62.67.23,0,.33-.08.52-.08l38.95.18c.32-2.05.48-2.44.49-4.45,0-.62-.22-1.05-.16-1.9.14-1.89.03-4.35.23-6.27.13-1.32-.07-2.9-.07-4.15l-.02-7.45c-1.04-.38-1.37-.05-1.85-2.96-.12-.71-.25-1.24-.34-1.99-.17-1.35-.32-1.31-.32-2.7,0-.4.15-1.83.34-2.05.67,1.11,1.32,8.05,2.01,8.5l2.25.33c1.79.18,3.6-.1,5.26-.8.87-.39,1.98-.72,2.83-1.14s1.56-1.13,2.34-1.67c.44-.3.5-.58.99-1,.71-.6.73-.92.73-1.71,0-1.14-1.2-4.39-1.58-5.55-.29-.95-.52-1.91-.69-2.88-.55-2.72-1.96-5.59-2.75-7.89-.29-.87-.47-2.21-.75-2.82-.4-.85-1.01-1.53-1.25-2.32-1.37.37-3.61,3.3-4.41,4.48-.72,1.06-2.23,5.62-2.95,5.94.18-.5.24-1.21.39-1.74,1.14-3.86,1.16-4.23,3.77-7.33.36-.39.75-.76,1.16-1.09.29-.21,1.29-.77,1.36-.85-1.28-.79-4.57-2.13-6.26-2.64-2.23-.67-4.41-1.83-6.65-2.41.06.45.26.82.36,1.26.41,1.89.46,4.59.46,6.48,0,2.37-.55,4.86-.99,7.02-.22,1.07-.38,2.24-.68,3.3-.16.57-.24,1.05-.39,1.59-.13.47-.49,1.16-.54,1.47.87.87,1.54,1.6,1.54,3.21,0,1.88-1.71,3.8-3.91,3.8-2.15,0-3.89-1.76-3.88-3.91,0-1.26.62-2.44,1.65-3.17,1.28-.87,1.69-.62,3.36-.61.13-.46.29-.74.41-1.16l.89-3.98c.29-1.74.91-3.7.98-5.56.08-2.17.25-3.86-.03-6.05-.18-1.4-.46-4.57-1.76-4.83-.03.81-1.11,3.73-1.45,4.55-.8,1.99-3.01,5.88-4.81,7.26-.29.23-.62.39-.87.62-.26.26-.54.5-.84.71-1.78,1.31-4.91,1.74-7.05.63-1.83-.96-2.3-1.16-3.54-2.54-2.32-2.54-3.15-5.34-3.19-8.94l.02.02Zm-6.78,13.64c.14-.7.61-1.02,1.09-1.35.37-.25,1.01-.85,1.59-.85,1.38,0,2.75.12,3.56,1.48.32.54,1.08,2.42,1,3-.12-.03-1.06-.92-1.39-1.14-1.39-.97-4.46-1.7-5.86-1.14h0Z"/>
      <path class="cls-3" d="m85.55,87.9c1.27-.14,2.03,0,3.29-.29.87-.2,1.74-.68,2.59-1.01.8-.31,1.86-.58,2.5-1.06.39-.29,1.88-1.37,2.31-1.45.11,1.33.51,2.64.67,3.95.52,4.16,2.34,3.45-.69,11.27-.87,2.23-1.78,4.35-2.65,6.63-.21.54-.39,1.05-.65,1.6-.21.44-.58.99-.84,1.51-.29.59-1.08,2.88-1.79,2.88l-6.87-.1c0-.68,1.86-11.81,1.98-12.4.42-2.02.83-4.02,1.16-6.05.21-1.31.46-1.72.05-2.96-.18-.54-1.02-2.26-1.06-2.5v-.02Zm-.11,5.66c.45-2.61.43-2.24-.66-4.87-.24-.58-.24-1.06-1.11-.84.1,1.23.24,1.38.24,3.06l.08,6.51c0,.51.14.9.07,1.55-.04.35-.21,1.24.07,1.45l1.31-6.86h0Zm-13.46-13.61c-1.29,0-2.28-1.27-2.21-2.59.06-1.28,1.1-2.29,2.39-2.32,1.5,0,2.52,1.23,2.52,2.05v.87c0,.81-1.21,1.98-2,1.98h-.69Zm-49.71-12.34c1.83,0,3.51.04,5.05-.69.47-.22.75-.65,1.16-.78.18,1.69,1.36,4.64,1.89,6.29,1.05,3.27,1.34,2.95,2.57,5.51.45.93.99,1.61,1.45,2.63,1.13,2.56.91,1.94,1.68,4.39.14.45.4.94.55,1.47.21.78.34,2.57,1.02,2.88,0-2.64-.37-3.33-1.04-5.64-.45-1.54-1.83-4.2-1.99-4.77,1.62-.07,2.18-.16,3.55.31.95.29,1.75.94,2.22,1.82.21.44.2,6.65.2,7.72s.14.94-.37,1.67c-.75,1.07-1.61,2.76-2.26,3.72-.54.81-1.2,1.45-1.81,2.19-.29.37-.6.73-.94,1.05-1.13,1.07-3.87.42-5.05-.04-1.9-.75-3.65-4.03-4.6-5.75-.87-1.56-1.58-3.01-1.57-5.27v-6.68c0-.9-.38-2.13-.48-3.04s-.1-2.23-.29-3.08c-.23-1.05-.95-4.95-.95-5.89h0Zm23.05.48c.14-.7.61-1.02,1.09-1.35.37-.25,1.01-.85,1.59-.85,1.38,0,2.75.12,3.56,1.48.32.54,1.08,2.42,1,3-.12-.03-1.06-.92-1.39-1.14-1.39-.97-4.46-1.7-5.86-1.14h0Zm6.78-13.64c-.62.32-1.48,3.72-1.7,4.62-.39,1.56-.9,3.74-.91,5.51.17.32,2.48.29,3.48,2.41,1.18,2.51,1.26,3.77,1.26,6.36,0,1.72-1.04,6.18-1.72,7.45-.55,1.04-1.24,1.78-1.95,2.65-.14.24-.42.39-.7.37-.73,0-.29.06-.87.23-1.1.31-1.88-1.04-.62-1.93.52-.37,1-.05,1.4.1.36-.54.89-.98,1.33-1.71.98-1.63,1.76-5.89,1.76-7.59,0-1.26-2.15-2.63-3.26-3.05-1.89-.71-3.39-.69-5.32-.09-.51,1.09-1.48,4.74-1.48,6.18s0,4.38.76,5.6c.87.08,1.69.08,1.69,1,0,.37-1.02,2.2-2.84-.2-.54-.71-1-3.09-1-4.14v-2.43c0-2.45,1.79-8.02,3.63-9.66.61-.55,1.89-1.53,2.97-1.55.19-.56.39-3.71,1.07-6.02.29-.99.55-1.84.85-2.73.2-.6,1-2.22,1.04-2.61-2.21,1.09-4.47,2.1-6.65,3.15s-4.81,2.06-5.8,4.01c-1.12,2.18-2.11,4.43-3.12,6.68-.26.58-.55,1.11-.82,1.62-.29.56-.48,1.19-.75,1.74-.52,1.11-1.11,2.18-1.79,3.19.09.87.75,1.61,1.09,2.32.27.57.84,1.99,1.11,2.29.37-.04.36-.15.73-.22,1.06-.2,3.25.05,4.39.75.47.29.82.75,1.1.91,0-1.69-.21-12.34.19-12.87.46.32.46,4.38.46,5.11,0,1.95.29,4.11.26,6.34-.06,4.09.33,9,.31,13.28,0,2.81.25,5.17.25,8.25,0,1.28,0,2.88.08,4.16.15,2.23.17,3.99.16,6.17,0,.33,0,.66.04.99.07.63-.1.67.62.67.23,0,.33-.08.52-.08l38.95.18c.32-2.05.48-2.44.49-4.45,0-.62-.22-1.05-.16-1.9.14-1.89.03-4.35.23-6.27.13-1.32-.07-2.9-.07-4.15l-.02-7.45c-1.04-.38-1.37-.05-1.85-2.96-.12-.71-.25-1.24-.34-1.99-.17-1.35-.32-1.31-.32-2.7,0-.4.15-1.83.34-2.05.67,1.11,1.32,8.05,2.01,8.5l2.25.33c1.79.18,3.6-.1,5.26-.8.87-.39,1.98-.72,2.83-1.14s1.56-1.13,2.34-1.67c.44-.3.5-.58.99-1,.71-.6.73-.92.73-1.71,0-1.14-1.2-4.39-1.58-5.55-.29-.95-.52-1.91-.69-2.88-.55-2.72-1.96-5.59-2.75-7.89-.29-.87-.47-2.21-.75-2.82-.4-.85-1.01-1.53-1.25-2.32-1.37.37-3.61,3.3-4.41,4.48-.72,1.06-2.23,5.62-2.95,5.94.18-.5.24-1.21.39-1.74,1.14-3.86,1.16-4.23,3.77-7.33.36-.39.75-.76,1.16-1.09.29-.21,1.29-.77,1.36-.85-1.28-.79-4.57-2.13-6.26-2.64-2.23-.67-4.41-1.83-6.65-2.41.06.45.26.82.36,1.26.41,1.89.46,4.59.46,6.48,0,2.37-.55,4.86-.99,7.02-.22,1.07-.38,2.24-.68,3.3-.16.57-.24,1.05-.39,1.59-.13.47-.49,1.16-.54,1.47.87.87,1.54,1.6,1.54,3.21,0,1.88-1.71,3.8-3.91,3.8-2.15,0-3.89-1.76-3.88-3.91,0-1.26.62-2.44,1.65-3.17,1.28-.87,1.69-.62,3.36-.61.13-.46.29-.74.41-1.16l.89-3.98c.29-1.74.91-3.7.98-5.56.08-2.17.25-3.86-.03-6.05-.18-1.4-.46-4.57-1.76-4.83-.03.81-1.11,3.73-1.45,4.55-.8,1.99-3.01,5.88-4.81,7.26-.29.23-.62.39-.87.62-.26.26-.54.5-.84.71-1.78,1.31-4.91,1.74-7.05.63-1.83-.96-2.3-1.16-3.54-2.54-2.32-2.54-3.15-5.34-3.19-8.94l.02.02Zm-28.26-5.96c.16-.17.34-.3.55-.4.73-.43.89-.4.9.53,0,.39.08.55.08.92-.46-.15-1.37-.66-1.53-1.05Zm-2.15.29c-1.36.49-1.06.58-1.22-.64.45.12.86.34,1.22.64Zm-5.77-.93c.24-.24.21-.1.5-.26s.07-.16.45-.26l-.04.74c-.31-.03-.62-.1-.91-.22h0Zm-2.57-1.25l-.37.42c.37.15,1.31.46,1.83.38s1.4-.24,1.69-.61c-.58-.32-1.3-.52-1.95-.82-.56-.25-.58.03-1.2.64v-.02Zm-2.67-.25c0-.83.61-.55.64-1.77.33.03.87.44,1.23.63s1.02.33,1.35.55c-1.09.51-1.71.83-3.22.58h0Zm-.53-.96c.27-.58.72-.49.16-1.32-.14.07,0,.02-.13.15s.03.06-.18.17c-.65-.34-.19-.65-1.16-.64-.06.14-.12.28-.19.41l-.27.36c.29.4.25.43.25,1.08.25.1.33.24.62.13s.18-.24.58-.39c.26.36,0,.3.09.48.17-.17.13-.2.24-.43h0Zm7.31,9.22c-.4-.26-.36-.52-.43-1.11s-.24-.68-.24-1.39c0-1.06.08-2.18.08-3.13l-1.45-.34c.38,1.62.48,3.74.47,5.64,0,.69-.04.84.29,1.28.38.53.03.51.51,1.06,1.95,2.24,2.13,2.11,3.67,5.7.29.69.75,1.31,1.1,2.03.41.84.41,1.65.72,2.41.37.1,2.86-.17,3.36-.29,1.2-.24,1.79-.73,2.53-1.29l-.87-3.06-.42.85c-.47-.24-.1-1.24,0-1.72.15-.64.26-1.29.3-1.94.03-.83.03-1.2,0-2.09-.03-.83-.45-1.11-.49-1.79-1.29.4-.86.58-2.27.17-.11.18-.58.97-.56,1.16.07.49.5.84,0,1.51-.33-.17-.29-.44-.42-.8-.29-.87-.89-.42.07-1.81.54-.78-.13-.58.14-1.12.46-.62.96.33,1.71.38.6.05,1.41-.48,1.54-.99-.57-.38-1.15-.71-1.76-1.02-1-.55-1.06-1.66-3.13.9-.23.29-1.09,1.45-1.3,1.58-1.19.8.16-1.31.21-1.38.38-.56.83-1.08,1.32-1.55.43-.43.77-1.11,1.57-1.19.63-.07,1.45.6,1.88.87l.58-.99c-.6-.32-1.05-.52-1.59-.82s-.91-.72-1.41-.95c-.63.22-.9.51-1.45.83-.75.43-.84.29-1.1,1.16-1,3.38-1.85,3.22-1.59,2.21l.76-2.11c.45-1.12.02-2.03.01-3.29,0-2.03.27-1.61.89-2.93.42-.89.26-2.47-.47-2.9-.53.55-1.45,3.19-1.91,3.76-.32.39-.58.64-.55,1.39.02.8-.08,6.73-.31,7.1h0Zm-1.64-9.16c.1-.35.6-1,.81-1.56s.27-1.21.48-1.76c.23.06.43.41.7.79.72,1,.11,2.3-.52,3.11l-1.47-.58h0Zm30.64-16.71c0-1.39,3.06-.83,4.31-.96,1.06-.11,1.39-.12,1.47.99.03.34-.03,2.23-.19,2.39-.36.4-1.83.18-2.56.26l-2.8.14c-.13-.93-.22-1.87-.25-2.81Zm9.4-.69c0-1.09,4.14-.76,5.01-.6.53.09,2.46.15,2.7.41.33.35.26,3.33-.29,3.84-.24.23-1.08.1-1.47.1-.98,0-2.05-.04-3.02.02-.65.04-2.09.02-2.55-.37s-.37-2.63-.37-3.4h0Zm12.89,3.17c-.16-.35-.19-.74-.08-1.11.34-.84-.86-1.24-1.85-2.64-.56-.79-1.76-3.24-1.76-4.35.97.19,1.93.42,2.87.71,1.25.43,3.77,1.5,4.49,2.61.41.65-.18,1.99-.37,2.71-1-.08-1.47-.16-2.15.45-.39.35-.91,1.45-1.15,1.59v.02Zm-21.72-7.58c.42-.12.81-.29,1.23-.39l3.94-.72c1.21-.17,6.29-.38,7.69-.27l4.35.67c.15.25.06.89.14,1.29.11.38.25.76.42,1.12.26.75.59,1.47.97,2.16.92,1.6,1.79,1.66,1.87,2.82.21,3.06.42.21-.32,5,.8.54.8-.08,1.18-.72.66-1.11,1.38-4.58,2.76-4.58.87,0,1.38,1.06,1.51,1.88.24,1.59-.58,4.03-1.24,5.45-.38.82-.93,1.33-2.09,1.33s-.99-.96-1.89-1.13c-.39.32-.35.34-.34,1.02l-.2,3.71c-.31,2.57-1.38,2.56-1.52,3.77.85-.04,1.79-1.54,2.21-2.26.5-.87.49-2.67.49-3.94l1.39.25c.55,1.34.15,9.12.78,10.51.29.62.63.32,1.29.62.45.21.81.34,1.29.53-.31,1.64-.84,3.23-1.57,4.73-.86,1.67-2.34,4.55-3.52,5.86-.67.74-2.69,2.5-3.5,2.76-.58.19-1.81.58-2.45.58-1.8,0-3.42-.75-4.74-1.68-.99-.7-1.93-2.1-2.67-3.24-.58-.87-1.11-3.33-1.26-4.61-.09-.77-.07-1.97-.19-2.77-.1-.71.63-1.6,1.03-1.66,0,1.24.15,4.86,1.1,5.13l.08-3.77c.01-1.76.29-2.84,0-4.64-.18-1.16.14-.66.92-.66h1.13c.22,0,.21-.08.52-.08.46,0,.39.08.6.08h1.31c.26,0,.22-.08.52-.08.68,0,1.99.03,2.47-.42-.35-.53-2.44-.33-3.33-.4-1.03-.08-2.46-.1-3.5-.22-2.07-.23-5.28.44-6.71-.64-1.38-1.04-1.33-4.24-1.41-6.12-.1-2.3-.12-4.95-.41-7.16l4.67-.37-.75,5.28c-.08.56.47.66.98.66.79,0,3.95.02,4.32-.22-.07-.45-.58-.39-1.1-.44-.44-.04-.85-.11-1.39-.17-1.78-.17-1.84.42-1.54-1.16.18-.96.22-1.95.35-2.82.43-2.9.35-1.9.27-4.43.58-.38.94-.18,1.53,0,.1,1.76-.05,2.25.94,3.23.79.78,2.19.58,3.38.64,1.36.05,2.71.02,4.06-.11,1.09-.12.78-.17,1.31-.81.32-.38.37-1.12.37-1.72,0-1.39.24-3.28-1.42-3.63-1.53-.33-5.98-.44-7.57.04-.69.21-.89.55-1,1.33-.93-.15-.48-.35-1.66-.19-.39-.48-.2-.55-.9-.83-.46-.18-.96-.23-1.45-.14-1.03.17-2.26.08-3.39.09-.1-.83-.36-2.53-.35-3.27v-.02Zm.16-7.28c.91-.1,1.01-.43,2.41-.41-.14.24-1.9.47-2.53,1.55-.38.65-.04.37-.04,1.27,0,.63-.59.48-.29,1.27,1.28-.45,1.67-.94,3.9-1.27,2.52-.37,5.51-.82,8.05-.37.46.08.83-.02.93.37-.26.36-2.5.16-3.84.32-2.17.27-9.24.82-9.24,3.32,0,.19.05.38.12.56.75-.27-.03-.26,2.11-.82,4.56-1.2,6.8-1.05,11.46-1.05l3.99.6c.64.13,1.26.29,1.87.5.62.19,1.29.29,1.87.46,3.59,1.16,2.96,1.35,4.62,2.42.87.56,1,1.99,1,.19,0-.54-1.25-1.74-1.6-2.03-.59-.48-4.13-2.05-4.99-2.3-.53-.15-.8-.3-1.33-.48-.39-.14-1.26-.18-1.55-.41,1.54-.36,3.84.42,5.56.9,1.64.46,2.6.94,3.58,1.93.58-.81,0-2.39,0-2.39,0-1.47.49-1.02.25-1.63-.27-.67-.58-.44-.49-1.92.07-1.07.16-.87.16-2.35-.12-1.02-.34-2.03-.66-3-.79-2.03-1.02-1.55-1.54-2.1-.57-.66-1.26-1.21-2.03-1.62-.56-.26-2.2-.87-2.8-.81,1.19.75,2.25,1.36,3.18,2.34-.46-.1-1.63-.89-2.27-1.12-.77-.28-1.65-.64-2.44-.96-.4-.17-.82-.3-1.25-.39-.78-.19-1.47-.96-4.28-.96-2.42,0-1.23.03-3.3.44-.49.1-.53.22-.98.35-1.8.52-1.04.07-2.8,1.11-.57.3-1.11.66-1.6,1.08-1.47,1.22-1.49,1.03-2.24,3.06-.82,2.24-.58,2.61-1,4.35h0Zm25.91,13.61c.08-.53.26-.64.4-1.94.1-.9.63-.56.93-1.43.71-2.07-.68-2.56-.54-3.42.12-.74.38-1.2.37-2,0-.42-.15-.73-.05-1.06s.29-.41.39-.74c.18-.61-.41-1.25-.49-1.7-.11-.58.11-1.49.15-2.05.06-.87-.39-3.32-.66-4.06-.51-1.4-.99-1.85-1.93-2.66-.84-.74-1.47-1.49-2.61-1.99-1.48-.64-5.09-.61-5.91-1.02-.54-.3-1.13-.51-1.74-.62-1.18-.27-2.9-.29-4.19-.21-1.13.07-2.54.68-3.67.98-.91.24-.94.14-1.67.69-.39.29-.98.54-1.41.84s-.82.72-1.28,1.07c-3.16,2.39-2.27,7.39-2.95,8.59-.58,1,.11,1.06-.42,1.74-.42.54-.2,1.07.15,1.59-.63.96-1.16,1.83-.29,3.09.52.74.46.4.52,1.5.04.67.09,1.45.09,2.06-.98.47-.87,1.45-.82,2.72.06.55.14,1.1.25,1.65.14.94.37.61.73,1.13,0,1.79.08,3.67.08,5.56,0,.83.14,1.87.17,2.69.03.98,0,1.72.11,2.66.15,1.38,1.11,2.93,2.17,3.48,1.77.91,2.64.52,4.96.62l.11,2.67c-.91.5-.98.29-1.76,1.1-.58.58-.94.66-1.74,1.02-1.4.62-2.5,1.16-3.83,1.74-1.74.78-6.18,2.64-7.47,3.72-.5.45-.97.95-1.4,1.47-.74.89-2.05,4.39-2.66,5.67-.29.64-.48,1.31-.8,1.99-.5,1.1-2.24,5.03-2.79,5.51-.58-1.4-1.21-2.66-1.59-4.21-.55-2.28-1.3-4.47-1.94-6.73-.45-1.57-.21-.63-.03-2.16.4-3.33-.31-3.29-.87-4.7.42-.28.61-.81.45-1.29-.18-.49-.51-.17-.78-1.04-.16-.5,1.06-1.9-.48-2.36,0-1.08-.21-2.74-.94-3.06-.62-.27-1.04.08-1.47.31-.62.33-.63.47-.84,1.16l-2.55-1.16c.18-1.56,1.82-2.11.98-4.35-.11-.36-.26-.7-.46-1.02-.25-.26-.58-.44-.93-.5-.58.02-.91,1.1-1.31,1.52-.44-.76-.89-1.93-1.9-1.95-.79.33-1.09,3.3-1.82,4.01-.66-.25-1.37-.41-2.05-.69s-1.15-.58-1.88-.82c-.53-.17-.43-.32-.96-.32-.63,0-.45-.29-1.06-.2-.44.08-1.33.77-1.35,1.36-.03.74-.15,1.67.65,1.96.34.12.82.06,1.16.23s.49.29.87.44c1.19.46,3.14.77,4.15,1.31.12.7.14,1.74.2,2.47.33,3.87-.32,3.74,1.45,6.36.36.53.73.97,1.11,1.49,1.16,1.58,1.69,3.47,2.72,5.09,1.28,2.01,1.02,4.08,1.56,6.33.33,1.53.55,3.08.66,4.64.1,2.32.78,5.16.55,7.19-.33,2.97-.07,7.31,1.13,9.22.71,1.13,1.25,2.25,1.99,3.23,1.91,2.53,2.39,4.06,5.95,4.49,1.88.22,3.01.18,4.2-.81.53-.44,1.95-2.17,2.42-2.79s1.78-2.99,2.07-3.19c.03,1.8.08,3.39.08,5.16,0,1.49-.13,3.76.05,5.15.19,1.52-.06,3.58.03,5.18.1,1.65.1,3.31,0,4.97,1.68.24,9.16.29,11.27.29,7.64,0,15.07.16,22.74.16l8.28.18c1-.21,1.67-.03,2.66-.01.92.01,5.29.13,5.41.1.6-.14,1.7-3.1,2.01-3.72s.69-1.19.98-1.89.48-1.36.77-2.11c.53-1.38,1.08-2.68,1.63-4.06,1.09-2.78,2.46-5.51,2.47-8.98,0-1.4-.76-3.28-.97-4.77-.12-.87-.31-1.53-.46-2.38-.34-1.86-.38-1.16-.69-2.15.61-.87,1.34-1.04,1.22-2.68-.16-2.17-.98-4.02-1.66-6.07-.35-1.05-.51-1.99-.81-3.03-.52-1.95-1.2-3.85-2.05-5.68-.41-.88-.78-1.79-1.09-2.71-.52-1.54-.08-1.81-.7-2.96-1.64-3.02-1.36-2.17-4.09-3.63l-2.79-1.14c-.91-.31-1.91-.58-2.86-.93-1.97-.75-3.72-1.36-5.71-1.99-.76-.24-.63-.35-1.07-.87-.94-1.19-2.37-1.87-3.88-1.86l-.48-7.43c-.04-.46-.05-.78-.1-1.2-.06-.46-.19-.69-.24-1.05.18-.27,1.21-.52,1.93-1.72,1.29-2.18,2.37-6.34.61-8.25h0Z"/>
      <path class="cls-11" d="m54.56,43.53c.55-.92,2.43-.33,2.41.51-.21.13-.29.07-.55-.03-.92-.37-.93-.1-1.45-.22-.32-.08-.19-.13-.42-.25h0Zm-2.61-3.22c-.42.77,1.97,2.1,3.7,2.1,1.16,0,2.69-.44,3.48-1,.84-.6,1.22-1.29,1.81-2.17.2.21.21.3.61.31.91-1.74-1.78-2.32-1.61-1.55.06.26.22.23.43.32-.46.82-.86,1.07-1.47,1.65-2.98,2.85-6.72.37-6.95.35h0Zm16.59-4.2c.52-.49.98.04,1.18-.9.12-.6-.23-.77.02-1.7.21-.78.75-2.54,1.54-2.54,1.45,0,1.29,1.57,1.14,1.8l-.8-.9c-.25.18-.42.46-.47.77,0,.43.67.65.49,2.09-.48-.19-.44-.84-.9-1.06-.2,1.48.17,1.38-.31,2.21-.4.69-1.68.96-1.89.24h0Zm-21.49-12.49c0,.75.25,2.44.35,3.27,1.13,0,2.36.08,3.39-.09.49-.09.99-.05,1.45.14.7.29.51.35.9.83,1.18-.17.73.04,1.66.19.1-.77.31-1.12,1-1.33,1.58-.49,6.04-.38,7.57-.04,1.65.36,1.42,2.25,1.42,3.63,0,.6-.06,1.34-.37,1.72-.53.64-.22.69-1.31.81-1.35.13-2.71.16-4.06.11-1.19-.06-2.6.14-3.38-.64-.99-.98-.83-1.47-.94-3.23-.59-.17-.96-.37-1.53,0,.08,2.52.16,1.51-.27,4.43-.13.87-.16,1.86-.35,2.82-.29,1.59-.24,1,1.54,1.16.54.05.95.12,1.39.17.51.05,1.03,0,1.1.44-.37.25-3.54.22-4.32.22-.51,0-1.06-.1-.98-.66l.75-5.28-4.67.37c.29,2.21.31,4.86.41,7.16.08,1.88.03,5.08,1.41,6.12,1.45,1.08,4.64.41,6.71.64,1.04.12,2.46.13,3.5.22.87.07,2.97-.13,3.33.4-.48.45-1.8.42-2.47.42-.29,0-.26.08-.52.08h-1.31c-.21,0-.15-.08-.6-.08-.31,0-.29.08-.52.08h-1.13c-.78,0-1.1-.51-.92.66.29,1.8,0,2.89,0,4.64l-.08,3.77c-.96-.27-1.1-3.89-1.1-5.13-.4.06-1.13.95-1.03,1.66.11.79.1,1.99.19,2.77.15,1.29.7,3.75,1.26,4.61.74,1.14,1.68,2.54,2.67,3.24,1.32.93,2.94,1.68,4.74,1.68.64,0,1.87-.39,2.45-.58.81-.26,2.83-2.03,3.5-2.76,1.18-1.3,2.67-4.19,3.52-5.86.73-1.5,1.26-3.09,1.57-4.73-.48-.19-.83-.31-1.29-.53-.66-.29-1.01,0-1.29-.62-.63-1.39-.22-9.17-.78-10.51l-1.39-.25c0,1.28,0,3.08-.49,3.94-.42.72-1.36,2.23-2.21,2.26.13-1.21,1.21-1.19,1.52-3.77l.2-3.71c0-.68-.06-.69.34-1.02.9.17.68,1.13,1.89,1.13s1.71-.51,2.09-1.33c.66-1.42,1.49-3.86,1.24-5.45-.13-.83-.63-1.88-1.51-1.88-1.39,0-2.1,3.47-2.76,4.58-.38.64-.38,1.26-1.18.72.73-4.79.52-1.94.32-5-.08-1.16-.95-1.23-1.87-2.82-.38-.69-.71-1.41-.97-2.16-.17-.36-.31-.74-.42-1.12-.08-.4,0-1.03-.14-1.29l-4.35-.67c-1.4-.11-6.48.1-7.69.27l-3.94.72c-.42.12-.82.3-1.23.42Z"/>
      <path class="cls-8" d="m47.21,16.37c.43-1.71.18-2.1,1-4.35.74-2.03.77-1.84,2.24-3.06.49-.42,1.03-.78,1.6-1.08,1.76-1.03,1-.58,2.8-1.11.44-.13.49-.25.98-.35,2.06-.41.87-.44,3.3-.44,2.81,0,3.5.77,4.28.96.43.09.85.22,1.25.39.79.32,1.66.69,2.44.96.64.23,1.81,1.02,2.27,1.12-.92-.98-1.99-1.59-3.18-2.34.6-.06,2.24.55,2.8.81.77.41,1.46.96,2.03,1.62.52.55.75.08,1.54,2.1.32.98.54,1.98.66,3,0,1.47-.1,1.27-.16,2.35-.09,1.48.22,1.25.49,1.92.24.62-.25.16-.25,1.63,0,0,.58,1.58,0,2.39-.99-.99-1.94-1.47-3.58-1.93-1.72-.48-4.02-1.26-5.56-.9.29.23,1.16.27,1.55.4.54.18.8.33,1.33.48.87.25,4.4,1.82,4.99,2.3.35.29,1.6,1.5,1.6,2.03,0,1.79-.13.37-1-.19-1.66-1.07-1.03-1.25-4.62-2.42-.58-.19-1.25-.29-1.87-.46-.61-.21-1.24-.38-1.87-.5l-3.99-.6c-4.66,0-6.9-.15-11.46,1.05-2.14.56-1.36.56-2.11.82-.07-.18-.12-.37-.12-.56,0-2.5,7.06-3.06,9.24-3.32,1.34-.16,3.59.04,3.84-.32-.1-.39-.47-.29-.93-.37-2.54-.45-5.53,0-8.05.37-2.22.33-2.61.82-3.9,1.27-.29-.79.29-.63.29-1.27,0-.9-.34-.62.04-1.27.64-1.08,2.39-1.31,2.53-1.55-1.42-.02-1.52.31-2.44.41h0Z"/>
      <path class="cls-11" d="m22.27,67.6c0,.93.72,4.84.95,5.89.19.85.19,2.12.29,3.08s.48,2.14.48,3.04v6.68c0,2.26.7,3.71,1.57,5.27.95,1.72,2.7,5,4.6,5.75,1.18.46,3.92,1.11,5.05.04.34-.33.66-.68.94-1.05.61-.75,1.27-1.38,1.81-2.19.65-.96,1.51-2.66,2.26-3.72.51-.72.37-.6.37-1.67s0-7.27-.2-7.72c-.47-.87-1.27-1.53-2.22-1.82-1.36-.47-1.93-.38-3.55-.31.16.58,1.54,3.23,1.99,4.77.67,2.31,1.04,3,1.04,5.64-.68-.31-.81-2.1-1.02-2.88-.14-.54-.4-1.03-.55-1.47-.78-2.44-.55-1.83-1.68-4.39-.45-1.02-1-1.7-1.45-2.63-1.23-2.57-1.52-2.24-2.57-5.51-.53-1.63-1.71-4.6-1.89-6.29-.42.12-.7.56-1.16.78-1.55.75-3.22.71-5.05.71Z"/>
      <path class="cls-11" d="m85.55,87.9c.03.24.87,1.96,1.06,2.5.42,1.25.17,1.65-.05,2.96-.33,2.03-.75,4.04-1.16,6.05-.12.58-1.98,11.72-1.98,12.4l6.87.1c.72,0,1.49-2.29,1.79-2.88.26-.52.63-1.07.84-1.51.26-.55.45-1.06.65-1.6.87-2.28,1.78-4.41,2.65-6.63,3.03-7.82,1.21-7.1.69-11.27-.17-1.31-.56-2.61-.67-3.95-.43.09-1.92,1.18-2.31,1.45-.64.48-1.7.75-2.5,1.06-.87.33-1.72.82-2.59,1.01-1.28.3-2.03.17-3.3.31Z"/>
      <path class="cls-1" d="m17.46,54.6c-.4-.26-.36-.52-.43-1.11s-.24-.68-.24-1.39c0-1.06.08-2.18.08-3.13l-1.45-.34c.38,1.62.48,3.74.47,5.64,0,.69-.04.84.29,1.28.38.53.03.51.51,1.06,1.95,2.24,2.13,2.11,3.67,5.7.29.69.75,1.31,1.1,2.03.41.84.41,1.65.72,2.41.37.1,2.86-.17,3.36-.29,1.2-.24,1.79-.73,2.53-1.29l-.87-3.06-.42.85c-.47-.24-.1-1.24,0-1.72.15-.64.26-1.29.3-1.94.03-.83.03-1.2,0-2.09-.03-.83-.45-1.11-.49-1.79-1.29.4-.86.58-2.27.17-.11.18-.58.97-.56,1.16.07.49.5.84,0,1.51-.33-.17-.29-.44-.42-.8-.29-.87-.89-.42.07-1.81.54-.78-.13-.58.14-1.12.46-.62.96.33,1.71.38.6.05,1.41-.48,1.54-.99-.57-.38-1.15-.71-1.76-1.02-1-.55-1.06-1.66-3.13.9-.23.29-1.09,1.45-1.3,1.58-1.19.8.16-1.31.21-1.38.38-.56.83-1.08,1.32-1.55.43-.43.77-1.11,1.57-1.19.63-.07,1.45.6,1.88.87l.58-.99c-.6-.32-1.05-.52-1.59-.82s-.91-.72-1.41-.95c-.63.22-.9.51-1.45.83-.75.43-.84.29-1.1,1.16-1,3.38-1.85,3.22-1.59,2.21l.76-2.11c.45-1.12.02-2.03.01-3.29,0-2.03.27-1.61.89-2.93.42-.89.26-2.47-.47-2.9-.53.55-1.45,3.19-1.91,3.76-.32.39-.58.64-.55,1.39.02.8-.08,6.73-.31,7.1h0Zm6.39-6.12c.16-.17.34-.3.55-.4.73-.43.89-.4.9.53,0,.39.08.55.08.92-.46-.15-1.37-.66-1.53-1.05Zm-8.03-3.05c.1-.35.6-1,.81-1.56s.27-1.21.48-1.76c.23.06.43.41.7.79.72,1,.11,2.3-.52,3.11l-1.47-.57Z"/>
      <path class="cls-10" d="m55.87,28.05c0,.77-.05,3.04.37,3.4s1.9.41,2.55.37c.97-.06,2.03-.02,3.02-.02.39,0,1.23.13,1.47-.1.54-.51.62-3.48.29-3.84-.24-.26-2.17-.32-2.7-.41-.87-.15-5.01-.48-5.01.6h0Zm-9.4.68c.03.94.11,1.88.25,2.81l2.8-.14c.72-.08,2.19.15,2.56-.26.16-.16.21-2.05.19-2.39-.09-1.11-.41-1.1-1.47-.99-1.25.14-4.31-.42-4.31.96Z"/>
      <path class="cls-7" d="m56.91,31.72c.22.04.43.07.65.09l2.57-4.45c-.21-.02-.43-.04-.68-.05l-2.55,4.41h0Zm1.34.12l2.54-4.4h.09c.24.04.79.08,1.33.13l-2.42,4.23c-.33,0-.66,0-.98.03-.16,0-.35.01-.56.01Z"/>
      <path class="cls-7" d="m49.66,27.79l-2.15,3.72-.72.04,2.18-3.77h.69v.02Zm2.2,0c-.22-.11-.57-.08-1.08-.02-.12,0-.27.02-.42.02l-2.12,3.67,1.27-.06c.08,0,.18,0,.29-.02l2.06-3.59Z"/>
      <path class="cls-2" d="m68.76,31.22c.23-.13.75-1.24,1.15-1.59.68-.6,1.15-.52,2.15-.45.19-.73.78-2.06.37-2.71-.71-1.13-3.25-2.2-4.49-2.61-.94-.29-1.9-.52-2.87-.71,0,1.11,1.2,3.56,1.76,4.35,1,1.39,2.19,1.8,1.85,2.64-.1.36-.07.74.08,1.08Z"/>
      <path class="cls-3" d="m60.37,38.33c-.46.82-.86,1.07-1.47,1.65-2.98,2.85-6.72.37-6.95.35-.42.77,1.97,2.1,3.7,2.1,1.16,0,2.69-.44,3.48-1,.84-.6,1.22-1.29,1.81-2.17.2.21.21.3.61.31.91-1.74-1.78-2.32-1.61-1.55.04.26.21.23.42.32Z"/>
      <path class="cls-10" d="m70.66,77.27c0-1.49,3.3-2.07,3.19.44-.04.93-.66,1.5-1.63,1.49-.72,0-1.57-.7-1.57-1.4v-.52h0Zm.82.26c0,1.26,1.63,1,1.63.17,0-1.53-1.63-1.12-1.63-.17Zm.49,2.41h.69c.8,0,2-1.16,2-1.98v-.87c0-.82-1.02-2.05-2.52-2.05-1.28.03-2.32,1.04-2.39,2.32-.06,1.32.92,2.59,2.22,2.59h0Z"/>
      <path class="cls-3" d="m68.54,36.13c.21.72,1.49.46,1.89-.24.48-.82.11-.73.31-2.21.46.22.42.87.9,1.06.18-1.45-.49-1.66-.49-2.09.05-.31.22-.59.47-.77l.8.9c.15-.23.32-1.8-1.14-1.8-.79,0-1.33,1.76-1.54,2.54-.25.93.1,1.1-.02,1.7-.19.95-.66.41-1.18.9Z"/>
      <path class="cls-3" d="m71.48,77.53c0-.95,1.63-1.36,1.63.17,0,.83-1.63,1.09-1.63-.17Zm-.82-.26v.51c0,.71.85,1.4,1.57,1.4.97,0,1.58-.56,1.63-1.49.1-2.5-3.2-1.92-3.2-.43h0Z"/>
      <path class="cls-4" d="m10.69,46.35c1.51.23,2.12-.08,3.22-.58-.33-.22-.94-.33-1.35-.55s-.89-.6-1.23-.63c-.03,1.23-.65.95-.64,1.77h0Zm11.01,2.44c-.35-.3-.77-.52-1.22-.64.16,1.23-.15,1.13,1.22.64Zm-5.77-.93c.29.12.6.19.91.22l.04-.74c-.38.1-.14.08-.45.26s-.26.03-.5.26h0Zm-2.93-.83l.37-.4c.63-.61.64-.89,1.2-.64.65.29,1.38.5,1.95.82-.29.37-1.13.52-1.69.61s-1.46-.25-1.83-.38Z"/>
      <path class="cls-9" d="m8.38,44.51c.29.4.25.43.25,1.08.25.1.33.24.62.13s.18-.24.58-.39c.26.36,0,.3.09.48.17-.17.13-.2.24-.43.27-.58.72-.49.16-1.32-.14.07,0,.02-.13.15s.03.06-.18.17c-.65-.34-.19-.65-1.16-.64-.06.14-.12.28-.19.41l-.26.36Z"/>
      <path class="cls-3" d="m54.56,43.53c.23.12.1.17.42.25.52.12.52-.15,1.45.22.26.1.34.16.55.03.02-.82-1.85-1.42-2.42-.51Z"/>
      <path class="cls-7" d="m8.47,38.84c-.07-.71-.1-1.59-.1-2.23s.03-1.02-.1-1.31c-.18-.31-.46-.55-.8-.68-.41-.14-.79-.37-1.11-.66-.31-.39-.45-.89-.38-1.39.1-.56.34-1.09.69-1.54.35-.52.8-1.05.93-1.54.11-.49-.04-1-.4-1.35-.34-.42-.84-.8-1.2-1.3-.33-.49-.55-1.05-.64-1.64-.07-.52,0-.93-.38-1.22s-1.16-.47-1.87-.46-1.33.22-1.93-.16c-.69-.49-1.12-1.26-1.18-2.11.02-.75.64-1.28,1.3-1.54s1.37-.22,2.19-.22,1.72-.03,2.11-.38.24-1.03.19-1.65c-.06-.51,0-1.03.18-1.51.16-.34.43-.46.91-.52.66-.02,1.32-.16,1.93-.4.74-.34,1.51-1.02,1.39-1.67s-1.12-1.27-1.98-1.74-1.55-.81-1.82-1.37-.04-1.36.22-2.01.58-1.16.77-1.59c.15-.38.22-.79.21-1.2,0-.37-.03-.72-.03-1.81s.03-2.92.09-3.47.15.19.19.99c.05.8.04,1.65.04,2.21-.03.35,0,.71.09,1.05.09.22.27.4.36.61.08.22.1.46.06.69-.04.27-.09.55-.16.81-.1.32-.15.64-.16.97.04.34.05.69.05,1.03-.04.29-.22.5-.15.68s.4.33.75.44.74.21,1.28.39,1.25.44,1.61.78.35.75.65,1.16c.44.49.98.86,1.59,1.09.71.31,1.54.55,1.92.96.35.36.34.93-.02,1.28-.03.03-.06.06-.1.08-.44.35-1.27.47-1.9.48s-1.08-.07-1.37.1-.44.62-.53.97-.12.62-.66.73-1.61.04-2.35.04-1.16.06-1.31.31-.08.69.12,1.11.49.8.64,1.12.15.58-.13.77c-.44.19-.91.31-1.39.35-.55.09-1.08.18-1.09.49s.49.84.91,1.12.78.31,1.27.53,1.11.64,1.31,1,0,.69-.13,1.08c-.16.39-.16.83.02,1.21.21.38.68.71,1,1.22s.5,1.22.29,1.77-.84.93-1.4,1.28-1.06.68-1.25.98c-.16.26-.11.59.1.8.2.26.45.48.74.65.37.18.69.43.96.74.21.35.26.77.16,1.16-.13.41-.28.8-.47,1.18-.21.51-.34,1.05-.38,1.61-.06.68-.03,1.54-.07,1.7s-.16-.37-.24-1.08h-.01Zm-1.4-29.5c-.03.34.07.67.27.94.35.37.76.66,1.22.87.48.25.97.46,1.35.67.34.16.63.42.83.74.18.34.28.71.29,1.09,0,.29-.1.58-.29.8-.2.22-.41.41-.65.58-.19.14-.29.2-.21.19.21-.05.41-.13.6-.24.22-.14.38-.33.53-.43.14-.08.3-.12.46-.1.13,0,.24.02.42.05.18.03.37.03.55,0,.08-.01.13-.09.12-.16,0-.02,0-.03-.02-.05-.03-.06-.12-.08-.26-.11-.16-.02-.32-.06-.48-.11-.12-.05-.16-.1-.14-.14s.09-.06.11-.1,0-.13-.09-.23c-.12-.11-.23-.23-.32-.37-.09-.17-.12-.39-.23-.62-.11-.27-.3-.5-.53-.67-.32-.21-.67-.39-1.02-.53-.38-.17-.75-.35-1.09-.54-.31-.17-.6-.37-.87-.61-.19-.17-.32-.4-.36-.65-.05-.27-.05-.62-.07-.69s-.07.15-.08.43h-.02Zm-1.51,14.27c.02.07.14.24.22.39.08.15.12.32.15.49.03.19.05.43.08.66.03.21.09.42.16.63.07.15.16.3.27.42.1.12.21.25.31.36.1.11.21.21.32.31.14.11.27.23.39.37.15.18.28.37.38.58.09.19.16.39.2.6.02.16.02.33,0,.49,0,.17-.04.34-.02.31.06-.15.1-.31.12-.47.03-.17.04-.34.03-.52-.02-.13-.05-.25-.09-.37-.04-.16-.11-.31-.19-.45-.1-.15-.22-.28-.36-.39-.16-.15-.35-.34-.47-.46-.08-.07-.14-.16-.18-.26-.03-.09-.05-.19-.05-.29.02-.09.02-.17,0-.26-.03-.06-.12-.09-.22-.14-.11-.04-.2-.11-.27-.2-.06-.12-.09-.24-.09-.37-.01-.15-.04-.3-.08-.45-.05-.18-.12-.35-.21-.52-.07-.14-.16-.28-.26-.39-.09-.09-.18-.13-.16-.07h0Zm-.19-3.75c-.21.14-.44.24-.69.29-.36.06-.73.09-1.1.08h-.83c-.2,0-.41.03-.6.1-.11.06-.21.13-.29.22-.12.07-.24.14-.36.19-.15.08-.33.21-.35.33s.13.26.29.34.32.12.33.19-.14.17-.25.29c-.1.09-.16.22-.16.36,0,.12.1.23.22.26.17.02.34.02.51,0,.21-.01.41,0,.62.03.13.05.27.09.41.12.16,0,.39-.03.62-.02.2,0,.4.04.58.12.15.07.25.15.26.12-.04-.1-.12-.18-.21-.24-.14-.08-.31-.13-.47-.13-.17,0-.34,0-.46-.04-.09,0-.17-.05-.23-.12-.03-.05-.04-.11-.16-.16-.16-.05-.32-.07-.49-.08-.16,0-.27,0-.29-.02s.03-.13.15-.18.34-.06.42-.11.05-.11-.04-.18c-.11-.07-.23-.14-.36-.2-.11-.06-.19-.12-.19-.2s.08-.17.08-.24-.07-.14-.04-.2c.08-.1.2-.15.33-.14.17,0,.38.06.54.07.13,0,.26-.04.38-.1.12-.04.24-.05.36-.04.22.02.43,0,.64-.05.25-.09.48-.2.71-.34.19-.09.37-.21.53-.35.13-.15.23-.32.29-.51.05-.16.05-.26.02-.23-.06.13-.13.25-.21.36-.15.16-.31.3-.5.42Z"/>
    </g>
    <g>
      <path class="cls-6" d="m358.77,68.29c.95-.29,1.95-.43,2.94-.43h5.63c2.39-.01,4.69.88,6.46,2.48,1.78-1.61,4.1-2.5,6.5-2.48h5.78c5.12-.07,9.33,4.02,9.4,9.14,0,.04,0,.08,0,.12v26.17c-.05,2.32-.5,4.62-1.34,6.79-1.55,4.36-4.43,8.11-8.24,10.73-8.07,5.64-18.86,5.4-26.66-.61-2.8-2.09-4.25-5.55-3.76-9.01-1.46.84-3.11,1.28-4.8,1.27h-5.74c-2.94.05-5.74-1.27-7.59-3.56-7.07,4.51-16.06,4.72-23.33.54-1.83,1.94-4.38,3.04-7.04,3.03h-3.28c-1.37,0-2.74-.2-4.06-.58-1.32-.37-2.6-.89-3.81-1.54-1.72,1.38-3.86,2.13-6.06,2.12h-5.71c-.99,0-1.98-.15-2.93-.45-6.33,1.3-12.91-.23-18.03-4.17-1.7,2.89-4.81,4.65-8.16,4.62h-5.73c-2.82.04-5.51-1.16-7.36-3.29-8.29,5.03-18.88,4.17-26.26-2.12-7.39,7.23-18.75,8.49-27.55,3.07-1.76,1.52-4.01,2.36-6.34,2.35h-5.71c-.99,0-1.98-.15-2.93-.45-4.98,1.02-10.17.31-14.69-2.02-1.77,1.6-4.07,2.49-6.46,2.48h-9.84c-1.37,0-2.74-.2-4.06-.58-3.67-1.02-6.91-3.18-9.26-6.18-2.44-3.04-3.77-6.82-3.75-10.72v-26.05c0-5.35,4.23-9.28,9.53-9.28h5.75c5.13-.08,9.36,4.02,9.44,9.15,0,.06,0,.11,0,.17v8.86c.91-1.41,1.97-2.71,3.17-3.89,1.61-1.61,3.45-2.96,5.47-4.03-1.35-1.96-2.06-4.29-2.02-6.67V15.44c0-6.63,5.47-11.65,12-11.65h12.92c9.7,0,18.25,3.56,25.3,10.21,3.13,2.9,5.71,6.35,7.62,10.16,4.83-3.82,10.83-5.87,16.98-5.8,7.44-.08,14.6,2.86,19.84,8.14.23.22.45.45.67.68,1.87-2.22,4.1-4.1,6.61-5.56,7.69-4.47,18.08-4.62,26.34-1.66,5.62,1.99,8.5,5.22,8.54,11.47,0,2.87.29,6.52-.86,9.15-1.48,3.36-4.74,5.59-8.41,5.74,2.55.16,4.94,1.32,6.64,3.23,2.17-2.05,5.06-3.17,8.05-3.11h6.52V14.83c0-6.61,4.57-10.74,10.98-10.74h5.84c1.36,0,2.71.24,3.98.73,1.03-.29,2.09-.43,3.16-.43h7.8c5.96,0,10.38,4.71,10.38,10.57v3.64c1.33-.28,2.68-.42,4.03-.42h2.98c5.45-.06,9.92,4.31,9.98,9.76,0,.07,0,.14,0,.21v7.62c0,5.06-3.33,8.91-8.04,9.77l-1.92,10.79c-.67,3.75-2.44,7.22-5.09,9.97-.71.77-1.47,1.5-2.26,2.19.5-.19,1.03-.36,1.56-.5,1.32-.37,2.69-.57,4.06-.58h2.13c1.43,0,2.84.31,4.13.91h-.03Zm-144.28,5.56c1.07-1.05,2.25-1.98,3.51-2.8-2.42-1.33-4.64-3-6.57-4.97-1.14-1.15-2.19-2.39-3.13-3.7-1.88,2.07-4,3.92-6.31,5.5v.65c4.63.39,9,2.26,12.49,5.32h.01Zm30.14-1.13c2.21-2.28,4.99-3.93,8.05-4.77.5-.14,1.03-.26,1.55-.35-.83-.78-1.6-1.61-2.32-2.48-.29.31-.58.63-.89.93-2.25,2.29-4.88,4.19-7.77,5.6.47.34.93.7,1.38,1.07h0Zm-60.69-40.71v14.02c1.69-.56,3.2-1.57,4.38-2.92,1.03-1.1,1.59-2.56,1.56-4.06,0-1.55-.6-3.05-1.67-4.17-1.12-1.34-2.6-2.33-4.26-2.87Zm98.45,14.3c-1.02-.07-2.02-.24-3.01-.5-1.2-.31-2.41-.72-3.63-.99-1.05-.22-1.96-.5-2.65.23-.27.47-.12,1.6.03,2.07.5,1.43,1.47,1.25,2.85.88.5-.13,1.05-.35,1.56-.52,1.46-.59,2.99-.98,4.56-1.16h.28Z"/>
      <path class="cls-5" d="m168.28,12.24h12.92c7.41,0,13.92,2.63,19.5,7.9,5.59,5.27,8.38,11.58,8.38,18.95.02,5.6-1.84,11.05-5.27,15.47-3.35,4.54-8.03,7.93-13.39,9.69-1.71.6-3.48,1.04-5.27,1.32-.99.17-1.98.27-2.98.29h-15.01c-1.66,0-2.43-.91-2.43-2.61V15.44c0-1.68,1.41-3.2,3.55-3.2Zm7.21,10.9v31.9h6c1.36-.04,2.72-.26,4.03-.66,3.55-.95,6.73-2.94,9.15-5.7,2.39-2.64,3.69-6.07,3.66-9.63,0-3.59-1.32-7.05-3.73-9.71-2.38-2.81-5.58-4.8-9.15-5.69-1.51-.39-4.12-.59-7.83-.59h-1.99l-.13.08Z"/>
      <path class="cls-5" d="m211.71,46.27c.01-10.71,8.67-19.41,19.38-19.46,5.22-.08,10.25,1.98,13.91,5.71,7.63,7.65,7.61,20.03-.03,27.65-3.65,3.64-8.58,5.69-13.73,5.71-10.79,0-19.54-8.76-19.53-19.55,0-.02,0-.04,0-.05Zm10.75.03c0,4.85,3.94,8.78,8.78,8.78,4.85,0,8.77-3.93,8.78-8.78.02-2.32-.93-4.54-2.63-6.12-1.65-1.64-3.89-2.56-6.22-2.53-4.79.01-8.68,3.88-8.71,8.67v-.02Z"/>
      <path class="cls-5" d="m298.51,54.9h9.94c.53-.13,1.07-.22,1.61-.29,1.07-.3,1.98-1.01,2.52-1.99.6-.99.92-2.12.91-3.28V14.83c0-2.05.99-2.29,2.53-2.29h5.84c1.54,0,2.38,1.1,2.38,2.53v35c-.02,1.44-.24,2.87-.66,4.24-1.66,5.7-5.29,9.31-10.9,10.83-1.21.35-2.47.55-3.73.59h-10.17c-1.56,0-3.08-1.2-3.08-2.72v-5.48c0-1.92,1.15-2.62,2.8-2.62Z"/>
      <path class="cls-5" d="m328.07,29.7c2.91-1.71,4.37-3.65,4.37-5.83h-3.76c-1.21,0-1.8-.67-1.8-1.87v-7.41c0-1.2.84-1.76,2.12-1.76h7.8c1.25,0,1.93.9,1.93,2.12v8.42c-.01,1.14-.18,2.27-.5,3.36-.92,3.31-3.33,5.89-7.24,7.74-1.31.63-1.8.11-2.18-.54l-1.29-2.48c-.34-.61-.41-1.2.55-1.74Z"/>
      <path class="cls-5" d="m329.84,54.85h3.12c.6-.08,1.14-.38,1.55-.82.48-.38.85-.9,1.04-1.49l2.73-15.16c.53-2.87,2.1-5.39,4.71-7.54,2.61-2.16,5.35-3.23,8.23-3.23h2.98c.78-.06,1.47.53,1.52,1.31,0,.07,0,.14,0,.21v7.62c0,.99-.44,1.49-1.59,1.49h-2.41c-.7.05-1.36.31-1.9.76-.59.36-1.02.94-1.19,1.61l-2.73,15.3c-.39,2.13-1.42,4.08-2.95,5.61-2.83,3.06-5.87,4.72-9.12,4.97-.48.04-1.82.06-4.02.07-1.21,0-1.37-.99-1.37-1.6v-7.62c-.09-.72.42-1.38,1.14-1.47.09-.01.18-.01.27,0Z"/>
      <path class="cls-5" d="m262.46,28.94c5.51-3.2,13.36-3.12,19.25-.99,2.21.79,2.91.99,2.93,3.56,0,.94.11,5.1-.14,5.69-.07.16-.17.3-.3.41-.66.57-1.93.24-2.69.04-1.34-.35-2.63-.78-3.98-1.06-4.08-.87-7.63-.38-10.62,2.78-2.57,2.71-2.91,7.06-1.76,10.47,1.99,5.87,7.25,7.88,13.02,6.36.7-.18,1.43-.46,2.12-.69.8-.32,1.62-.56,2.46-.73,1.68-.13,2.11,1.2,2.14,2.6.05,1.35.04,2.7-.04,4.05-.09,1.19-.46,2.28-1.6,2.86-4,2.04-10.93,1.87-15.29,1.14-2.41-.4-4.69-1.39-6.63-2.88-4.71-3.58-7.23-9.6-7.6-15.4-.48-7.2,2.3-14.47,8.74-18.21Z"/>
      <path class="cls-5" d="m175.01,102.49c-1.98.99-4.15,1.51-6.36,1.53-3.73.05-7.31-1.45-9.88-4.15-2.67-2.61-4.16-6.2-4.1-9.94-.07-3.74,1.43-7.34,4.13-9.94,4.83-4.81,12.41-5.46,17.98-1.54,2.37,1.62,4.17,3.94,5.13,6.65.49,1.26.78,2.59.84,3.95v14.11c0,.53-.39.88-1.03.88h-5.71c-.48.06-.92-.28-.99-.76,0-.04,0-.07,0-.11v-.66h0Zm-12.62-12.57c.1,3.48,3,6.23,6.49,6.13,3.35-.09,6.04-2.78,6.13-6.13.01-1.65-.65-3.24-1.84-4.39-1.15-1.21-2.75-1.89-4.42-1.87-1.67-.02-3.28.63-4.47,1.81-1.23,1.15-1.92,2.76-1.89,4.45Z"/>
      <path class="cls-5" d="m260.12,77.13v5.17c0,.72-.29,1.26-1.18,1.26h-1.76c-.39-.03-.77.16-.97.5-.11.17-.21.36-.29.55v18.53c.01.47-.36.87-.83.88-.06,0-.11,0-.17-.01h-5.71c-.78,0-1.08-.31-1.08-.83v-18.36c-.01-1.99.66-3.92,1.92-5.47,1.25-1.59,2.97-2.73,4.92-3.26.58-.17,1.18-.26,1.79-.26h2.13c.68,0,1.23.53,1.24,1.2,0,.03,0,.06,0,.1Z"/>
      <path class="cls-5" d="m153.14,102.71v-5.17c0-.71-.29-1.26-1.18-1.26h-9.44c-.4.04-.79-.15-.99-.5-.12-.17-.21-.36-.29-.55v-26.24c.01-.47-.36-.87-.84-.88-.05,0-.1,0-.15.01h-5.72c-.78,0-1.07.3-1.07.83v26.06c-.01,1.99.66,3.92,1.92,5.47,1.24,1.58,2.97,2.72,4.91,3.25.58.17,1.18.26,1.79.26h9.84c.68,0,1.23-.54,1.24-1.22,0-.03,0-.05,0-.08Z"/>
      <path class="cls-5" d="m193.55,78.4c1.98-.97,4.15-1.48,6.36-1.49,3.73-.05,7.31,1.45,9.88,4.14,2.67,2.61,4.15,6.2,4.1,9.94.07,3.74-1.43,7.34-4.12,9.94-5.51,5.48-14.42,5.45-19.89-.07-1.42-1.43-2.52-3.15-3.22-5.04-.5-1.26-.78-2.59-.84-3.95v-23.48c0-.53.39-.88,1.03-.88h5.71c.48-.06.92.28.99.76,0,.04,0,.07,0,.11v10.02Zm12.62,12.57c.04-3.49-2.76-6.34-6.24-6.38-3.49-.04-6.34,2.76-6.38,6.24-.02,1.7.65,3.33,1.84,4.53,1.15,1.21,2.75,1.89,4.42,1.87,1.67.02,3.28-.63,4.47-1.81,1.23-1.14,1.91-2.75,1.89-4.43h0Z"/>
      <path class="cls-5" d="m230.18,75.91c7.75,0,14.03,6.28,14.03,14.03s-6.28,14.03-14.03,14.03-14.03-6.28-14.03-14.03h0c0-7.75,6.28-14.03,14.03-14.03Zm0,7.79c-3.45,0-6.24,2.79-6.24,6.24s2.79,6.24,6.24,6.24,6.24-2.79,6.24-6.24h0c0-3.45-2.79-6.24-6.24-6.24Z"/>
      <path class="cls-5" d="m283.08,102.49c-1.98.99-4.16,1.51-6.37,1.53-3.73.05-7.31-1.45-9.88-4.15-2.67-2.61-4.15-6.2-4.1-9.94-.06-3.74,1.43-7.34,4.12-9.94,5.52-5.47,14.43-5.44,19.9.08,1.42,1.43,2.51,3.14,3.21,5.03.5,1.26.78,2.59.84,3.95v14.11c0,.53-.39.88-1.03.88h-5.71c-.48.06-.92-.28-.99-.76,0-.04,0-.07,0-.11v-.66h0Zm-12.62-12.57c-.04,3.49,2.76,6.34,6.25,6.37,3.49.04,6.34-2.76,6.38-6.25.02-1.69-.65-3.32-1.84-4.52-1.15-1.21-2.75-1.89-4.42-1.87-1.67-.02-3.28.63-4.47,1.81-1.23,1.15-1.92,2.76-1.89,4.45Z"/>
      <path class="cls-5" d="m308.23,102.71v-5.17c0-.71-.29-1.26-1.18-1.26h-2.91c-.4.04-.79-.15-.99-.5-.12-.17-.21-.36-.29-.55v-26.77c.01-.47-.36-.87-.83-.88-.06,0-.11,0-.17.01h-5.69c-.78,0-1.07.3-1.07.83v26.58c-.01,1.99.67,3.92,1.92,5.47,1.25,1.59,2.97,2.73,4.92,3.26.58.17,1.18.26,1.78.26h3.28c.68,0,1.23-.54,1.23-1.21,0-.02,0-.05,0-.07Z"/>
      <path class="cls-5" d="m298.53,82.27h8.84c.47.01.86-.36.88-.83,0-.05,0-.11-.01-.16v-5.71c0-.78-.3-1.08-.83-1.08h-8.87v7.78Z"/>
      <path class="cls-5" d="m325.26,75.91c7.75,0,14.03,6.3,14.02,14.05,0,7.75-6.3,14.03-14.05,14.02-7.74,0-14.02-6.29-14.02-14.03s6.28-14.03,14.03-14.03c0,0,0,0,.01,0Zm0,7.79c-3.45,0-6.24,2.79-6.24,6.24s2.79,6.24,6.24,6.24,6.24-2.79,6.24-6.24h0c0-3.44-2.79-6.24-6.23-6.24h0Z"/>
      <path class="cls-5" d="m355.87,77.13v5.17c0,.72-.29,1.26-1.18,1.26h-1.76c-.4-.04-.79.15-.99.5-.11.17-.21.36-.29.55v18.53c.01.47-.36.86-.83.88-.05,0-.09,0-.14,0h-5.72c-.78,0-1.07-.31-1.07-.83v-18.36c-.01-1.99.66-3.92,1.92-5.47,1.24-1.59,2.97-2.73,4.92-3.26.58-.17,1.18-.26,1.78-.26h2.13c.68,0,1.23.53,1.24,1.2,0,.03,0,.06,0,.1Z"/>
      <path class="cls-5" d="m387.02,83.3v19.98c-.06,1.35-.35,2.69-.84,3.95-.96,2.7-2.75,5.03-5.12,6.65-5.04,3.54-11.8,3.39-16.67-.38-.53-.3-.72-.96-.42-1.49.08-.15.2-.28.34-.37l4.03-3.53c.61-.45.95-.5,1.85-.1.89.44,1.86.67,2.85.66,1.67.02,3.27-.66,4.42-1.87.95-.92,1.57-2.13,1.77-3.44-.5.18-1.18.42-2.06.71-1.07.32-2.18.47-3.29.44-5.26,0-9.16-2.34-11.72-7.01-.98-1.73-1.51-3.68-1.53-5.67v-14.64c0-.56.37-.86,1.08-.86h5.63c.53-.01.98.39,1.02.92v14.17c0,.07.07.52.21,1.37.33,1.14,1.03,2.14,1.99,2.84,1.93,1.47,4.61,1.47,6.54,0,.96-.72,1.66-1.74,1.99-2.89.03-.14.08-.4.16-.79v-14.75c.03-.51.46-.89.97-.87.02,0,.05,0,.07,0h5.78c.6,0,.95.32.95.85v6.14Z"/>
    </g>
  </g>
</svg>