<?xml version="1.0" encoding="UTF-8"?>
<svg id="Layer_2" data-name="Layer 2" xmlns="http://www.w3.org/2000/svg" xmlns:xlink="http://www.w3.org/1999/xlink" viewBox="0 0 1366 512.25">
  <defs>
    <style>
      .cls-1 {
        fill: #5cbc76;
      }

      .cls-1, .cls-2 {
        stroke-width: 0px;
      }

      .cls-2 {
        fill: url(#GradientFill_1);
        fill-rule: evenodd;
      }
    </style>
    <linearGradient id="GradientFill_1" data-name="GradientFill 1" x1="317.19" y1="-186.28" x2="1049.64" y2="692.99" gradientUnits="userSpaceOnUse">
      <stop offset="0" stop-color="#c2c2c5"/>
      <stop offset=".2" stop-color="#c5c6c8"/>
      <stop offset=".48" stop-color="#fff"/>
      <stop offset=".73" stop-color="#c7c8c9"/>
      <stop offset="1" stop-color="#c2c2c5"/>
    </linearGradient>
  </defs>
  <g id="Layer_1-2" data-name="Layer 1">
    <g>
      <rect class="cls-1" width="1364.89" height="512.25"/>
      <path class="cls-2" d="m1.11,0h.56c402.38,14.48,773.23,112.89,687.43,255.08C724.08,120.24,376.8,37.67,1.11,27.34V0h0Zm353.82,0c274.98,51.59,454.14,146.79,335.35,255.19C836.32,157.48,713.71,61.85,483.73,0h-128.81Zm267.06,0c185.2,71.82,252.17,168.83,69.33,255.41,210.13-79.08,177.03-177.48,18.51-255.41h-87.85Zm198.89,0c127.56,85.74,119.1,186.76-128.71,255.71C968.09,194.85,1005.91,91.41,898.84,0h-77.96Zm183.02,0c81.66,99.54,3.63,207.33-311.16,256.07C1036.07,217.59,1145.13,105.86,1081.16,0h-77.27Zm184.72,0c41.61,115.3-113.69,233.95-495.61,256.46C1102.05,247.64,1295.89,122.76,1269.62,0h-81Zm177.38,66.74c-64.72,108.46-303.64,200.58-673.04,190.13,306.16,20.18,545.03-35.43,673.04-116.46v-73.67h0Zm0,127.54c-164.64,62.01-405.88,95.05-673.4,62.98,247.16,40.44,490.57,19.09,673.4-32.95v-30.03h0Zm0,65.62v23.9c-217.3,34.28-468.31,33.86-674.06-26.2,223.18,51.7,470.62,43.46,674.06,2.3h0Zm0,55.27v22.6c-250.99,20.26-514.52.56-674.97-79.9,180.99,71.7,438.58,83.26,674.97,57.3h0Zm0,53.76v23.34c-290.69,7.66-574.9-32.45-676.06-134.21,128.72,92.69,403.09,123.81,676.06,110.86h0Zm0,56.35v25.25c-340.31-4.4-657.98-69.41-677.27-192.37,57.39,114.16,359.19,167.79,677.27,167.12h0Zm0,61.3v25.67h-44.05c-384.48-20.2-723.93-117.63-634.45-254.11-41.07,134.32,304,217.66,678.5,228.44h0Zm-363.14,25.67h-126.2c-224.93-62.57-340.93-158.1-190.33-254.23-123.45,106.58,47.66,201.65,316.53,254.23h0Zm-262.99,0h-87.35c-154.46-78.52-181.88-176.89,32.77-254.45-187.37,85.07-126.26,182.02,54.59,254.45h0Zm-198.13,0c-123.73-86.36-109.54-187.38,142.71-254.75-280.31,59.19-323.99,162.67-220.64,254.75h77.94Zm-183.06,0c-78.04-100.3,6.21-208.13,325.21-255.11-347.37,36.61-462.99,148.4-402.58,255.11h77.38Zm-185.1,0c-38.12-116.29,124.38-234.94,510.04-255.5-412.46,6.82-613.95,131.62-591.12,255.5h81.08ZM1.11,440.3c72.65-107.04,316.04-195.9,682.56-183.96C376,234.86,132.91,289.74,1.11,370.84v69.46h0Zm0-122.51c167.93-62.35,413.18-95.04,682.92-61.84-249.46-41.51-496.85-20.43-682.92,32v29.84h0Zm0-65.26c206.67-41.57,457.98-49.58,683.58,3.08C476.49,194.64,221.65,194.01,1.11,228.71v23.82h0Zm0-55.08c239.55-26.38,500.86-14.63,684.48,57.88C522.38,174.13,255.2,154.29,1.11,174.97v22.48h0Zm0-53.47c275.88-13.36,553.7,17.83,685.57,111.17C582.02,152.81,294.5,112.71,1.11,120.8v23.18h0Zm0-55.92c320.35-1.12,625.09,52.33,686.77,167C663.63,131.62,343.29,66.98,1.11,63.05v25.01Z"/>
    </g>
  </g>
</svg>