<?xml version="1.0" encoding="UTF-8"?>
<svg id="Layer_2" data-name="Layer 2" xmlns="http://www.w3.org/2000/svg" viewBox="0 0 552.82 543.79">
  <defs>
    <style>
      .cls-1 {
        fill: #aadee9;
      }

      .cls-1, .cls-2, .cls-3, .cls-4, .cls-5, .cls-6, .cls-7, .cls-8, .cls-9, .cls-10, .cls-11 {
        fill-rule: evenodd;
        stroke-width: 0px;
      }

      .cls-2 {
        fill: #663614;
      }

      .cls-4 {
        fill: #ca9833;
      }

      .cls-5 {
        fill: #9857a3;
      }

      .cls-6 {
        fill: #010101;
      }

      .cls-7 {
        fill: #fff;
      }

      .cls-8 {
        fill: #5dbd77;
      }

      .cls-9 {
        fill: #f2673a;
      }

      .cls-10 {
        fill: #b3b3b3;
      }

      .cls-11 {
        fill: #fdcc99;
      }
    </style>
  </defs>
  <g id="Layer_1-2" data-name="Layer 1">
    <g>
      <g>
        <path class="cls-7" d="m289.03,12.57c2.02.62,6.33.72,8.57.97,3.85.43,8.11.96,11.69,2.5,4.93,2.13,7.36,4.86,11.24,8.24,4.64,4.04,6.93,6.82,9.05,12.7,1.51,4.19,3.04,13,2.77,17.41-.09,1.43-.55,3.23-.62,4.64.22.44.49.89.68,1.32,1.26,2.84,1.71,5.85.8,8.87-.27.9-.58,1.57-.95,2.23.06.44.12.88.13,1.35.06,2.8-.51,4.52-1.03,6.79.46.81.96,1.6,1.33,2.59,1.51,4.07,1.25,8.19-.15,12.24-.76,2.19-1.62,3.53-3.02,4.9-.12.79-.27,1.56-.44,2.34,5.22,10.2,1.58,25.1-3.92,34.35-1.22,2.05-2.75,3.85-4.56,5.37.1,1.12.16,2.25.26,3.42l1.22,18.88c4.61,1.5,8.55,4.31,11.79,8.09.18.21.35.42.51.64,6.54,2.09,13.02,4.36,19.44,6.79,3.14,1.19,6.4,2.04,9.58,3.12l.24.08,10.28,4.18.4.22c3.1,1.67,6.53,2.77,9.4,4.86,3.74,2.72,5.96,7.12,8.12,11.09,1.35,2.48,1.94,4.65,2.26,7.43.17,1.44.29,2.73.75,4.11.96,2.86,2.06,5.68,3.36,8.4,3.22,6.76,5.53,13.72,7.58,20.9.96,3.35,1.59,6.82,2.68,10.12,2.56,7.79,5.52,14.63,6.11,22.97.3,4.21-.43,7.98-2.89,11.38.41,1.42.67,2.88.94,4.35l.08.44c.7-.05,1.39-.08,2.09-.08h15.69c14.29,0,25.14,11.35,25.14,25.52v2.4c1.28-.11,2.57-.17,3.86-.17h6.04c13.6,0,24.32,10.71,24.32,24.31v15.32c0,10.91-6.58,20.01-16.71,23.13l-3.38,18.95c-1.06,6.38-3.62,12.17-7.29,17.32h3.92c2.97,0,5.89.54,8.65,1.61,1.83-.43,3.71-.64,5.6-.64h11.32c4.64,0,9.14,1.37,12.96,3.91,3.86-2.55,8.4-3.91,13.08-3.91h11.64c12.8,0,23.11,10.01,23.18,22.87v1.45c.03,3.67,0,7.34,0,11.01v40.21c0,5.17-1.2,10.25-2.94,15.1-3.48,9.72-9.71,17.75-18.16,23.66-8.41,5.87-18.04,8.96-28.3,8.96-11.16,0-21.55-3.48-30.38-10.31-4.95-3.83-8.2-9.31-9.11-15.31-1.78.42-3.62.63-5.47.63h-11.55c-5.96,0-11.69-2.09-16.04-6.03-7.23,3.93-15.31,5.97-23.58,5.97-7.64,0-15.12-1.74-21.93-5.11-4.18,3.35-9.38,5.17-14.83,5.17h-6.6c-3.16,0-6.29-.47-9.33-1.32-2.11-.59-4.16-1.34-6.15-2.26-3.75,2.35-8.11,3.57-12.58,3.57h-11.5c-2.06,0-4.11-.26-6.09-.79-2.87.52-5.78.79-8.69.79-9.55,0-18.54-2.56-26.43-7.66-4.37,4.87-10.67,7.66-17.38,7.66h-11.55c-5.72,0-11.24-1.93-15.54-5.59-7.02,3.64-14.79,5.53-22.75,5.53-10.55,0-20.72-3.33-29.18-9.51-9.01,7.63-19.95,11.6-31.96,11.6-8.27,0-16.16-2-23.36-5.9-3.85,2.54-8.39,3.88-13.06,3.88h-11.5c-2.06,0-4.11-.26-6.09-.79-2.87.52-5.78.79-8.69.79-6.99,0-13.8-1.38-20.13-4.23-3.96,2.76-8.67,4.23-13.56,4.23h-19.79c-3.16,0-6.29-.47-9.33-1.32-8.31-2.33-15.45-7.05-20.81-13.82-5.54-6.98-8.47-15.31-8.47-24.22v-52.45c0-13.13,10.43-22.93,23.42-22.93h11.55c12.84,0,23.21,10.1,23.21,23v6.16c2.27-2.15,4.72-4.09,7.34-5.78-1.72-3.7-2.54-7.77-2.54-11.89v-96.25c0-15.68,12.92-27.69,28.4-27.69h25.99c7.19,0,14.1.92,20.67,2.72-.16-4.72.04-9.24.46-12.95.44-3.94-.34-8.77-.85-12.71-.46-3.57-.93-7.14-1.1-10.74-.2-4.55-.94-9.82-2.01-14.24-1.35-5.59-1.3-14.52-4.3-19.23-3.45-5.41-5.39-12.03-9.08-17.09-1.32-1.81-2.76-3.53-4.02-5.39-7.54-11.15-5.44-13.81-6.46-25.97-.09-1.03-.14-2.06-.19-3.09-.64-.17-1.29-.33-1.92-.5-2.53-.67-5.05-1.3-7.49-2.25-1.15-.45-2.09-1.03-3.14-1.57-1.14-.25-2.21-.16-3.63-.66-7.09-2.52-8.2-8.54-7.91-15.16.26-5.89,5.98-11.68,11.68-12.68,2.29-.4,4.21-.26,6.24.59,1.51.11,2.92.47,4.31,1.18.25.13.48.27.52.32,2.16.71,4.07,1.72,6.1,2.62,1.39-4.45,3.17-9.03,7.82-10.98l1.65-.69,1.8.04c2.69.05,5.02.82,7.04,2.23,1.12-.46,2.33-.73,3.62-.76,3.55-.1,7.7,2.07,9.97,4.76,1.53,1.82,2.23,3.82,3.05,5.99,1.12,2.99,1.54,5.69,1.31,8.3,2.33-.6,4.67-.5,7.51.75,5.36,2.34,7.4,8.19,8.05,13.65,1.29,1.37,2.2,3.03,2.67,4.92.63,2.57.44,4-.06,5.78.62.81,1.11,1.73,1.5,2.81.93,2.56.99,5.22.2,7.72,2.71,5.44,2.45,10.94,1.74,16.86-.12,1.02-.29,2.01-.52,2.99.11.38.24.76.34,1.13,1.75,6.16,3.75,12.25,5.45,18.42.14-.31.28-.62.42-.93,1.04-2.28,1.71-4.7,2.8-6.99,1.44-3.02,2.64-6.16,3.96-9.23,1.66-3.86,3.67-8.85,6.34-12.07,1.81-2.18,3.71-4.33,5.88-6.16,4.07-3.41,10.05-6.09,14.87-8.34,4.26-1.98,8.57-3.84,12.87-5.74,4.43-1.97,8.79-4.06,13.22-6.02.45-.2,1.09-.42,1.71-.68-2.38-.41-4.76-1.19-7.57-2.64-6.52-3.38-11.23-11.42-12.02-18.61-.36-3.28-.31-6.54-.42-9.83-.11-3.19-.59-6.34-.58-9.55,0-4.75-.15-9.49-.23-14.23l-2.13-5.76c-.14-.59-.25-1.2-.34-1.81-.33-2.24-.87-4.29-.95-6.59-.18-4.83-.23-9.58,2.69-13.42-.05-.96-.11-1.91-.17-2.87,0-.15-.01-.29-.02-.44-.09-.12-.17-.23-.25-.35-3.75-5.36-4.07-10.52-1.55-16.04-.71-2.91-.37-5.81,1.1-8.47,0-2.27.48-4.06,1.63-6.21.17-.81.22-2,.29-2.78.25-2.86.48-5.73.93-8.57,1.35-8.39,4.54-16.08,11.49-21.34,1.59-1.2,2.94-2.64,4.59-3.82,1.47-1.05,3.32-1.75,4.66-2.77,3.4-2.58,4.78-2.76,8.67-3.82,4.9-1.33,9.16-3.36,14.36-3.66,5.38-.31,11.53-.25,16.79.93,2.84.64,5,1.37,7.58,2.64h0Zm-109.7,415.5c-1.44-1.22-2.83-2.5-4.17-3.84-1.27-1.28-2.48-2.6-3.64-3.97-1.12,1.08-2.28,2.13-3.46,3.15,3.95,1.07,7.72,2.63,11.27,4.67h0Zm-52.21-68.03v13.53c.47-.42.93-.89,1.36-1.38,1.46-1.66,2.07-3.14,2.07-5.36s-.84-3.91-2.32-5.62c-.36-.42-.73-.81-1.11-1.18Z"/>
        <path class="cls-6" d="m222.64,113.29l-.49-.86c-.36-.79-.58-1.7-.76-2.91-.3-2.07-.83-4.01-.91-6.13-.16-4.42-.37-8.8,2.77-11.72-.05-1.55-.15-3.11-.25-4.65-.03-.52-.03-1.16-.08-1.71-.31-.42-.65-.84-.95-1.27-3.4-4.86-2.87-8.87-.46-13.24-1.02-2.53-1-5.17.82-7.68-.17-2.24.05-3.54,1.27-5.7.34-.78.51-3.18.59-4.07.24-2.77.45-5.51.9-8.27,1.17-7.26,3.81-14.05,9.86-18.62,1.56-1.18,2.89-2.61,4.5-3.76,1.5-1.07,3.38-1.79,4.75-2.84,3.01-2.28,3.83-2.18,7.21-3.1,4.47-1.21,8.81-3.25,13.5-3.52,4.86-.28,10.88-.23,15.61.83,2.79.63,4.37,1.18,6.87,2.43,1.72.68,7.66,1.03,9.74,1.27,3.3.37,7.43.87,10.48,2.18,4.46,1.92,6.66,4.52,10.13,7.54,4.07,3.55,5.95,5.69,7.84,10.94,1.24,3.43,2.75,12.12,2.52,15.71-.09,1.45-.8,4.77-.6,5.84.22.63.73,1.47,1.02,2.12.85,1.91,1.23,3.89.62,5.93-.34,1.15-.73,1.63-1.27,2.49.05.75.25,1.58.27,2.4.07,3.04-.76,4.66-1.24,7.27.45,1.04,1.33,2.23,1.8,3.49,1.16,3.13.89,6.27-.18,9.38-.74,2.15-1.52,2.91-3.01,4.17-.21,1.9-.51,3.37-.97,5.09,5.68,8.78,1.8,23.4-3.04,31.54-1.19,2-2.72,3.67-4.59,5.04-.29.21-.58.4-.88.59.1.4.18.81.23,1.26.17,1.42.23,2.85.35,4.35l1.41,21.97c4.96.89,9.16,3.48,12.61,7.5.42.49.76,1,1.14,1.49.2.08.43.15.61.21,6.71,2.12,13.33,4.44,19.92,6.94,3.19,1.21,6.5,2.07,9.72,3.17l.12.04,9.95,4.04.2.11c2.66,1.43,6.6,2.86,8.92,4.55,3.02,2.2,5.14,6.46,6.89,9.68,2.39,4.38,1.32,6.71,2.72,10.86,1.01,3.01,2.18,6,3.55,8.87,3.17,6.65,5.31,13.18,7.33,20.24.98,3.41,1.62,6.91,2.73,10.28,2.44,7.42,5.34,14,5.91,21.94.25,3.43-.29,6.36-2.48,9.09-.31.39-.66.77-1.01,1.14.88,1.82,1.24,4.03,1.59,5.96.51,2.8,1.23,5.52,1.64,8.35.81,5.68,3.41,11.2,3.39,17.04-.05,12.31-4.43,21.41-8.8,32.49-1.84,4.68-3.8,9.31-5.61,14-.94,2.43-1.69,4.92-2.67,7.34-.99,2.42-2.36,4.45-3.48,6.76-2.03,4.18-4.87,13.95-9.76,15.11-1.03.24-3.1.12-4.18.1-2.16-.04-4.33-.08-6.49-.13-3-.07-6-.15-9-.2-2.73-.04-5.53-.6-8.22-.04l-.47.1-28.91-.63c-26.12,0-52.24-.57-78.36-.57-6.37,0-12.74-.05-19.11-.15-4-.06-8-.15-12-.29-2.69-.1-5.64-.17-8.3-.55l-3.88-.55.23-3.91c.33-5.51.34-11.1,0-16.61-.34-5.74.62-11.96-.09-17.55-.75-5.86-.2-12.35-.2-18.28,0-1.29,0-2.57-.03-3.86-2.29,3.04-6.04,7.74-8.75,10-5.49,4.57-10.89,4.52-17.67,3.74-13.74-1.6-15.93-7.26-23.39-17.12-2.72-3.59-4.68-7.63-7.07-11.43-5.16-8.23-5.6-24.9-4.53-34.5.47-4.25-.31-9.48-.86-13.72-.44-3.45-.91-6.92-1.07-10.39-.2-4.4-1.09-10.77-2.12-15.05-1.59-6.6-1.14-14.71-4.84-20.52-3.5-5.49-5.46-12.14-9.24-17.31-1.29-1.77-2.7-3.44-3.93-5.26-6.95-10.27-4.77-12.31-5.75-23.94-.16-1.93-.2-3.97-.37-5.95-1.61-.57-3.46-1.02-4.89-1.4-2.34-.62-4.78-1.22-7.04-2.1-1.24-.48-2.15-1.11-3.19-1.61-1.11-.33-2.31-.17-3.7-.66-5.12-1.82-5.28-6.45-5.08-10.96.17-3.87,4.43-8.03,8.17-8.69,1.78-.31,2.98-.16,4.49.62,1.21.01,2.3.19,3.4.75.41.21.69.43,1.13.57,2.43.8,4.46,1.97,6.78,2.93,1.1.45,2.24.81,3.39,1.16.36-1.07.69-2.21.86-2.77,1.02-3.39,2.27-8.3,5.86-9.8l.83-.35.9.02c3.06.06,5.08,1.42,6.66,3.32,1.1-1.07,2.44-1.8,4.2-1.85,2.23-.06,5.16,1.55,6.59,3.25,1.12,1.34,1.71,3.12,2.32,4.74,1.93,5.18,1.26,8.86-1.53,13.43-.15.25-.32.51-.48.79l1.39.63c.67-.77,1.58-1.44,2.94-2.17,2.97-1.6,5.24-2.77,8.78-1.22,4.08,1.79,5.36,7.27,5.68,11.8,1.26.93,2.2,2.22,2.61,3.89.68,2.76-.16,3.99-.72,6.02,1.09.79,1.77,1.55,2.3,3.01.84,2.32.56,4.57-.52,6.49.23.41.46.81.69,1.24,2.53,4.73,2.17,9.72,1.54,14.9-.16,1.31-.36,2.35-.69,3.55.17.73.46,1.57.65,2.24,2.21,7.79,4.83,15.46,6.72,23.34.5,2.06,1.17,4.03,1.94,5.98.36-.77.68-1.46.92-1.96,1.46-3.07,2.84-6.17,4.25-9.26,1.03-2.26,1.69-4.67,2.77-6.92,1.45-3.04,2.7-6.28,4.03-9.38,1.38-3.21,3.5-8.38,5.7-11.03,1.62-1.95,3.41-3.99,5.35-5.62,3.52-2.95,9.74-5.79,13.94-7.75,4.24-1.97,8.53-3.81,12.8-5.71,4.42-1.96,8.78-4.06,13.21-6.01,1.82-.8,3.29-1.13,4.69-2.57,2.11-2.17,3.16-2.66,4.75-3.41l-.1-2.44c-5.28.07-9.16.43-14.96-2.57-5.24-2.71-9.11-9.52-9.75-15.3-.35-3.2-.29-6.3-.4-9.51-.1-3.14-.59-6.25-.58-9.4,0-5.78-.22-11.56-.27-17.33-.51-.44-.9-.86-1.22-1.32Z"/>
        <g>
          <path class="cls-8" d="m247.53,187.59c-2.13,1.1-5.1,12.84-5.87,15.94-1.33,5.39-3.1,12.9-3.13,19.05.6,1.1,8.54.98,11.98,8.29,4.08,8.66,4.35,12.96,4.35,21.91,0,5.92-3.6,21.28-5.94,25.67-1.91,3.59-4.27,6.13-6.72,9.12-.67.82-1.12,1.28-2.42,1.26-2.51-.03-.95.19-3.03.78-3.79,1.07-6.48-3.59-2.15-6.64,1.8-1.27,3.46-.18,4.84.34,1.25-1.86,3.06-3.36,4.57-5.88,3.37-5.63,6.06-20.3,6.06-26.14,0-4.35-7.4-9.07-11.22-10.51-6.51-2.44-11.69-2.39-18.33-.32-1.76,3.76-5.09,16.32-5.09,21.29s.01,15.1,2.61,19.28c2.97.27,5.84.26,5.84,3.45,0,1.28-3.5,7.57-9.8-.7-1.87-2.45-3.44-10.65-3.44-14.26v-8.38c0-8.45,6.19-27.62,12.52-33.29,2.1-1.88,6.51-5.28,10.23-5.35.65-1.94,1.34-12.77,3.67-20.73,1-3.41,1.87-6.35,2.91-9.42.7-2.06,3.46-7.66,3.61-8.98-7.61,3.76-15.4,7.22-22.92,10.85s-16.57,7.09-20.01,13.82c-3.85,7.52-7.27,15.26-10.75,23.04-.91,2.04-1.9,3.8-2.82,5.58-1,1.93-1.65,4.1-2.6,6.05-1.73,3.55-4.11,8.12-6.18,10.96.3,3.01,2.58,5.55,3.75,7.98.94,1.95,2.88,6.84,3.81,7.88,1.26-.15,1.24-.53,2.5-.76,3.65-.68,11.21.18,15.11,2.57,1.61.98,2.82,2.59,3.79,3.12,0-5.82-.72-42.53.67-44.36,1.6,1.1,1.59,15.09,1.58,17.59-.03,6.71,1.01,14.15.91,21.83-.19,14.08,1.12,30.95,1.07,45.76-.03,9.67.86,17.83.85,28.41,0,4.4,0,9.93.3,14.33.52,7.68.58,13.75.55,21.27,0,1.29.03,2.13.15,3.4.22,2.18-.34,2.32,2.15,2.32.79,0,1.12-.28,1.79-.28l134.19.62c1.1-7.05,1.66-8.39,1.69-15.32,0-2.14-.77-3.63-.55-6.54.49-6.52.1-14.98.78-21.61.47-4.54-.23-10.04-.24-14.31l-.06-25.68c-3.61-1.3-4.72-.16-6.38-10.21-.4-2.42-.85-4.26-1.17-6.86-.58-4.63-1.11-4.53-1.11-9.31,0-1.39.51-6.29,1.17-7.07,2.3,3.83,4.56,27.72,6.91,29.27l7.74,1.15c6.41.46,12.49-.27,18.17-2.82,3.01-1.35,6.82-2.47,9.74-3.95,3-1.51,5.37-3.89,8.06-5.74,1.53-1.05,1.71-2.03,3.41-3.46,2.44-2.07,2.53-3.17,2.53-5.88,0-3.93-4.14-15.11-5.44-19.1-1.13-3.49-1.68-6.39-2.39-9.93-1.89-9.38-6.76-19.26-9.48-27.18-1.05-3.05-1.62-7.61-2.61-9.73-1.37-2.93-3.47-5.25-4.31-7.98-4.72,1.28-12.43,11.37-15.18,15.42-2.48,3.65-7.68,19.35-10.17,20.46.63-1.72.81-4.18,1.34-5.98,3.93-13.3,3.97-14.56,13.02-25.25.91-1.07,2.83-2.84,4.01-3.75.95-.74,4.46-2.67,4.7-2.95-4.41-2.72-15.76-7.33-21.58-9.08-7.66-2.29-15.18-6.32-22.9-8.31.2,1.55.91,2.81,1.24,4.34,1.4,6.52,1.58,15.8,1.58,22.32,0,8.18-1.9,16.76-3.43,24.17-.76,3.67-1.3,7.72-2.33,11.36-.55,1.95-.84,3.62-1.36,5.47-.46,1.61-1.69,3.97-1.86,5.06,2.97,3.01,5.32,5.52,5.32,11.07,0,6.49-5.91,13.09-13.47,13.09s-14.29-6.78-13.22-15.45c.47-3.82,3.08-7.23,5.53-8.93,4.4-3.05,5.82-2.12,11.58-2.1.46-1.6,1.03-2.55,1.42-3.99l3.07-13.73c1.02-5.96,3.14-12.75,3.38-19.14.28-7.48.87-13.3-.1-20.86-.63-4.84-1.57-15.74-6.09-16.63-.12,2.78-3.83,12.84-4.97,15.68-2.74,6.85-10.36,20.27-16.58,24.99-1.04.79-2.13,1.35-2.95,2.13-1.2,1.14-1.41,1.37-2.9,2.46-6.14,4.53-16.93,6-24.29,2.16-6.33-3.3-7.91-4.02-12.21-8.74-7.97-8.75-10.84-18.41-11.03-30.79h0Zm-23.36,47.01c.47-2.4,2.11-3.53,3.77-4.65,1.28-.86,3.48-2.94,5.49-2.94,4.77,0,9.48.41,12.26,5.11,1.09,1.84,3.71,8.33,3.45,10.35-.41-.12-3.66-3.16-4.78-3.94-4.8-3.34-15.37-5.87-20.2-3.93Z"/>
          <path class="cls-3" d="m362.77,302.85c4.37-.48,6.95-.04,11.36-1.03,3.03-.68,5.98-2.36,8.93-3.49,2.77-1.06,6.4-2.01,8.62-3.64,1.34-.99,6.47-4.73,7.95-5.05.39,4.59,1.74,9.08,2.31,13.61,1.79,14.35,8.05,11.88-2.39,38.82-2.98,7.69-6.15,15.02-9.13,22.87-.7,1.84-1.33,3.63-2.24,5.5-.74,1.52-2,3.41-2.9,5.2-1.03,2.05-3.71,9.94-6.18,9.94l-23.68-.34c0-2.33,6.41-40.69,6.82-42.71,1.42-6.95,2.86-13.84,4.01-20.86.74-4.51,1.6-5.92.17-10.21-.63-1.87-3.52-7.78-3.65-8.61h0Zm-.39,19.49c1.55-8.98,1.48-7.72-2.29-16.78-.82-1.98-.83-3.67-3.82-2.92.33,4.26.83,4.78.82,10.55l.28,22.44c-.02,1.74.47,3.1.24,5.35-.12,1.21-.73,4.27.24,4.98l4.52-23.64h0Zm-46.4-46.88c-4.44,0-7.84-4.36-7.62-8.93.21-4.33,3.88-7.97,8.22-7.97,5.19,0,8.69,4.25,8.69,7.08v2.99c0,2.78-4.16,6.83-6.9,6.83h-2.39Zm-171.24-42.53c6.31,0,12.08.13,17.39-2.39,1.61-.76,2.59-2.25,4.02-2.68.62,5.82,4.69,16.04,6.5,21.66,3.63,11.27,4.62,10.15,8.86,18.99,1.54,3.21,3.42,5.54,4.98,9.07,3.91,8.81,3.12,6.69,5.8,15.1.49,1.54,1.39,3.24,1.88,5.08.72,2.71,1.18,8.86,3.52,9.93,0-9.1-1.28-11.48-3.58-19.44-1.54-5.31-6.3-14.45-6.84-16.45,5.57-.25,7.52-.56,12.22,1.08,3.29,1.14,6.22,3.27,7.64,6.25.73,1.54.7,22.91.7,26.59,0,3.66.48,3.25-1.28,5.74-2.6,3.67-5.56,9.5-7.79,12.83-1.87,2.78-4.13,4.96-6.23,7.54-1.16,1.42-1.94,2.4-3.25,3.63-3.89,3.67-13.33,1.45-17.4-.15-6.52-2.56-12.55-13.87-15.84-19.79-2.99-5.39-5.43-10.37-5.39-18.16.03-7.54,0-15.2,0-23.04,0-3.1-1.3-7.33-1.64-10.5-.35-3.29-.34-7.68-.99-10.61-.8-3.61-3.29-17.07-3.29-20.28h0Zm79.43,1.67c.47-2.4,2.11-3.53,3.77-4.65,1.28-.86,3.48-2.94,5.49-2.94,4.77,0,9.48.41,12.26,5.11,1.09,1.84,3.71,8.33,3.45,10.35-.41-.12-3.66-3.16-4.78-3.94-4.8-3.34-15.37-5.87-20.2-3.93h0Zm23.36-47.01c-2.13,1.1-5.1,12.84-5.87,15.94-1.33,5.39-3.1,12.9-3.13,19.05.6,1.1,8.54.98,11.98,8.29,4.08,8.66,4.35,12.96,4.35,21.91,0,5.92-3.6,21.28-5.94,25.67-1.91,3.59-4.27,6.13-6.72,9.12-.67.82-1.12,1.28-2.42,1.26-2.51-.03-.95.19-3.03.78-3.79,1.07-6.48-3.59-2.15-6.64,1.8-1.27,3.46-.18,4.84.34,1.25-1.86,3.06-3.36,4.57-5.88,3.37-5.63,6.06-20.3,6.06-26.14,0-4.35-7.4-9.07-11.22-10.51-6.51-2.44-11.69-2.39-18.33-.32-1.76,3.76-5.09,16.32-5.09,21.29s.01,15.1,2.61,19.28c2.97.27,5.84.26,5.84,3.45,0,1.28-3.5,7.57-9.8-.7-1.87-2.45-3.44-10.65-3.44-14.26v-8.38c0-8.45,6.19-27.62,12.52-33.29,2.1-1.88,6.51-5.28,10.23-5.35.65-1.94,1.34-12.77,3.67-20.73,1-3.41,1.87-6.35,2.91-9.42.7-2.06,3.46-7.66,3.61-8.98-7.61,3.76-15.4,7.22-22.92,10.85s-16.57,7.09-20.01,13.82c-3.85,7.52-7.27,15.26-10.75,23.04-.91,2.04-1.9,3.8-2.82,5.58-1,1.93-1.65,4.1-2.6,6.05-1.73,3.55-4.11,8.12-6.18,10.96.3,3.01,2.58,5.55,3.75,7.98.94,1.95,2.88,6.84,3.81,7.88,1.26-.15,1.24-.53,2.5-.76,3.65-.68,11.21.18,15.11,2.57,1.61.98,2.82,2.59,3.79,3.12,0-5.82-.72-42.53.67-44.36,1.6,1.1,1.59,15.09,1.58,17.59-.03,6.71,1.01,14.15.91,21.83-.19,14.08,1.12,30.95,1.07,45.76-.03,9.67.86,17.83.85,28.41,0,4.4,0,9.93.3,14.33.52,7.68.58,13.75.55,21.27,0,1.29.03,2.13.15,3.4.22,2.18-.34,2.32,2.15,2.32.79,0,1.12-.28,1.79-.28l134.19.62c1.1-7.05,1.66-8.39,1.69-15.32,0-2.14-.77-3.63-.55-6.54.49-6.52.1-14.98.78-21.61.47-4.54-.23-10.04-.24-14.31l-.06-25.68c-3.61-1.3-4.72-.16-6.38-10.21-.4-2.42-.85-4.26-1.17-6.86-.58-4.63-1.11-4.53-1.11-9.31,0-1.39.51-6.29,1.17-7.07,2.3,3.83,4.56,27.72,6.91,29.27l7.74,1.15c6.41.46,12.49-.27,18.17-2.82,3.01-1.35,6.82-2.47,9.74-3.95,3-1.51,5.37-3.89,8.06-5.74,1.53-1.05,1.71-2.03,3.41-3.46,2.44-2.07,2.53-3.17,2.53-5.88,0-3.93-4.14-15.11-5.44-19.1-1.13-3.49-1.68-6.39-2.39-9.93-1.89-9.38-6.76-19.26-9.48-27.18-1.05-3.05-1.62-7.61-2.61-9.73-1.37-2.93-3.47-5.25-4.31-7.98-4.72,1.28-12.43,11.37-15.18,15.42-2.48,3.65-7.68,19.35-10.17,20.46.63-1.72.81-4.18,1.34-5.98,3.93-13.3,3.97-14.56,13.02-25.25.91-1.07,2.83-2.84,4.01-3.75.95-.74,4.46-2.67,4.7-2.95-4.41-2.72-15.76-7.33-21.58-9.08-7.66-2.29-15.18-6.32-22.9-8.31.2,1.55.91,2.81,1.24,4.34,1.4,6.52,1.58,15.8,1.58,22.32,0,8.18-1.9,16.76-3.43,24.17-.76,3.67-1.3,7.72-2.33,11.36-.55,1.95-.84,3.62-1.36,5.47-.46,1.61-1.69,3.97-1.86,5.06,2.97,3.01,5.32,5.52,5.32,11.07,0,6.49-5.91,13.09-13.47,13.09s-14.29-6.78-13.22-15.45c.47-3.82,3.08-7.23,5.53-8.93,4.4-3.05,5.82-2.12,11.58-2.1.46-1.6,1.03-2.55,1.42-3.99l3.07-13.73c1.02-5.96,3.14-12.75,3.38-19.14.28-7.48.87-13.3-.1-20.86-.63-4.84-1.57-15.74-6.09-16.63-.12,2.78-3.83,12.84-4.97,15.68-2.74,6.85-10.36,20.27-16.58,24.99-1.04.79-2.13,1.35-2.95,2.13-1.2,1.14-1.41,1.37-2.9,2.46-6.14,4.53-16.93,6-24.29,2.16-6.33-3.3-7.91-4.02-12.21-8.74-7.97-8.75-10.84-18.41-11.03-30.79h0Zm-97.37-20.53c.98-.9.67-.65,1.9-1.37,2.52-1.48,3.09-1.36,3.11,1.84.01,1.33.26,1.88.28,3.15-1.59-.5-4.72-2.29-5.28-3.63h0Zm-7.42,1.03c-4.69,1.7-3.65,2.06-4.19-2.19,1.27.17,3.66,1.61,4.19,2.19h0Zm-19.88-3.22c.83-.8.72-.35,1.72-.91,1.06-.59.24-.54,1.54-.88l-.13,2.54c-1.09-.18-2.35-.33-3.13-.75h0Zm-8.84-4.3l-1.27,1.38c1.28.51,4.5,1.59,6.29,1.31,1.93-.31,4.84-.8,5.83-2.08-1.96-1.09-4.49-1.79-6.73-2.81-1.92-.87-1.96.1-4.13,2.21h0Zm-9.2-.86c-.03-2.86,2.09-1.88,2.2-6.11,1.15.09,2.95,1.5,4.23,2.17,1.42.75,3.51,1.13,4.65,1.89-3.75,1.76-5.88,2.85-11.08,2.06h0Zm-1.87-3.32c.94-2,2.47-1.69.54-4.56-.48.25-.04.08-.44.5-.49.52.1.22-.62.58-2.22-1.16-.64-2.25-3.98-2.19-.21.53-.4.89-.67,1.41l-.91,1.26c1.01,1.39.84,1.49.84,3.7.87.36,1.12.83,2.12.44.95-.37.62-.81,2-1.33.9,1.24.02,1.05.3,1.66.58-.6.46-.71.82-1.47h0Zm25.2,31.75c-1.36-.88-1.23-1.8-1.47-3.82-.23-1.93-.82-2.36-.81-4.8,0-3.65.28-7.5.29-10.8l-5.01-1.16c1.31,5.58,1.67,12.88,1.62,19.43-.02,2.39-.13,2.91.96,4.41,1.31,1.81.11,1.74,1.76,3.64,6.73,7.71,7.32,7.28,12.65,19.62,1.03,2.39,2.58,4.54,3.79,6.99,1.43,2.88,1.41,5.67,2.48,8.29,1.28.35,9.86-.6,11.59-.95,4.16-.84,6.17-2.51,8.73-4.43l-2.96-10.54-1.44,2.92c-1.61-.83-.35-4.27-.03-5.91.42-2.11.94-4.23,1.05-6.69.13-2.86.12-4.15,0-7.18-.11-2.87-1.55-3.82-1.69-6.18-4.43,1.39-2.95,2.01-7.82.57-.37.62-2,3.34-1.92,3.99.22,1.68,1.71,2.9.05,5.21-1.13-.58-1.01-1.51-1.45-2.78-1.04-3.04-3.07-1.46.23-6.22,1.85-2.68-.45-2,.49-3.86,1.6-2.11,3.3,1.12,5.9,1.32,2.06.16,4.87-1.67,5.3-3.42-1.07-.93-4.71-2.75-6.07-3.5-3.44-1.89-3.66-5.73-10.78,3.1-.79.98-3.74,4.96-4.49,5.46-4.12,2.76.55-4.51.72-4.74,1.75-2.45,2.64-3.42,4.55-5.33,1.47-1.47,2.67-3.81,5.41-4.11,2.16-.23,5.01,2.08,6.47,3.02l1.95-3.4c-2.06-1.09-3.62-1.81-5.47-2.84-1.73-.97-3.15-2.47-4.86-3.29-2.15.77-3.1,1.74-5,2.85-2.59,1.49-2.9,1.01-3.79,4.03-3.43,11.64-6.39,11.09-5.47,7.62l2.61-7.25c1.54-3.86.08-6.97.05-11.34-.05-7,.94-5.56,3.05-10.1,1.43-3.07.9-8.52-1.61-10.03-1.82,1.9-5.01,11-6.58,12.94-1.09,1.33-1.98,2.22-1.91,4.79.08,2.75-.26,23.2-1.08,24.48h0Zm-5.65-31.57c.36-1.19,2.06-3.43,2.79-5.39.73-1.96.93-4.16,1.65-6.07.8.22,1.48,1.41,2.41,2.71,2.47,3.45.38,7.93-1.78,10.71l-5.08-1.96h0Zm105.61-57.52c0-4.79,10.54-2.87,14.86-3.33,3.66-.39,4.78-.42,5.08,3.4.09,1.16-.1,7.67-.64,8.22-1.25,1.38-6.32.61-8.81.88l-9.64.49c-.35-3.21-.86-6.43-.86-9.67h0Zm32.39-2.39c0-3.74,14.25-2.61,17.25-2.08,1.81.32,8.46.52,9.3,1.41,1.15,1.21.88,11.46-.97,13.23-.83.8-3.71.36-5.08.36-3.37,0-7.08-.14-10.4.06-2.25.14-7.22.08-8.8-1.27-1.45-1.24-1.29-9.06-1.29-11.71h0Zm44.42,10.92c-.59-1.21-.62-3.01-.3-3.81,1.17-2.88-2.95-4.28-6.38-9.08-1.93-2.71-6.07-11.14-6.07-14.96,1.06.01,8.67,2.02,9.89,2.44,4.29,1.48,13.02,5.16,15.48,9.04,1.41,2.23-.61,6.84-1.27,9.34-3.45-.26-5.08-.54-7.4,1.54-1.36,1.22-3.15,5.04-3.95,5.49h0Zm-74.82-26.16c1.43-.4,2.8-1.04,4.24-1.34l13.58-2.47c4.17-.6,21.67-1.32,26.49-.95l14.96,2.3c.52.87.21,3.06.49,4.44.25,1.24.99,2.65,1.45,3.86,1.02,2.66,1.87,4.9,3.34,7.43,3.18,5.5,6.17,5.73,6.44,9.72.71,10.53,1.43.72-1.09,17.22,2.76,1.87,2.77-.27,4.08-2.46,2.28-3.83,4.74-15.78,9.52-15.78,3.03,0,4.77,3.65,5.2,6.5.84,5.49-2.02,13.9-4.29,18.78-1.3,2.81-3.21,4.57-7.2,4.57s-3.41-3.32-6.51-3.9c-1.36,1.11-1.2,1.16-1.16,3.5l-.69,12.78c-1.05,8.87-4.76,8.81-5.22,12.97,2.93-.13,6.17-5.32,7.6-7.79,1.72-2.98,1.7-9.2,1.69-13.6l4.79.86c1.91,4.62.5,31.41,2.68,36.2.96,2.12,2.18,1.09,4.44,2.14,1.56.73,2.79,1.16,4.43,1.81-1.15,5.78-2.98,11.58-5.41,16.31-2.95,5.74-8.06,15.69-12.14,20.18-2.33,2.56-9.29,8.64-12.07,9.52-2.02.64-6.23,1.98-8.46,1.98-6.2,0-11.79-2.6-16.34-5.79-3.41-2.4-6.65-7.24-9.21-11.16-1.95-2.99-3.83-11.46-4.34-15.89-.31-2.67-.25-6.8-.64-9.54-.35-2.45,2.15-5.52,3.54-5.71.03,4.27.5,16.74,3.8,17.68l.26-12.98c.06-6.05,1-9.8.03-16-.63-4.03.46-2.29,3.16-2.29h3.89c.75,0,.72-.28,1.79-.28,1.58,0,1.36.28,2.08.28h4.5c.89,0,.77-.28,1.79-.28,2.33,0,6.87.09,8.52-1.46-1.23-1.84-8.42-1.14-11.46-1.38-3.56-.28-8.48-.35-12.06-.75-7.12-.8-18.18,1.5-23.13-2.22-4.74-3.57-4.57-14.6-4.86-21.08-.35-7.92-.41-17.05-1.42-24.67l16.1-1.28-2.58,18.19c-.28,1.93,1.62,2.27,3.36,2.27,2.73,0,13.62.08,14.9-.78-.24-1.55-2.03-1.35-3.79-1.53-1.5-.15-2.92-.39-4.79-.57-6.13-.58-6.34,1.45-5.3-4.03.63-3.32.75-6.71,1.19-9.73,1.47-10.04,1.2-6.56.92-15.25,1.97-1.31,3.22-.62,5.28-.05.36,6.07-.17,7.76,3.23,11.14,2.7,2.68,7.56,1.98,11.65,2.19,3.77.19,10.39.04,14.02-.37,3.75-.43,2.69-.6,4.5-2.8,1.09-1.32,1.28-3.85,1.28-5.92,0-4.78.82-11.29-4.88-12.52-5.26-1.14-20.61-1.52-26.06.15-2.38.73-3.08,1.91-3.44,4.58-3.21-.5-1.65-1.22-5.74-.63-1.34-1.66-.7-1.89-3.11-2.86-1.65-.66-3.23-.76-4.99-.47-3.54.57-7.79.3-11.68.3-.34-2.86-1.23-8.7-1.2-11.27h0Zm.55-25.07c3.15-.36,3.48-1.47,8.3-1.4-.48.81-6.54,1.6-8.72,5.33-1.32,2.24-.14,1.26-.14,4.37,0,2.18-2.05,1.64-1.01,4.36,4.42-1.54,5.77-3.23,13.43-4.37,8.69-1.29,19.01-2.82,27.75-1.26,1.57.28,2.85-.09,3.2,1.26-.88,1.26-8.62.55-13.24,1.12-7.49.91-31.82,2.84-31.82,11.45,0,.87.2,1.16.42,1.93,2.58-.93-.09-.9,7.29-2.84,15.72-4.14,23.42-3.62,39.49-3.62l13.73,2.08c2.5.45,4.08,1,6.47,1.73,2.13.65,4.45.95,6.43,1.6,12.38,4.03,10.21,4.67,15.93,8.33,3.02,1.93,3.46,6.84,3.46.67,0-1.85-4.3-6.04-5.5-7.01-2.05-1.66-14.24-7.07-17.2-7.92-1.84-.53-2.74-1.05-4.59-1.67-1.35-.45-4.36-.6-5.35-1.39,5.31-1.24,13.24,1.46,19.15,3.11,5.66,1.59,8.95,3.24,12.35,6.66,2-2.78.02-8.23.02-8.23,0-5.08,1.69-3.51.85-5.63-.92-2.32-2.01-1.54-1.69-6.64.23-3.69.55-3.02.56-8.08,0-1.98-1.63-8.69-2.28-10.35-2.72-6.98-3.51-5.35-5.29-7.24-1.99-2.12-4.11-4.24-6.96-5.58-1.93-.91-7.58-2.99-9.65-2.8,4.1,2.58,7.76,4.7,10.94,8.06-1.58-.33-5.61-3.07-7.81-3.85-2.66-.95-5.68-2.22-8.39-3.32-1.71-.69-2.39-.88-4.31-1.35-2.68-.65-5.07-3.3-14.75-3.3-8.36,0-4.25.11-11.37,1.53-1.69.34-1.84.76-3.36,1.2-6.2,1.8-3.58.25-9.66,3.81-2.82,1.65-3.18,1.78-5.53,3.72-5.07,4.21-5.14,3.54-7.7,10.56-2.82,7.73-1.98,9.04-3.45,14.95h0Zm76.32-23.96c-.25.18.42-.3,0,0h0Zm12.96,70.91c.27-1.83.89-2.2,1.37-6.69.33-3.08,2.17-1.93,3.2-4.93,2.46-7.12-2.36-8.81-1.86-11.78.42-2.54,1.32-4.12,1.26-6.88-.03-1.43-.51-2.5-.16-3.65.34-1.13,1-1.41,1.34-2.56.63-2.1-1.4-4.33-1.7-5.87-.39-2.01.38-5.13.5-7.06.19-2.98-1.36-11.45-2.28-14-1.74-4.84-3.4-6.36-6.64-9.18-2.91-2.54-5.07-5.14-9.02-6.84-5.09-2.2-17.54-2.1-20.37-3.52-2.57-1.29-3.13-1.47-5.97-2.11-4.08-.92-10-.99-14.43-.74-3.9.23-8.75,2.33-12.63,3.38-3.13.85-3.23.47-5.75,2.38-1.35,1.02-3.38,1.86-4.85,2.91-1.46,1.04-2.81,2.48-4.4,3.69-10.89,8.24-7.84,25.48-10.18,29.6-1.97,3.47.38,3.66-1.45,6.01-1.46,1.87-.68,3.7.52,5.47-2.18,3.32-3.99,6.31-.94,10.66,1.79,2.56,1.58,1.39,1.8,5.18.13,2.31.29,5.03.29,7.09-3.38,1.62-2.97,5.05-2.81,9.37.07,1.84.59,3.75.87,5.68.47,3.23,1.28,2.09,2.51,3.89,0,6.18.28,12.64.27,19.15,0,2.87.49,6.46.58,9.25.11,3.39.01,5.91.37,9.18.52,4.75,3.82,10.1,7.48,11.99,6.09,3.15,9.09,1.8,17.08,2.14l.38,9.21c-3.12,1.72-3.36,1.03-6.06,3.81-1.98,2.03-3.25,2.28-6.03,3.5-4.84,2.13-8.6,3.96-13.2,6.01-6.02,2.68-21.29,9.11-25.73,12.83-1.61,1.35-3.38,3.36-4.81,5.08-2.55,3.07-7.07,15.13-9.17,19.52-1.04,2.19-1.67,4.52-2.74,6.86-1.73,3.78-7.71,17.33-9.63,19-1.98-4.81-4.19-9.17-5.48-14.52-1.89-7.85-4.48-15.4-6.68-23.17-1.54-5.42-.72-2.16-.09-7.46,1.38-11.46-1.08-11.31-3.03-16.2.98-.8,2.32-2.32,1.54-4.46-.61-1.68-1.74-.6-2.68-3.59-.55-1.73,3.66-6.55-1.68-8.14,0-3.71-.7-9.45-3.22-10.55-2.13-.93-3.6.29-5.06,1.07-2.14,1.15-2.19,1.62-2.92,4.01l-8.8-3.97c.62-5.36,6.28-7.26,3.39-14.97-.41-1.11-.97-2.75-1.59-3.5-.51-.6-2.28-1.76-3.21-1.73-2.01.06-3.12,3.79-4.52,5.25-1.5-2.62-3.07-6.65-6.54-6.72-2.73,1.14-3.76,11.38-6.28,13.8-2.29-.87-4.71-1.41-7.08-2.38-2.45-1.01-3.95-1.98-6.5-2.82-1.81-.6-1.49-1.11-3.3-1.11-2.16,0-1.54-1.05-3.65-.68-1.51.27-4.57,2.66-4.66,4.69-.11,2.57-.53,5.77,2.26,6.76,1.16.41,2.8.22,4,.78,1.23.59,1.69,1.01,3.01,1.53,4.11,1.6,10.82,2.67,14.3,4.53.4,2.4.48,6.01.69,8.52,1.12,13.32-1.09,12.87,5.04,21.92,1.23,1.82,2.54,3.35,3.84,5.14,3.96,5.43,5.83,11.94,9.39,17.53,4.4,6.91,3.52,14.06,5.39,21.8.87,3.62,2.06,11.91,2.23,15.85.36,7.96,2.68,17.77,1.9,24.78-1.14,10.23-.23,25.18,3.91,31.77,2.44,3.89,4.31,7.76,6.86,11.13,6.59,8.72,8.25,14.03,20.49,15.46,6.49.75,10.36.63,14.46-2.78,1.84-1.53,6.72-7.48,8.32-9.62,1.51-2.01,6.15-10.3,7.13-11.03.1,6.21.3,11.69.3,17.77,0,5.15-.45,12.94.17,17.74.67,5.24-.21,12.32.12,17.84.33,5.59.33,11.48,0,17.11,5.78.82,31.56.95,38.81.95,26.32,0,51.93.56,78.36.56l28.52.62c3.44-.72,5.73-.11,9.15-.05,3.17.05,18.21.44,18.62.34,2.07-.49,5.87-10.68,6.92-12.84,1.02-2.09,2.37-4.08,3.37-6.52,1-2.45,1.65-4.68,2.64-7.26,1.84-4.76,3.73-9.22,5.62-14.02,3.78-9.59,8.46-18.97,8.5-30.95.02-4.81-2.62-11.3-3.35-16.43-.43-3-1.08-5.27-1.61-8.19-1.17-6.42-1.29-4.05-2.38-7.43,2.09-2.98,4.61-3.57,4.21-9.23-.54-7.49-3.39-13.86-5.71-20.92-1.19-3.62-1.75-6.84-2.78-10.44-2.05-7.18-3.92-12.92-7.09-19.58-1.39-2.92-2.66-6.14-3.74-9.34-1.78-5.29-.28-6.24-2.43-10.19-5.66-10.4-4.67-7.46-14.08-12.52l-9.62-3.91c-3.14-1.07-6.58-1.98-9.86-3.22-6.79-2.57-12.8-4.68-19.69-6.86-2.61-.83-2.17-1.21-3.69-2.98-3.33-3.87-7.61-6.37-13.39-6.37l-1.65-25.59c-.13-1.58-.17-2.69-.33-4.13-.19-1.6-.63-2.4-.84-3.62.62-.92,4.18-1.79,6.65-5.94,4.44-7.47,8.17-21.8,2.09-28.4Z"/>
          <path class="cls-11" d="m256.03,150.03c1.92-3.18,8.37-1.12,8.3,1.75-.73.44-1.01.25-1.9-.11-3.18-1.27-3.18-.34-4.96-.77-1.1-.27-.64-.45-1.44-.87h0Zm-9.02-11.09c-1.43,2.67,6.79,7.25,12.75,7.25,4.01,0,9.27-1.52,11.97-3.46,2.9-2.08,4.21-4.46,6.25-7.47.68.72.72,1.05,2.1,1.07,3.15-5.99-6.13-8.03-5.55-5.35.19.89.77.8,1.47,1.09-1.59,2.81-2.95,3.68-5.04,5.68-10.28,9.81-23.18,1.26-23.94,1.19h0Zm57.16-14.47c1.78-1.69,3.39.15,4.05-3.11.42-2.08-.78-2.64.09-5.86.72-2.68,2.57-8.74,5.29-8.74,5.03,0,4.46,5.4,3.93,6.19l-2.73-3.09c-.73.35-1.62,1.86-1.62,2.65,0,1.48,2.31,2.24,1.69,7.21-1.66-.66-1.52-2.91-3.1-3.66-.68,5.1.58,4.77-1.08,7.61-1.39,2.38-5.78,3.3-6.51.81h0Zm-74.07-43.06c-.03,2.57.85,8.41,1.2,11.27,3.89,0,8.14.27,11.68-.3,1.76-.29,3.34-.19,4.99.47,2.41.96,1.77,1.2,3.11,2.86,4.08-.58,2.53.13,5.74.63.36-2.67,1.06-3.84,3.44-4.58,5.45-1.68,20.8-1.3,26.06-.15,5.69,1.24,4.88,7.74,4.88,12.52,0,2.08-.19,4.6-1.28,5.92-1.82,2.2-.75,2.37-4.5,2.8-3.63.42-10.25.57-14.02.37-4.1-.21-8.95.49-11.65-2.19-3.4-3.38-2.88-5.07-3.23-11.14-2.06-.57-3.31-1.26-5.28.05.28,8.69.55,5.21-.92,15.25-.44,3.03-.56,6.41-1.19,9.73-1.04,5.48-.83,3.45,5.3,4.03,1.87.18,3.3.42,4.79.57,1.76.18,3.55-.02,3.79,1.53-1.29.86-12.18.78-14.9.78-1.74,0-3.64-.35-3.36-2.27l2.58-18.19-16.1,1.28c1,7.62,1.07,16.75,1.42,24.67.29,6.48.12,17.52,4.86,21.08,4.95,3.72,16.01,1.42,23.13,2.22,3.57.4,8.49.46,12.06.75,3.04.24,10.23-.46,11.46,1.38-1.65,1.54-6.19,1.46-8.52,1.46-1.03,0-.9.28-1.79.28h-4.5c-.73,0-.51-.28-2.08-.28-1.07,0-1.04.28-1.79.28h-3.89c-2.7,0-3.8-1.75-3.16,2.29.98,6.21.03,9.95-.03,16l-.26,12.98c-3.3-.94-3.78-13.42-3.8-17.68-1.39.2-3.89,3.26-3.54,5.71.39,2.73.34,6.87.64,9.54.51,4.44,2.39,12.9,4.34,15.89,2.56,3.92,5.8,8.76,9.21,11.16,4.55,3.2,10.14,5.79,16.34,5.79,2.22,0,6.43-1.33,8.46-1.98,2.78-.88,9.74-6.96,12.07-9.52,4.08-4.48,9.19-14.44,12.14-20.18,2.43-4.73,4.26-10.53,5.41-16.31-1.64-.65-2.87-1.08-4.43-1.81-2.26-1.05-3.48-.02-4.44-2.14-2.17-4.78-.77-31.58-2.68-36.2l-4.79-.86c0,4.4.02,10.62-1.69,13.6-1.43,2.47-4.66,7.66-7.6,7.79.46-4.16,4.16-4.11,5.22-12.97l.69-12.78c-.03-2.34-.2-2.39,1.16-3.5,3.1.59,2.36,3.9,6.51,3.9s5.89-1.76,7.2-4.57c2.27-4.89,5.13-13.29,4.29-18.78-.44-2.85-2.17-6.5-5.2-6.5-4.78,0-7.24,11.95-9.52,15.78-1.3,2.19-1.32,4.33-4.08,2.46,2.52-16.5,1.8-6.69,1.09-17.22-.27-4-3.26-4.22-6.44-9.72-1.47-2.54-2.32-4.77-3.34-7.43-.46-1.21-1.2-2.61-1.45-3.86-.28-1.38.03-3.57-.49-4.44l-14.96-2.3c-4.82-.38-22.33.34-26.49.95l-13.58,2.47c-1.44.31-2.81.94-4.24,1.34Z"/>
          <path class="cls-8" d="m306.97,32.39c.42-.3-.25.18,0,0h0Zm-76.32,23.96c1.46-5.91.63-7.22,3.45-14.95,2.56-7.02,2.64-6.35,7.7-10.56,2.34-1.94,2.71-2.08,5.53-3.72,6.08-3.56,3.46-2.01,9.66-3.81,1.52-.44,1.67-.86,3.36-1.2,7.12-1.42,3.01-1.53,11.37-1.53,9.68,0,12.07,2.65,14.75,3.3,1.92.46,2.6.65,4.31,1.35,2.71,1.1,5.72,2.37,8.39,3.32,2.2.78,6.23,3.52,7.81,3.85-3.18-3.35-6.84-5.48-10.94-8.06,2.07-.2,7.72,1.89,9.65,2.8,2.85,1.34,4.97,3.46,6.96,5.58,1.78,1.89,2.57.26,5.29,7.24.65,1.66,2.28,8.36,2.28,10.35,0,5.05-.34,4.39-.56,8.08-.31,5.1.77,4.31,1.69,6.64.84,2.12-.85.55-.85,5.63,0,0,1.98,5.45-.02,8.23-3.4-3.42-6.68-5.07-12.35-6.66-5.91-1.66-13.83-4.35-19.15-3.11.99.79,4,.94,5.35,1.39,1.85.62,2.75,1.14,4.59,1.67,2.96.85,15.15,6.26,17.2,7.92,1.2.97,5.5,5.16,5.5,7.01,0,6.17-.44,1.26-3.46-.67-5.72-3.67-3.56-4.3-15.93-8.33-1.99-.65-4.3-.95-6.43-1.6-2.39-.72-3.97-1.28-6.47-1.73l-13.73-2.08c-16.07,0-23.77-.52-39.49,3.62-7.38,1.94-4.71,1.92-7.29,2.84-.21-.77-.42-1.06-.42-1.93,0-8.61,24.33-10.53,31.82-11.45,4.63-.56,12.36.14,13.24-1.12-.35-1.35-1.63-.98-3.2-1.26-8.75-1.56-19.07-.03-27.75,1.26-7.66,1.14-9.01,2.82-13.43,4.37-1.03-2.72,1.01-2.18,1.01-4.36,0-3.11-1.17-2.13.14-4.37,2.19-3.73,8.24-4.52,8.72-5.33-4.82-.07-5.16,1.03-8.3,1.4Z"/>
          <path class="cls-11" d="m144.74,232.93c0,3.21,2.48,16.66,3.29,20.28.65,2.93.64,7.32.99,10.61.34,3.17,1.64,7.4,1.64,10.5,0,7.84.03,15.5,0,23.04-.04,7.79,2.41,12.77,5.39,18.16,3.28,5.92,9.32,17.23,15.84,19.79,4.07,1.6,13.51,3.82,17.4.15,1.3-1.23,2.09-2.21,3.25-3.63,2.1-2.58,4.36-4.76,6.23-7.54,2.24-3.32,5.19-9.15,7.79-12.83,1.76-2.48,1.28-2.08,1.28-5.74,0-3.68.03-25.06-.7-26.59-1.41-2.98-4.35-5.11-7.64-6.25-4.7-1.64-6.65-1.32-12.22-1.08.54,2,5.3,11.14,6.84,16.45,2.3,7.96,3.58,10.34,3.58,19.44-2.34-1.07-2.8-7.22-3.52-9.93-.49-1.84-1.39-3.54-1.88-5.08-2.68-8.41-1.89-6.29-5.8-15.1-1.56-3.53-3.44-5.85-4.98-9.07-4.24-8.84-5.23-7.72-8.86-18.99-1.81-5.61-5.88-15.84-6.5-21.66-1.43.43-2.41,1.92-4.02,2.68-5.31,2.52-11.08,2.39-17.39,2.39Z"/>
          <path class="cls-11" d="m362.77,302.85c.12.83,3.02,6.74,3.65,8.61,1.43,4.28.58,5.7-.17,10.21-1.15,7.02-2.59,13.91-4.01,20.86-.41,2.02-6.82,40.39-6.82,42.71l23.68.34c2.47,0,5.15-7.89,6.18-9.94.9-1.78,2.16-3.68,2.9-5.2.91-1.88,1.54-3.66,2.24-5.5,2.98-7.84,6.16-15.18,9.13-22.87,10.44-26.94,4.18-24.47,2.39-38.82-.57-4.53-1.92-9.02-2.31-13.61-1.48.32-6.61,4.06-7.95,5.05-2.22,1.63-5.85,2.59-8.62,3.64-2.96,1.13-5.9,2.81-8.93,3.49-4.41.99-6.99.55-11.36,1.03Z"/>
          <path class="cls-1" d="m128.15,188.13c-1.36-.88-1.23-1.8-1.47-3.82-.23-1.93-.82-2.36-.81-4.8,0-3.65.28-7.5.29-10.8l-5.01-1.16c1.31,5.58,1.67,12.88,1.62,19.43-.02,2.39-.13,2.91.96,4.41,1.31,1.81.11,1.74,1.76,3.64,6.73,7.71,7.32,7.28,12.65,19.62,1.03,2.39,2.58,4.54,3.79,6.99,1.43,2.88,1.41,5.67,2.48,8.29,1.28.35,9.86-.6,11.59-.95,4.16-.84,6.17-2.51,8.73-4.43l-2.96-10.54-1.44,2.92c-1.61-.83-.35-4.27-.03-5.91.42-2.11.94-4.23,1.05-6.69.13-2.86.12-4.15,0-7.18-.11-2.87-1.55-3.82-1.69-6.18-4.43,1.39-2.95,2.01-7.82.57-.37.62-2,3.34-1.92,3.99.22,1.68,1.71,2.9.05,5.21-1.13-.58-1.01-1.51-1.45-2.78-1.04-3.04-3.07-1.46.23-6.22,1.85-2.68-.45-2,.49-3.86,1.6-2.11,3.3,1.12,5.9,1.32,2.06.16,4.87-1.67,5.3-3.42-1.07-.93-4.71-2.75-6.07-3.5-3.44-1.89-3.66-5.73-10.78,3.1-.79.98-3.74,4.96-4.49,5.46-4.12,2.76.55-4.51.72-4.74,1.75-2.45,2.64-3.42,4.55-5.33,1.47-1.47,2.67-3.81,5.41-4.11,2.16-.23,5.01,2.08,6.47,3.02l1.95-3.4c-2.06-1.09-3.62-1.81-5.47-2.84-1.73-.97-3.15-2.47-4.86-3.29-2.15.77-3.1,1.74-5,2.85-2.59,1.49-2.9,1.01-3.79,4.03-3.43,11.64-6.39,11.09-5.47,7.62l2.61-7.25c1.54-3.86.08-6.97.05-11.34-.05-7,.94-5.56,3.05-10.1,1.43-3.07.9-8.52-1.61-10.03-1.82,1.9-5.01,11-6.58,12.94-1.09,1.33-1.98,2.22-1.91,4.79.08,2.75-.26,23.2-1.08,24.48h0Zm22.01-21.07c.98-.9.67-.65,1.9-1.37,2.52-1.48,3.09-1.36,3.11,1.84.01,1.33.26,1.88.28,3.15-1.59-.5-4.72-2.29-5.28-3.63h0Zm-27.67-10.49c.36-1.19,2.06-3.43,2.79-5.39.73-1.96.93-4.16,1.65-6.07.8.22,1.48,1.41,2.41,2.71,2.47,3.45.38,7.93-1.78,10.71l-5.08-1.96Z"/>
          <path class="cls-10" d="m260.5,96.65c0,2.65-.16,10.47,1.29,11.71,1.58,1.35,6.55,1.41,8.8,1.27,3.33-.2,7.03-.06,10.4-.06,1.37,0,4.25.44,5.08-.36,1.85-1.77,2.12-12.02.97-13.23-.84-.88-7.48-1.09-9.3-1.41-3-.53-17.25-1.66-17.25,2.08h0Zm-32.39,2.39c0,3.24.51,6.45.86,9.67l9.64-.49c2.49-.26,7.56.5,8.81-.88.54-.55.73-7.06.64-8.22-.3-3.83-1.42-3.79-5.08-3.4-4.32.45-14.86-1.46-14.86,3.33Z"/>
          <path class="cls-7" d="m264.07,109.28c.7.15,1.47.24,2.24.31l8.85-15.33c-.7-.06-1.49-.12-2.32-.17l-8.77,15.19h0Zm4.61.4l8.75-15.16c.11.02.22.04.31.05.84.15,2.73.27,4.59.45l-8.37,14.5c-1.15,0-2.28.04-3.38.1-.52.03-1.17.05-1.9.05Z"/>
          <path class="cls-7" d="m239.11,95.76l-7.4,12.81-2.49.13,7.5-12.99c.81.01,1.62.03,2.39.05h0Zm7.59.04c-.78-.38-1.95-.27-3.73-.08-.43.04-.92.07-1.45.07l-7.31,12.65,4.4-.23c.29-.03.61-.05.95-.06l7.14-12.36Z"/>
          <path class="cls-2" d="m304.91,107.57c.8-.45,2.59-4.27,3.95-5.49,2.33-2.08,3.95-1.8,7.4-1.54.66-2.5,2.68-7.11,1.27-9.34-2.46-3.88-11.19-7.57-15.48-9.04-1.21-.42-8.82-2.43-9.89-2.44,0,3.82,4.14,12.25,6.07,14.96,3.43,4.81,7.55,6.2,6.38,9.08-.32.8-.29,2.6.3,3.81Z"/>
          <path class="cls-3" d="m275.99,132.07c-1.59,2.81-2.95,3.68-5.04,5.68-10.28,9.81-23.18,1.26-23.94,1.19-1.43,2.67,6.79,7.25,12.75,7.25,4.01,0,9.27-1.52,11.97-3.46,2.9-2.08,4.21-4.46,6.25-7.47.68.72.72,1.05,2.1,1.07,3.15-5.99-6.13-8.03-5.55-5.35.19.89.77.8,1.47,1.09Z"/>
          <path class="cls-10" d="m311.47,266.24c0-5.15,11.37-7.14,11,1.51-.14,3.2-2.26,5.16-5.59,5.12-2.47-.03-5.41-2.41-5.41-4.84v-1.79h0Zm2.82.9c0,4.34,5.63,3.46,5.63.6,0-5.28-5.63-3.87-5.63-.6h0Zm1.69,8.32h2.39c2.74,0,6.9-4.04,6.9-6.83v-2.99c0-2.83-3.51-7.08-8.69-7.08-4.34,0-8.01,3.65-8.22,7.97-.22,4.57,3.18,8.93,7.62,8.93Z"/>
          <path class="cls-3" d="m304.16,124.47c.73,2.49,5.12,1.57,6.51-.81,1.66-2.84.4-2.5,1.08-7.61,1.58.75,1.44,3,3.1,3.66.62-4.97-1.69-5.73-1.69-7.21,0-.79.89-2.3,1.62-2.65l2.73,3.09c.53-.79,1.1-6.19-3.93-6.19-2.72,0-4.56,6.06-5.29,8.74-.87,3.22.34,3.78-.09,5.86-.67,3.26-2.27,1.42-4.05,3.11Z"/>
          <path class="cls-3" d="m314.29,267.14c0-3.27,5.63-4.68,5.63.6,0,2.86-5.63,3.74-5.63-.6h0Zm-2.82-.9v1.79c0,2.43,2.94,4.81,5.41,4.84,3.34.04,5.46-1.92,5.59-5.12.37-8.65-11-6.66-11-1.51Z"/>
          <path class="cls-4" d="m104.82,159.7c5.19.79,7.33-.29,11.08-2.06-1.14-.76-3.22-1.14-4.65-1.89-1.28-.67-3.08-2.08-4.23-2.17-.12,4.23-2.23,3.26-2.2,6.11h0Zm37.92,8.38c-.54-.57-2.92-2.01-4.19-2.19.54,4.24-.5,3.89,4.19,2.19h0Zm-19.88-3.22c.78.42,2.04.57,3.13.75l.13-2.54c-1.3.34-.48.29-1.54.88-1,.56-.89.1-1.72.91h0Zm-10.11-2.92l1.27-1.38c2.18-2.11,2.21-3.08,4.13-2.21,2.24,1.02,4.77,1.72,6.73,2.81-.99,1.28-3.91,1.78-5.83,2.08-1.79.28-5.01-.79-6.29-1.31Z"/>
          <path class="cls-9" d="m96.86,153.37c1.01,1.39.84,1.49.84,3.7.87.36,1.12.83,2.12.44.95-.37.62-.81,2-1.33.9,1.24.02,1.05.3,1.66.58-.6.46-.71.82-1.47.94-2,2.47-1.69.54-4.56-.48.25-.04.08-.44.5-.49.52.1.22-.62.58-2.22-1.16-.64-2.25-3.98-2.19-.21.53-.4.89-.67,1.41l-.91,1.26Z"/>
          <path class="cls-3" d="m256.03,150.03c.8.42.34.6,1.44.87,1.78.43,1.78-.5,4.96.77.89.36,1.17.55,1.9.11.07-2.87-6.39-4.92-8.3-1.75Z"/>
        </g>
        <path class="cls-6" d="m474.7,425.66c1.86-.57,3.85-.87,5.92-.87h11.32c4.97,0,9.54,1.9,12.96,5.04,3.43-3.15,8.05-5.04,13.08-5.04h11.64c10.46,0,18.87,8.12,18.92,18.64v1.45c.03,3.66,0,7.33,0,10.99v40.21c0,4.66-1.12,9.29-2.69,13.66-3.18,8.89-8.86,16.2-16.6,21.6-7.7,5.38-16.47,8.19-25.87,8.19-10.22,0-19.72-3.13-27.78-9.42-5.92-4.52-8.49-11.49-7.53-18.12-2.82,1.63-6.12,2.56-9.65,2.56h-11.55c-6.26,0-11.78-2.73-15.27-7.17-7.03,4.5-15.39,7.11-24.35,7.11-8.22,0-15.94-2.2-22.58-6.03-3.52,3.75-8.52,6.09-14.17,6.09h-6.6c-2.77,0-5.52-.41-8.18-1.16-2.71-.76-5.27-1.8-7.67-3.11-3.31,2.68-7.56,4.26-12.2,4.26h-11.5c-2.05,0-4.04-.32-5.89-.9-2.91.59-5.88.9-8.89.9-10.25,0-19.55-3.19-27.38-9.3-3.27,5.61-9.38,9.3-16.43,9.3h-11.55c-6,0-11.31-2.5-14.82-6.62-6.84,4.16-14.87,6.55-23.46,6.55-11.21,0-21.46-4.08-29.37-10.83-8.69,8.49-19.59,12.91-31.77,12.91-8.51,0-16.51-2.31-23.67-6.75-3.38,2.96-7.85,4.72-12.75,4.72h-11.5c-2.05,0-4.04-.32-5.89-.9-2.91.59-5.88.9-8.89.9-7.46,0-14.42-1.69-20.68-4.97-3.42,3.09-7.96,4.97-13.02,4.97h-19.79c-2.77,0-5.52-.41-8.18-1.16-7.45-2.09-13.82-6.3-18.63-12.37-4.94-6.23-7.55-13.62-7.55-21.58v-52.45c0-10.77,8.51-18.68,19.17-18.68h11.55c10.51,0,18.95,8.22,18.95,18.75v17.84c1.79-2.78,3.92-5.39,6.37-7.83,3.35-3.32,7.04-6.03,11-8.11-2.6-3.68-4.08-8.3-4.08-13.43v-96.25c0-13.34,11.03-23.44,24.15-23.44h25.99c19.53,0,36.72,7.15,50.91,20.54,6.49,6.13,11.64,12.96,15.34,20.44,9.77-7.68,21.34-11.68,34.17-11.68,15.37,0,28.99,5.59,39.92,16.39.46.45.91.91,1.35,1.38,3.66-4.36,8.1-8.16,13.3-11.18,15.48-8.98,36.38-9.29,53-3.35,11.31,4.05,17.1,10.51,17.17,23.08.03,5.77.6,13.12-1.73,18.41-1.16,2.62-2.87,4.96-5.04,6.84-3.63,3.14-7.66,4.52-11.88,4.73,5.5.41,10.08,2.81,13.37,6.49,4.06-3.95,9.74-6.24,16.2-6.24h13.12v-63.65c0-13.3,9.2-21.61,22.1-21.61h11.76c2.86,0,5.56.52,8.01,1.46,2.01-.57,4.14-.87,6.36-.87h15.69c11.96,0,20.89,9.46,20.89,21.27v7.32c2.62-.55,5.33-.83,8.11-.83h6.04c11.29,0,20.07,8.84,20.07,20.06v15.32c0,10.18-6.69,17.94-16.16,19.66l-3.87,21.71c-1.28,7.68-4.98,14.39-10.25,20.06-1.45,1.56-2.96,3.03-4.55,4.4,1.02-.39,2.07-.73,3.14-1.03,2.66-.75,5.41-1.16,8.18-1.16h4.29c3,0,5.82.66,8.32,1.84h0Zm-290.36,11.19c2.15-2.1,4.52-3.99,7.06-5.63-4.76-2.59-9.18-5.92-13.22-9.99-2.34-2.36-4.44-4.85-6.29-7.45-3.83,4.22-8.07,7.91-12.69,11.07.02.33.03.66.03,1v.29c9.43.83,17.96,4.48,25.13,10.72h0Zm60.68-2.27c4.45-4.59,9.94-7.85,16.2-9.6,1.03-.29,2.07-.53,3.12-.71-1.67-1.56-3.22-3.23-4.67-5-.58.63-1.18,1.26-1.79,1.88-4.72,4.75-9.96,8.52-15.64,11.27.96.68,1.88,1.4,2.78,2.16h0Zm-122.16-81.93v28.21c3.45-1.19,6.33-3.06,8.81-5.87,2.14-2.44,3.13-4.92,3.13-8.16s-1.19-5.89-3.36-8.4c-2.42-2.79-5.16-4.68-8.58-5.78h0Zm198.11,28.78c-1.99-.14-4.02-.5-6.05-1.02-2.42-.63-4.86-1.45-7.3-1.97-2.11-.45-3.94-.97-5.34.47-.53.95-.25,3.21.08,4.17.97,2.88,2.94,2.51,5.74,1.77,1.03-.27,2.12-.71,3.13-1.05,3.09-1.05,5.82-2.08,9.16-2.33.19-.01.38-.03.57-.04Z"/>
        <g>
          <g>
            <path class="cls-5" d="m91.36,312.87h25.99c14.92,0,28,5.3,39.24,15.9,11.24,10.6,16.86,23.31,16.86,38.14,0,11.39-3.53,21.77-10.6,31.14-7.07,9.37-16.05,15.88-26.95,19.51-3.73,1.28-7.27,2.15-10.6,2.65-2.55.38-4.56.59-6.04.59h-30.15c-3.35,0-4.89-1.84-4.89-5.26v-96.25c0-3.39,2.83-6.44,7.14-6.44h0Zm14.5,21.94v64.2h12.07c2.26,0,4.96-.44,8.1-1.32,7.36-2.06,13.5-5.87,18.41-11.46,4.91-5.57,7.36-12.05,7.36-19.39s-2.5-13.77-7.51-19.54c-5.01-5.79-11.14-9.6-18.41-11.46-3.04-.79-8.3-1.18-15.76-1.18h-3.98l-.29.15Z"/>
            <path class="cls-5" d="m178.76,381.34c0-10.8,3.83-20.03,11.49-27.68,7.66-7.66,16.84-11.49,27.54-11.49s20.22,3.83,27.98,11.49c7.76,7.66,11.63,16.93,11.63,27.83s-3.85,19.93-11.56,27.68c-7.71,7.75-16.96,11.63-27.76,11.63s-20.17-3.85-27.83-11.56c-7.66-7.71-11.49-17.01-11.49-27.9h0Zm21.65.07c0,4.88,1.72,9.03,5.15,12.47,3.44,3.41,7.61,5.13,12.52,5.13s8.96-1.74,12.44-5.2c3.49-3.49,5.23-7.61,5.23-12.39s-1.77-8.88-5.3-12.32c-3.53-3.41-7.71-5.13-12.52-5.13s-8.93,1.72-12.37,5.13c-3.44,3.44-5.15,7.53-5.15,12.32Z"/>
            <path class="cls-5" d="m353.44,398.72h19.97c.78-.2,1.87-.39,3.24-.59,2.16-.59,3.85-1.91,5.08-3.98,1.23-2.06,1.84-4.25,1.84-6.6v-69.48c0-4.12,2.03-4.61,5.1-4.61h11.76c3.1,0,4.79,2.23,4.79,5.11v70.43c0,2.65-.44,5.5-1.33,8.54-3.34,11.49-10.65,18.75-21.94,21.79-2.95.79-5.45,1.18-7.51,1.18h-20.46c-3.13,0-6.19-2.41-6.19-5.48v-11.08c0-3.82,2.33-5.24,5.66-5.24Z"/>
            <path class="cls-5" d="m412.92,348.01c5.86-3.44,8.79-7.35,8.79-11.73h-7.56c-2.43,0-3.63-1.35-3.63-3.76v-14.92c0-2.41,1.69-3.56,4.28-3.56h15.69c2.52,0,3.88,1.81,3.88,4.26v16.94c0,2.06-.34,4.32-1.03,6.77-1.83,6.62-6.67,11.81-14.53,15.57-2.64,1.27-3.64.23-4.4-1.09l-2.59-5.02c-.69-1.19-.79-2.38,1.1-3.48Z"/>
            <path class="cls-5" d="m416.49,398.61h6.28c.87,0,1.9-.55,3.11-1.66,1.2-1.11,1.9-2.1,2.1-2.96l5.49-30.5c1.06-5.78,4.22-10.84,9.47-15.18,5.25-4.34,10.77-6.51,16.55-6.51h6.04c2.06,0,3.07,1.39,3.07,3.06v15.32c0,2.01-.88,3.02-3.2,3.02h-4.89c-1.16,0-2.43.51-3.83,1.52-1.4,1.01-2.19,2.1-2.39,3.25l-5.49,30.79c-.67,4.05-2.65,7.81-5.93,11.28-5.69,6.17-11.81,9.49-18.36,9.97-.97.08-3.67.13-8.09.14-2.43,0-2.75-1.98-2.75-3.22v-15.33c0-1.84.99-2.98,2.83-2.98Z"/>
            <path class="cls-5" d="m280.89,346.46c11.09-6.43,26.9-6.28,38.74-2.04,4.46,1.59,5.87,1.98,5.9,7.17.01,1.9.23,10.28-.29,11.45-.14.32-.34.6-.6.83-1.33,1.15-3.89.47-5.41.08-2.69-.7-5.3-1.56-8.03-2.14-8.22-1.75-15.36-.76-21.38,5.6-5.17,5.45-5.85,14.22-3.55,21.08,3.96,11.81,14.6,15.86,26.2,12.8,1.41-.37,2.88-.92,4.26-1.39,1.2-.41,3.76-1.38,4.95-1.47,3.39-.25,4.25,2.41,4.32,5.24.07,2.67.11,5.5-.09,8.16-.19,2.4-.94,4.59-3.21,5.74-8.06,4.11-21.99,3.76-30.76,2.29-4.89-.82-9.39-2.79-13.34-5.79-9.47-7.2-14.54-19.31-15.3-30.96-.94-14.47,4.65-29.13,17.61-36.65Z"/>
          </g>
          <g>
            <path class="cls-5" d="m104.9,494.48c-4.23,2.05-8.5,3.07-12.8,3.07-7.76,0-14.39-2.79-19.89-8.34-5.5-5.55-8.25-12.22-8.25-20.02s2.77-14.53,8.31-20.02,12.22-8.24,20.05-8.24c5.85,0,11.23,1.71,16.14,5.13,4.9,3.42,8.34,7.88,10.32,13.39,1.13,3.17,1.69,5.82,1.69,7.94v28.39c0,1.07-.79,1.77-2.07,1.77h-11.5c-1.05,0-1.98-.57-1.98-1.74v-1.33h0Zm-25.4-25.29c0,3.46,1.25,6.44,3.76,8.94,2.5,2.5,5.48,3.76,8.94,3.76s6.44-1.25,8.94-3.76c2.5-2.5,3.76-5.48,3.76-8.94s-1.23-6.33-3.7-8.84c-2.47-2.5-5.43-3.76-8.89-3.76s-6.46,1.22-8.99,3.65c-2.54,2.43-3.81,5.41-3.81,8.94Z"/>
            <path class="cls-5" d="m276.19,443.45v10.4c0,1.43-.59,2.53-2.37,2.53h-3.55c-.92,0-1.57.33-1.96,1-.39.67-.58,1.04-.58,1.11v37.3c0,.99-.66,1.75-1.95,1.75h-11.55c-1.57,0-2.16-.61-2.16-1.68v-36.95c0-4.09,1.29-7.76,3.86-11,2.58-3.24,5.87-5.43,9.89-6.56,1.27-.35,2.47-.53,3.6-.53h4.29c1.68,0,2.49,1.34,2.49,2.62Z"/>
            <path class="cls-5" d="m60.89,494.93v-10.4c0-1.43-.59-2.53-2.37-2.53h-19.06c-.92,0-1.57-.34-1.96-1.01-.39-.67-.58-1.04-.58-1.11v-52.8c0-.99-.66-1.74-1.95-1.74h-11.55c-1.57,0-2.16.61-2.16,1.68v52.45c0,4.09,1.29,7.76,3.86,11.01,2.58,3.24,5.87,5.43,9.89,6.56,1.27.35,2.47.53,3.6.53h19.79c1.68,0,2.49-1.34,2.49-2.62Z"/>
            <path class="cls-5" d="m142.21,446.03c4.23-2.05,8.5-3.07,12.8-3.07,7.76,0,14.39,2.79,19.89,8.34,5.5,5.55,8.25,12.22,8.25,20.02s-2.77,14.53-8.31,20.02c-5.54,5.48-12.22,8.24-20.05,8.24-5.85,0-11.23-1.71-16.14-5.13-4.9-3.42-8.34-7.88-10.32-13.39-1.13-3.17-1.69-5.82-1.69-7.94v-47.24c0-1.07.79-1.77,2.07-1.77h11.5c1.05,0,1.98.57,1.98,1.74v20.18h0Zm25.4,25.29c0-3.46-1.25-6.44-3.76-8.94-2.5-2.5-5.49-3.76-8.94-3.76s-6.44,1.25-8.94,3.76c-2.5,2.5-3.76,5.49-3.76,8.94s1.23,6.33,3.7,8.83c2.47,2.5,5.43,3.76,8.89,3.76s6.46-1.22,9-3.65c2.54-2.43,3.81-5.41,3.81-8.94Z"/>
            <path class="cls-5" d="m215.94,441c15.6,0,28.24,12.64,28.24,28.24s-12.65,28.24-28.24,28.24-28.24-12.64-28.24-28.24,12.65-28.24,28.24-28.24h0Zm0,15.69c-6.94,0-12.56,5.62-12.56,12.56s5.62,12.56,12.56,12.56,12.56-5.62,12.56-12.56-5.62-12.56-12.56-12.56Z"/>
            <path class="cls-5" d="m322.39,494.48c-4.23,2.05-8.5,3.07-12.8,3.07-7.76,0-14.39-2.79-19.89-8.34-5.5-5.55-8.25-12.22-8.25-20.02s2.77-14.53,8.31-20.02c5.54-5.48,12.22-8.24,20.05-8.24,5.86,0,11.23,1.71,16.14,5.13,4.9,3.42,8.34,7.88,10.32,13.39,1.13,3.17,1.69,5.82,1.69,7.94v28.39c0,1.07-.79,1.77-2.08,1.77h-11.5c-1.05,0-1.98-.57-1.98-1.74v-1.33h0Zm-25.4-25.29c0,3.46,1.25,6.44,3.76,8.94,2.5,2.5,5.48,3.76,8.94,3.76s6.44-1.25,8.94-3.76c2.5-2.5,3.76-5.48,3.76-8.94s-1.23-6.33-3.7-8.84c-2.47-2.5-5.43-3.76-8.89-3.76s-6.45,1.22-8.99,3.65c-2.54,2.43-3.81,5.41-3.81,8.94Z"/>
            <path class="cls-5" d="m373,494.93v-10.4c0-1.43-.59-2.53-2.37-2.53h-5.86c-.92,0-1.57-.34-1.96-1.01-.39-.67-.58-1.04-.58-1.11v-53.85c0-.99-.66-1.74-1.95-1.74h-11.55c-1.57,0-2.16.61-2.16,1.68v53.49c0,4.09,1.29,7.76,3.86,11.01,2.57,3.24,5.87,5.43,9.89,6.56,1.27.35,2.47.53,3.6.53h6.6c1.68,0,2.48-1.34,2.48-2.62Z"/>
            <path class="cls-5" d="m353.48,453.79h17.78c.99,0,1.74-.66,1.74-1.95v-11.55c0-1.57-.61-2.16-1.68-2.16h-17.85v15.66Z"/>
            <path class="cls-5" d="m407.27,441c15.6,0,28.24,12.64,28.24,28.24s-12.65,28.24-28.24,28.24-28.24-12.64-28.24-28.24,12.65-28.24,28.24-28.24h0Zm0,15.69c-6.94,0-12.56,5.62-12.56,12.56s5.62,12.56,12.56,12.56,12.56-5.62,12.56-12.56-5.62-12.56-12.56-12.56Z"/>
            <path class="cls-5" d="m468.87,443.45v10.4c0,1.43-.59,2.53-2.37,2.53h-3.55c-.92,0-1.57.33-1.96,1-.39.67-.58,1.04-.58,1.11v37.3c0,.99-.66,1.75-1.95,1.75h-11.55c-1.57,0-2.16-.61-2.16-1.68v-36.95c0-4.09,1.29-7.76,3.86-11,2.57-3.24,5.87-5.43,9.89-6.56,1.27-.35,2.47-.53,3.6-.53h4.29c1.68,0,2.49,1.34,2.49,2.62Z"/>
            <path class="cls-5" d="m531.56,455.87v40.21c0,2.12-.56,4.76-1.69,7.94-1.98,5.5-5.41,9.96-10.32,13.39-4.9,3.42-10.28,5.13-16.14,5.13-6.62,0-12.43-1.97-17.41-5.9-1.22-.9-1.72-2.35-.16-3.76l8.1-7.11c1.22-.89,1.92-.96,3.73-.21,1.75.88,3.66,1.32,5.74,1.32,3.46,0,6.42-1.25,8.89-3.76,1.99-2.02,3.18-4.33,3.57-6.92-.99.37-2.37.84-4.15,1.43-1.8.58-4,.88-6.61.88-10.58,0-18.45-4.69-23.6-14.09-2.05-3.76-3.07-7.57-3.07-11.46v-29.43c0-1.12.75-1.73,2.19-1.73h11.32c.98,0,2.05.72,2.05,1.85v28.52c0,.14.14,1.06.42,2.75.71,2.33,2.05,4.23,4.02,5.71,1.98,1.48,4.16,2.22,6.56,2.22s4.67-.74,6.61-2.22c1.94-1.48,3.26-3.42,3.97-5.82.07-.28.18-.81.32-1.59v-29.7c0-1.06.91-1.73,2.09-1.73h11.64c1.21,0,1.92.65,1.92,1.72v1.45s0,3.63,0,10.9Z"/>
          </g>
        </g>
      </g>
      <path class="cls-7" d="m97.2,133.82c-.25-2.44-.36-5.49-.36-7.68s.1-3.51-.36-4.53c-.46-1.02-1.48-1.73-2.75-2.34s-2.8-1.12-3.81-2.29c-1.02-1.17-1.53-3-1.32-4.78.2-1.78,1.12-3.51,2.34-5.29,1.22-1.78,2.75-3.61,3.2-5.29.46-1.68-.15-3.2-1.32-4.63-1.17-1.42-2.9-2.75-4.12-4.47-1.22-1.73-1.93-3.86-2.19-5.64-.25-1.78-.05-3.2-1.32-4.22-1.27-1.02-4.02-1.63-6.46-1.58-2.44.05-4.58.76-6.66-.56-2.09-1.32-4.12-4.68-4.07-7.27.05-2.59,2.19-4.42,4.47-5.29,2.29-.86,4.73-.76,7.53-.76s5.95-.1,7.27-1.32c1.32-1.22.81-3.56.66-5.69-.15-2.14.05-4.07.61-5.24.56-1.17,1.47-1.58,3.15-1.78,1.68-.2,4.12-.2,6.66-1.37,2.54-1.17,5.19-3.51,4.78-5.75-.41-2.24-3.86-4.37-6.81-6-2.95-1.63-5.39-2.75-6.25-4.68-.86-1.93-.15-4.68.76-6.92.92-2.24,2.03-3.97,2.64-5.49.61-1.53.71-2.85.71-4.12s-.1-2.49-.1-6.25.1-10.07.31-11.95c.2-1.88.51.66.66,3.41.15,2.75.15,5.69.15,7.63s0,2.85.31,3.61c.3.76.92,1.37,1.22,2.09.3.71.3,1.53.2,2.39-.1.86-.3,1.78-.56,2.8-.25,1.02-.56,2.14-.56,3.36s.31,2.54.15,3.56c-.15,1.02-.76,1.73-.51,2.34.25.61,1.37,1.12,2.59,1.53,1.22.41,2.54.71,4.42,1.32,1.88.61,4.32,1.53,5.54,2.69,1.22,1.17,1.22,2.59,2.24,3.97,1.02,1.37,3.05,2.69,5.49,3.76,2.44,1.07,5.29,1.88,6.61,3.3,1.32,1.42,1.12,3.46-.41,4.68-1.53,1.22-4.37,1.63-6.56,1.68-2.19.05-3.71-.25-4.73.36s-1.53,2.14-1.83,3.36c-.31,1.22-.41,2.14-2.29,2.49-1.88.36-5.54.15-8.09.15s-3.97.2-4.53,1.07c-.56.86-.25,2.39.41,3.81s1.68,2.75,2.19,3.86c.51,1.12.51,2.03-.46,2.64-.97.61-2.9.92-4.78,1.22-1.88.31-3.71.61-3.76,1.68-.05,1.07,1.68,2.9,3.15,3.86,1.47.97,2.69,1.07,4.37,1.83,1.68.76,3.81,2.19,4.53,3.46.71,1.27,0,2.39-.46,3.71-.46,1.32-.66,2.85.05,4.17.71,1.32,2.34,2.44,3.46,4.22s1.73,4.22.97,6.1c-.76,1.88-2.9,3.2-4.83,4.42-1.93,1.22-3.66,2.34-4.32,3.36-.66,1.02-.25,1.93.36,2.75.61.81,1.42,1.52,2.54,2.24,1.12.71,2.54,1.42,3.31,2.54.76,1.12.86,2.64.56,4.02-.31,1.37-1.02,2.59-1.63,4.07-.61,1.47-1.12,3.2-1.32,5.54-.2,2.34-.1,5.29-.26,5.85-.15.56-.56-1.27-.81-3.71h0Zm-4.82-101.63c-.03.97.06,2.15.94,3.24.87,1.09,2.52,2.09,4.19,2.94,1.67.86,3.35,1.57,4.64,2.31,1.29.73,2.2,1.48,2.84,2.6.64,1.12,1.01,2.62,1.01,3.77s-.37,1.96-1.03,2.74-1.59,1.53-2.24,2.01-1.03.7-.72.65c.31-.05,1.31-.36,2.07-.84.76-.48,1.29-1.14,1.84-1.48.55-.34,1.11-.37,1.57-.36.47.02.84.08,1.45.16.61.08,1.45.17,1.88.03.44-.14.47-.51.34-.73-.12-.22-.41-.28-.9-.37-.5-.09-1.22-.22-1.64-.37-.42-.16-.55-.34-.48-.47.06-.12.31-.19.39-.36.08-.17-.02-.45-.31-.78-.3-.33-.79-.7-1.11-1.28-.31-.58-.44-1.36-.78-2.15-.34-.79-.9-1.6-1.84-2.31-.93-.7-2.24-1.29-3.54-1.88-1.29-.59-2.57-1.18-3.77-1.85-1.2-.67-2.32-1.42-3.05-2.1-.73-.69-1.07-1.31-1.25-2.23-.17-.92-.17-2.14-.25-2.37-.08-.23-.23.51-.27,1.48h0Zm-5.22,49.15c.06.22.49.81.77,1.35.28.54.4,1.02.5,1.67.1.65.17,1.47.3,2.27.12.8.3,1.57.55,2.17.25.6.57,1.03.92,1.46.35.43.72.86,1.08,1.24s.7.72,1.1,1.07.87.71,1.34,1.26c.47.55.96,1.31,1.31,2.04s.59,1.45.7,2.07c.11.62.09,1.14.04,1.7-.05.56-.14,1.17-.07,1.07.07-.1.3-.9.43-1.6.12-.7.14-1.29.09-1.78-.05-.49-.18-.89-.34-1.38-.16-.49-.36-1.08-.65-1.55-.29-.47-.69-.81-1.22-1.31-.54-.5-1.22-1.16-1.62-1.59-.4-.43-.53-.63-.63-.91s-.17-.66-.16-1.01c0-.35.1-.67,0-.89-.11-.22-.41-.32-.75-.47-.34-.15-.72-.35-.93-.68-.22-.33-.27-.8-.32-1.28s-.11-.98-.27-1.56c-.16-.57-.43-1.22-.72-1.78-.29-.56-.59-1.05-.89-1.36-.3-.31-.61-.46-.55-.23h0Zm-.64-12.91c-.65.43-1.3.82-2.39,1.04-1.09.22-2.61.26-3.8.26s-2.05-.04-2.87-.01c-.82.03-1.58.14-2.06.35-.48.21-.66.53-.96.76-.3.23-.73.38-1.25.67-.52.29-1.14.71-1.2,1.15-.06.44.44.89.97,1.18.54.29,1.11.41,1.14.64.03.23-.48.58-.85.98-.37.4-.6.85-.57,1.25.03.4.32.75.76.88.44.14,1.03.06,1.74.03.72-.03,1.56-.02,2.13.11.57.12.85.35,1.4.39.55.04,1.37-.09,2.12-.08.75.01,1.45.18,1.97.41s.87.51.89.41c.02-.11-.28-.6-.72-.91-.45-.3-1.03-.41-1.62-.46-.59-.05-1.18-.05-1.59-.13-.41-.08-.63-.23-.76-.41-.13-.18-.16-.39-.54-.54-.39-.15-1.13-.24-1.68-.26-.56-.02-.94.04-1.03-.08-.1-.13.08-.45.53-.63.44-.18,1.15-.23,1.45-.37.29-.14.17-.39-.14-.62-.32-.23-.83-.46-1.22-.68-.39-.22-.66-.43-.66-.69s.27-.58.28-.85c0-.26-.25-.48-.14-.69.11-.22.57-.45,1.16-.45s1.3.23,1.86.23c.56,0,.97-.2,1.33-.33.36-.12.68-.15,1.25-.14.57.01,1.38.08,2.22-.16.84-.23,1.7-.76,2.43-1.18.73-.42,1.34-.72,1.82-1.22.48-.51.85-1.21,1.03-1.75.18-.54.18-.9.08-.78-.11.11-.32.7-.75,1.23-.43.53-1.08,1-1.73,1.43Z"/>
    </g>
  </g>
</svg>