<?xml version="1.0" encoding="UTF-8"?>
<svg id="Layer_2" data-name="Layer 2" xmlns="http://www.w3.org/2000/svg" viewBox="0 0 544.32 243.68">
  <defs>
    <style>
      .cls-1 {
        fill: #9857a3;
      }

      .cls-1, .cls-2 {
        fill-rule: evenodd;
      }

      .cls-2 {
        fill: #010101;
      }
    </style>
  </defs>
  <g id="Layer_1-2" data-name="Layer 1">
    <path class="cls-2" d="M470.45,129.8c1.86-.57,3.85-.87,5.92-.87h11.32c4.97,0,9.54,1.9,12.96,5.04,3.43-3.15,8.05-5.04,13.08-5.04h11.64c10.46,0,18.87,8.12,18.92,18.64v1.45c.03,3.66,0,7.33,0,10.99v40.21c0,4.66-1.12,9.29-2.69,13.66-3.18,8.89-8.86,16.2-16.6,21.6-7.7,5.38-16.47,8.19-25.87,8.19-10.22,0-19.72-3.13-27.78-9.42-5.92-4.52-8.49-11.49-7.53-18.12-2.82,1.63-6.12,2.56-9.65,2.56h-11.55c-6.26,0-11.78-2.73-15.27-7.17-7.03,4.5-15.39,7.11-24.35,7.11-8.22,0-15.94-2.2-22.58-6.03-3.52,3.75-8.52,6.09-14.17,6.09h-6.6c-2.77,0-5.52-.41-8.18-1.16-2.71-.76-5.27-1.8-7.67-3.11-3.31,2.68-7.56,4.26-12.2,4.26h-11.5c-2.05,0-4.04-.32-5.89-.9-2.91,.59-5.88,.9-8.89,.9-10.25,0-19.55-3.19-27.38-9.3-3.27,5.61-9.38,9.3-16.43,9.3h-11.55c-6,0-11.31-2.5-14.82-6.62-6.84,4.16-14.87,6.55-23.46,6.55-11.21,0-21.46-4.08-29.37-10.83-8.69,8.49-19.59,12.91-31.77,12.91-8.51,0-16.51-2.31-23.67-6.75-3.38,2.96-7.85,4.72-12.75,4.72h-11.5c-2.05,0-4.04-.32-5.89-.9-2.91,.59-5.88,.9-8.89,.9-7.46,0-14.42-1.69-20.68-4.97-3.42,3.09-7.96,4.97-13.02,4.97h-19.79c-2.77,0-5.52-.41-8.18-1.16-7.45-2.09-13.82-6.3-18.63-12.37-4.94-6.23-7.55-13.62-7.55-21.58v-52.45c0-10.77,8.51-18.68,19.17-18.68h11.55c10.51,0,18.95,8.22,18.95,18.75v17.84c1.79-2.78,3.92-5.39,6.37-7.83,3.35-3.32,7.04-6.03,11-8.11-2.6-3.68-4.08-8.3-4.08-13.43V23.44c0-13.34,11.03-23.44,24.15-23.44h25.99c19.53,0,36.72,7.15,50.91,20.54,6.49,6.13,11.64,12.96,15.34,20.44,9.77-7.68,21.34-11.68,34.17-11.68,15.37,0,28.99,5.59,39.92,16.39,.46,.45,.91,.91,1.35,1.38,3.66-4.36,8.1-8.16,13.3-11.18,15.48-8.98,36.38-9.29,53-3.35,11.31,4.05,17.1,10.51,17.17,23.08,.03,5.77,.6,13.12-1.73,18.41-1.16,2.62-2.87,4.96-5.04,6.84-3.63,3.14-7.66,4.52-11.88,4.73,5.5,.41,10.08,2.81,13.37,6.49,4.06-3.95,9.74-6.24,16.2-6.24h13.12V22.2c0-13.3,9.2-21.61,22.1-21.61h11.76c2.86,0,5.56,.52,8.01,1.46,2.01-.57,4.14-.87,6.36-.87h15.69c11.96,0,20.89,9.46,20.89,21.27v7.32c2.62-.55,5.33-.83,8.11-.83h6.04c11.29,0,20.07,8.84,20.07,20.06v15.32c0,10.18-6.69,17.94-16.16,19.66l-3.87,21.71c-1.28,7.68-4.98,14.39-10.25,20.06-1.45,1.56-2.96,3.03-4.55,4.4,1.02-.39,2.07-.73,3.14-1.03,2.66-.75,5.41-1.16,8.18-1.16h4.29c3,0,5.82,.66,8.32,1.84h0Zm-290.36,11.19c2.15-2.1,4.52-3.99,7.06-5.63-4.76-2.59-9.18-5.92-13.22-9.99-2.34-2.36-4.44-4.85-6.29-7.45-3.83,4.22-8.07,7.91-12.69,11.07,.02,.33,.03,.66,.03,1v.29c9.43,.83,17.96,4.48,25.13,10.72h0Zm60.68-2.27c4.45-4.59,9.94-7.85,16.2-9.6,1.03-.29,2.07-.53,3.12-.71-1.67-1.56-3.22-3.23-4.67-5-.58,.63-1.18,1.26-1.79,1.88-4.72,4.75-9.96,8.52-15.64,11.27,.96,.68,1.88,1.4,2.78,2.16h0ZM118.62,56.79v28.21c3.45-1.19,6.33-3.06,8.81-5.87,2.14-2.44,3.13-4.92,3.13-8.16s-1.19-5.89-3.36-8.4c-2.42-2.79-5.16-4.68-8.58-5.78h0Zm198.11,28.78c-1.99-.14-4.02-.5-6.05-1.02-2.42-.63-4.86-1.45-7.3-1.97-2.11-.45-3.94-.97-5.34,.47-.53,.95-.25,3.21,.08,4.17,.97,2.88,2.94,2.51,5.74,1.77,1.03-.27,2.12-.71,3.13-1.05,3.09-1.05,5.82-2.08,9.16-2.33,.19-.01,.38-.03,.57-.04Z"/>
    <g>
      <g>
        <path class="cls-1" d="M87.11,17h25.99c14.92,0,28,5.3,39.24,15.9,11.24,10.6,16.86,23.31,16.86,38.14,0,11.39-3.53,21.77-10.6,31.14-7.07,9.37-16.05,15.88-26.95,19.51-3.73,1.28-7.27,2.15-10.6,2.65-2.55,.38-4.56,.59-6.04,.59h-30.15c-3.35,0-4.89-1.84-4.89-5.26V23.44c0-3.39,2.83-6.44,7.14-6.44h0Zm14.5,21.94V103.15h12.07c2.26,0,4.96-.44,8.1-1.32,7.36-2.06,13.5-5.87,18.41-11.46,4.91-5.57,7.36-12.05,7.36-19.39s-2.5-13.77-7.51-19.54c-5.01-5.79-11.14-9.6-18.41-11.46-3.04-.79-8.3-1.18-15.76-1.18h-3.98l-.29,.15Z"/>
        <path class="cls-1" d="M174.51,85.48c0-10.8,3.83-20.03,11.49-27.68,7.66-7.66,16.84-11.49,27.54-11.49s20.22,3.83,27.98,11.49c7.76,7.66,11.63,16.93,11.63,27.83s-3.85,19.93-11.56,27.68c-7.71,7.75-16.96,11.63-27.76,11.63s-20.17-3.85-27.83-11.56c-7.66-7.71-11.49-17.01-11.49-27.9h0Zm21.65,.07c0,4.88,1.72,9.03,5.15,12.47,3.44,3.41,7.61,5.13,12.52,5.13s8.96-1.74,12.44-5.2c3.49-3.49,5.23-7.61,5.23-12.39s-1.77-8.88-5.3-12.32c-3.53-3.41-7.71-5.13-12.52-5.13s-8.93,1.72-12.37,5.13c-3.44,3.44-5.15,7.53-5.15,12.32Z"/>
        <path class="cls-1" d="M349.19,102.85h19.97c.78-.2,1.87-.39,3.24-.59,2.16-.59,3.85-1.91,5.08-3.98,1.23-2.06,1.84-4.25,1.84-6.6V22.2c0-4.12,2.03-4.61,5.1-4.61h11.76c3.1,0,4.79,2.23,4.79,5.11V93.13c0,2.65-.44,5.5-1.33,8.54-3.34,11.49-10.65,18.75-21.94,21.79-2.95,.79-5.45,1.18-7.51,1.18h-20.46c-3.13,0-6.19-2.41-6.19-5.48v-11.08c0-3.82,2.33-5.24,5.66-5.24Z"/>
        <path class="cls-1" d="M408.67,52.15c5.86-3.44,8.79-7.35,8.79-11.73h-7.56c-2.43,0-3.63-1.35-3.63-3.76v-14.92c0-2.41,1.69-3.56,4.28-3.56h15.69c2.52,0,3.88,1.81,3.88,4.26v16.94c0,2.06-.34,4.32-1.03,6.77-1.83,6.62-6.67,11.81-14.53,15.57-2.64,1.27-3.64,.23-4.4-1.09l-2.59-5.02c-.69-1.19-.79-2.38,1.1-3.48Z"/>
        <path class="cls-1" d="M412.24,102.75h6.28c.87,0,1.9-.55,3.11-1.66,1.2-1.11,1.9-2.1,2.1-2.96l5.49-30.5c1.06-5.78,4.22-10.84,9.47-15.18,5.25-4.34,10.77-6.51,16.55-6.51h6.04c2.06,0,3.07,1.39,3.07,3.06v15.32c0,2.01-.88,3.02-3.2,3.02h-4.89c-1.16,0-2.43,.51-3.83,1.52-1.4,1.01-2.19,2.1-2.39,3.25l-5.49,30.79c-.67,4.05-2.65,7.81-5.93,11.28-5.69,6.17-11.81,9.49-18.36,9.97-.97,.08-3.67,.13-8.09,.14-2.43,0-2.75-1.98-2.75-3.22v-15.33c0-1.84,.99-2.98,2.83-2.98Z"/>
        <path class="cls-1" d="M276.64,50.6c11.09-6.43,26.9-6.28,38.74-2.04,4.46,1.59,5.87,1.98,5.9,7.17,.01,1.9,.23,10.28-.29,11.45-.14,.32-.34,.6-.6,.83-1.33,1.15-3.89,.47-5.41,.08-2.69-.7-5.3-1.56-8.03-2.14-8.22-1.75-15.36-.76-21.38,5.6-5.17,5.45-5.85,14.22-3.55,21.08,3.96,11.81,14.6,15.86,26.2,12.8,1.41-.37,2.88-.92,4.26-1.39,1.2-.41,3.76-1.38,4.95-1.47,3.39-.25,4.25,2.41,4.32,5.24,.07,2.67,.11,5.5-.09,8.16-.19,2.4-.94,4.59-3.21,5.74-8.06,4.11-21.99,3.76-30.76,2.29-4.89-.82-9.39-2.79-13.34-5.79-9.47-7.2-14.54-19.31-15.3-30.96-.94-14.47,4.65-29.13,17.61-36.65Z"/>
      </g>
      <g>
        <path class="cls-1" d="M100.65,198.61c-4.23,2.05-8.5,3.07-12.8,3.07-7.76,0-14.39-2.79-19.89-8.34-5.5-5.55-8.25-12.22-8.25-20.02s2.77-14.53,8.31-20.02,12.22-8.24,20.05-8.24c5.85,0,11.23,1.71,16.14,5.13,4.9,3.42,8.34,7.88,10.32,13.39,1.13,3.17,1.69,5.82,1.69,7.94v28.39c0,1.07-.79,1.77-2.07,1.77h-11.5c-1.05,0-1.98-.57-1.98-1.74v-1.33h0Zm-25.4-25.29c0,3.46,1.25,6.44,3.76,8.94,2.5,2.5,5.48,3.76,8.94,3.76s6.44-1.25,8.94-3.76c2.5-2.5,3.76-5.48,3.76-8.94s-1.23-6.33-3.7-8.84c-2.47-2.5-5.43-3.76-8.89-3.76s-6.46,1.22-8.99,3.65c-2.54,2.43-3.81,5.41-3.81,8.94Z"/>
        <path class="cls-1" d="M271.94,147.58v10.4c0,1.43-.59,2.53-2.37,2.53h-3.55c-.92,0-1.57,.33-1.96,1-.39,.67-.58,1.04-.58,1.11v37.3c0,.99-.66,1.75-1.95,1.75h-11.55c-1.57,0-2.16-.61-2.16-1.68v-36.95c0-4.09,1.29-7.76,3.86-11,2.58-3.24,5.87-5.43,9.89-6.56,1.27-.35,2.47-.53,3.6-.53h4.29c1.68,0,2.49,1.34,2.49,2.62Z"/>
        <path class="cls-1" d="M56.64,199.06v-10.4c0-1.43-.59-2.53-2.37-2.53h-19.06c-.92,0-1.57-.34-1.96-1.01-.39-.67-.58-1.04-.58-1.11v-52.8c0-.99-.66-1.74-1.95-1.74h-11.55c-1.57,0-2.16,.61-2.16,1.68v52.45c0,4.09,1.29,7.76,3.86,11.01,2.58,3.24,5.87,5.43,9.89,6.56,1.27,.35,2.47,.53,3.6,.53h19.79c1.68,0,2.49-1.34,2.49-2.62Z"/>
        <path class="cls-1" d="M137.96,150.16c4.23-2.05,8.5-3.07,12.8-3.07,7.76,0,14.39,2.79,19.89,8.34,5.5,5.55,8.25,12.22,8.25,20.02s-2.77,14.53-8.31,20.02c-5.54,5.48-12.22,8.24-20.05,8.24-5.85,0-11.23-1.71-16.14-5.13-4.9-3.42-8.34-7.88-10.32-13.39-1.13-3.17-1.69-5.82-1.69-7.94v-47.24c0-1.07,.79-1.77,2.07-1.77h11.5c1.05,0,1.98,.57,1.98,1.74v20.18h0Zm25.4,25.29c0-3.46-1.25-6.44-3.76-8.94-2.5-2.5-5.49-3.76-8.94-3.76s-6.44,1.25-8.94,3.76c-2.5,2.5-3.76,5.49-3.76,8.94s1.23,6.33,3.7,8.83c2.47,2.5,5.43,3.76,8.89,3.76s6.46-1.22,9-3.65c2.54-2.43,3.81-5.41,3.81-8.94Z"/>
        <path class="cls-1" d="M211.69,145.13c15.6,0,28.24,12.64,28.24,28.24s-12.65,28.24-28.24,28.24-28.24-12.64-28.24-28.24,12.65-28.24,28.24-28.24h0Zm0,15.69c-6.94,0-12.56,5.62-12.56,12.56s5.62,12.56,12.56,12.56,12.56-5.62,12.56-12.56-5.62-12.56-12.56-12.56Z"/>
        <path class="cls-1" d="M318.14,198.61c-4.23,2.05-8.5,3.07-12.8,3.07-7.76,0-14.39-2.79-19.89-8.34-5.5-5.55-8.25-12.22-8.25-20.02s2.77-14.53,8.31-20.02c5.54-5.48,12.22-8.24,20.05-8.24,5.86,0,11.23,1.71,16.14,5.13,4.9,3.42,8.34,7.88,10.32,13.39,1.13,3.17,1.69,5.82,1.69,7.94v28.39c0,1.07-.79,1.77-2.08,1.77h-11.5c-1.05,0-1.98-.57-1.98-1.74v-1.33h0Zm-25.4-25.29c0,3.46,1.25,6.44,3.76,8.94,2.5,2.5,5.48,3.76,8.94,3.76s6.44-1.25,8.94-3.76c2.5-2.5,3.76-5.48,3.76-8.94s-1.23-6.33-3.7-8.84c-2.47-2.5-5.43-3.76-8.89-3.76s-6.45,1.22-8.99,3.65c-2.54,2.43-3.81,5.41-3.81,8.94Z"/>
        <path class="cls-1" d="M368.75,199.06v-10.4c0-1.43-.59-2.53-2.37-2.53h-5.86c-.92,0-1.57-.34-1.96-1.01-.39-.67-.58-1.04-.58-1.11v-53.85c0-.99-.66-1.74-1.95-1.74h-11.55c-1.57,0-2.16,.61-2.16,1.68v53.49c0,4.09,1.29,7.76,3.86,11.01,2.57,3.24,5.87,5.43,9.89,6.56,1.27,.35,2.47,.53,3.6,.53h6.6c1.68,0,2.48-1.34,2.48-2.62Z"/>
        <path class="cls-1" d="M349.23,157.93h17.78c.99,0,1.74-.66,1.74-1.95v-11.55c0-1.57-.61-2.16-1.68-2.16h-17.85v15.66Z"/>
        <path class="cls-1" d="M403.02,145.13c15.6,0,28.24,12.64,28.24,28.24s-12.65,28.24-28.24,28.24-28.24-12.64-28.24-28.24,12.65-28.24,28.24-28.24h0Zm0,15.69c-6.94,0-12.56,5.62-12.56,12.56s5.62,12.56,12.56,12.56,12.56-5.62,12.56-12.56-5.62-12.56-12.56-12.56Z"/>
        <path class="cls-1" d="M464.61,147.58v10.4c0,1.43-.59,2.53-2.37,2.53h-3.55c-.92,0-1.57,.33-1.96,1-.39,.67-.58,1.04-.58,1.11v37.3c0,.99-.66,1.75-1.95,1.75h-11.55c-1.57,0-2.16-.61-2.16-1.68v-36.95c0-4.09,1.29-7.76,3.86-11,2.57-3.24,5.87-5.43,9.89-6.56,1.27-.35,2.47-.53,3.6-.53h4.29c1.68,0,2.49,1.34,2.49,2.62Z"/>
        <path class="cls-1" d="M527.31,160.01v40.21c0,2.12-.56,4.76-1.69,7.94-1.98,5.5-5.41,9.96-10.32,13.39-4.9,3.42-10.28,5.13-16.14,5.13-6.62,0-12.43-1.97-17.41-5.9-1.22-.9-1.72-2.35-.16-3.76l8.1-7.11c1.22-.89,1.92-.96,3.73-.21,1.75,.88,3.66,1.32,5.74,1.32,3.46,0,6.42-1.25,8.89-3.76,1.99-2.02,3.18-4.33,3.57-6.92-.99,.37-2.37,.84-4.15,1.43-1.8,.58-4,.88-6.61,.88-10.58,0-18.45-4.69-23.6-14.09-2.05-3.76-3.07-7.57-3.07-11.46v-29.43c0-1.12,.75-1.73,2.19-1.73h11.32c.98,0,2.05,.72,2.05,1.85v28.52c0,.14,.14,1.06,.42,2.75,.71,2.33,2.05,4.23,4.02,5.71,1.98,1.48,4.16,2.22,6.56,2.22s4.67-.74,6.61-2.22c1.94-1.48,3.26-3.42,3.97-5.82,.07-.28,.18-.81,.32-1.59v-29.7c0-1.06,.91-1.73,2.09-1.73h11.64c1.21,0,1.92,.65,1.92,1.72v1.45s0,3.63,0,10.9Z"/>
      </g>
    </g>
  </g>
</svg>